<?xml version="1.0" encoding="iso-8859-1"?>
<!-- Generator: Adobe Illustrator 19.0.0, SVG Export Plug-In . SVG Version: 6.00 Build 0)  -->
<svg xmlns="http://www.w3.org/2000/svg" xmlns:xlink="http://www.w3.org/1999/xlink" version="1.1" id="Layer_1" x="0px" y="0px" viewBox="0 0 496 496" style="enable-background:new 0 0 496 496;" xml:space="preserve">
<g>
	<path style="fill:#F9ECDE;" d="M48,88c0,26.512,21.488,48,48,48h376c-26.512-26.512-26.512-69.488,0-96H96   C69.488,40,48,61.488,48,88z"/>
	<path style="fill:#F9ECDE;" d="M48,408c0,26.512,21.488,48,48,48h376c-26.512-26.512-26.512-69.488,0-96H96   C69.488,360,48,381.488,48,408z M128,392h48v40l-24-16l-24,16V392z"/>
	<path style="fill:#F9ECDE;" d="M48,248c0,26.512,21.488,48,48,48h376c-26.512-26.512-26.512-69.488,0-96H96   C69.488,200,48,221.488,48,248z"/>
</g>
<path style="fill:#66CEDB;" d="M16,88c0,44.184,35.816,80,80,80h384v-32h-8H96c-26.512,0-48-21.488-48-48s21.488-48,48-48h376h8V8  H96C51.816,8,16,43.816,16,88z"/>
<path style="fill:#F6BF58;" d="M16,248c0,44.184,35.816,80,80,80h384v-32h-8H96c-26.512,0-48-21.488-48-48s21.488-48,48-48h376h8  v-32H96C51.816,168,16,203.816,16,248z"/>
<path style="fill:#66CEDB;" d="M16,408c0,44.184,35.816,80,80,80h384v-32h-8H96c-26.512,0-48-21.488-48-48s21.488-48,48-48h376h8  v-32H96C51.816,328,16,363.816,16,408z"/>
<polygon style="fill:#F6BF58;" points="176,432 176,392 128,392 128,432 152,416 "/>
<g>
	<path style="fill:#010133;" d="M480,0H96C47.48,0,8,39.48,8,88c0,35.512,21.192,66.112,51.552,80C29.192,181.888,8,212.488,8,248   s21.192,66.112,51.552,80C29.192,341.888,8,372.488,8,408c0,48.52,39.48,88,88,88h384c4.424,0,8-3.584,8-8v-32c0-4.416-3.576-8-8-8   h-4.464c-20.432-22.696-20.432-57.304,0-80H480c4.424,0,8-3.584,8-8v-32v-32c0-4.416-3.576-8-8-8h-4.464   c-20.432-22.696-20.432-57.304,0-80H480c4.424,0,8-3.584,8-8v-32v-32c0-4.416-3.576-8-8-8h-4.464   c-20.432-22.696-20.432-57.304,0-80H480c4.424,0,8-3.584,8-8V8C488,3.584,484.424,0,480,0z M24,88c0-39.696,32.296-72,72-72h376v16   H96c-30.872,0-56,25.12-56,56s25.128,56,56,56h376v16H96C56.296,160,24,127.696,24,88z M24,248c0-39.696,32.296-72,72-72h376v16H96   c-30.872,0-56,25.12-56,56s25.128,56,56,56h376v16H96C56.296,320,24,287.696,24,248z M472,480H96c-39.704,0-72-32.304-72-72   s32.296-72,72-72h376v16H96c-30.872,0-56,25.12-56,56s25.128,56,56,56h376V480z M455.592,448H96c-22.056,0-40-17.944-40-40   s17.944-40,40-40h359.592C440.432,392.416,440.432,423.584,455.592,448z M455.592,288H96c-22.056,0-40-17.944-40-40   s17.944-40,40-40h359.592C440.432,232.416,440.432,263.584,455.592,288z M455.592,128H96c-22.056,0-40-17.944-40-40   s17.944-40,40-40h359.592C440.432,72.416,440.432,103.584,455.592,128z"/>
	<rect x="128" y="96" style="fill:#010133;" width="88" height="16"/>
	<rect x="232" y="96" style="fill:#010133;" width="48" height="16"/>
	<rect x="296" y="96" style="fill:#010133;" width="16" height="16"/>
	<rect x="328" y="96" style="fill:#010133;" width="16" height="16"/>
	<rect x="160" y="64" style="fill:#010133;" width="136" height="16"/>
	<rect x="312" y="64" style="fill:#010133;" width="48" height="16"/>
	<rect x="376" y="64" style="fill:#010133;" width="16" height="16"/>
	<rect x="208" y="256" style="fill:#010133;" width="72" height="16"/>
	<rect x="296" y="256" style="fill:#010133;" width="16" height="16"/>
	<rect x="328" y="256" style="fill:#010133;" width="16" height="16"/>
	<rect x="160" y="224" style="fill:#010133;" width="136" height="16"/>
	<rect x="312" y="224" style="fill:#010133;" width="48" height="16"/>
	<rect x="376" y="224" style="fill:#010133;" width="16" height="16"/>
	<rect x="200" y="416" style="fill:#010133;" width="16" height="16"/>
	<rect x="232" y="416" style="fill:#010133;" width="48" height="16"/>
	<rect x="296" y="416" style="fill:#010133;" width="16" height="16"/>
	<rect x="328" y="416" style="fill:#010133;" width="16" height="16"/>
	<rect x="360" y="416" style="fill:#010133;" width="16" height="16"/>
	<rect x="200" y="384" style="fill:#010133;" width="96" height="16"/>
	<rect x="312" y="384" style="fill:#010133;" width="48" height="16"/>
	<rect x="376" y="384" style="fill:#010133;" width="16" height="16"/>
	<path style="fill:#010133;" d="M176,384h-48c-4.424,0-8,3.584-8,8v40c0,2.952,1.624,5.664,4.224,7.056   c2.592,1.392,5.768,1.232,8.208-0.4L152,425.616l19.56,13.04c1.336,0.896,2.888,1.344,4.44,1.344c1.296,0,2.592-0.312,3.776-0.944   c2.6-1.392,4.224-4.104,4.224-7.056v-40C184,387.584,180.424,384,176,384z M168,417.048l-11.56-7.704   c-1.344-0.896-2.896-1.344-4.44-1.344s-3.096,0.448-4.44,1.344L136,417.048V400h32V417.048z"/>
	<rect x="136" y="256" style="fill:#010133;" width="40" height="16"/>
</g>
<g>
</g>
<g>
</g>
<g>
</g>
<g>
</g>
<g>
</g>
<g>
</g>
<g>
</g>
<g>
</g>
<g>
</g>
<g>
</g>
<g>
</g>
<g>
</g>
<g>
</g>
<g>
</g>
<g>
</g>
</svg>
