<?xml version="1.0" encoding="iso-8859-1"?>
<!-- Generator: Adobe Illustrator 19.0.0, SVG Export Plug-In . SVG Version: 6.00 Build 0)  -->
<svg xmlns="http://www.w3.org/2000/svg" xmlns:xlink="http://www.w3.org/1999/xlink" version="1.1" id="Layer_1" x="0px" y="0px" viewBox="0 0 480 480" style="enable-background:new 0 0 480 480;" xml:space="preserve">
<path style="fill:#66CEDB;" d="M8,336c0,17.672,14.328,32,32,32h136h128h136c17.672,0,32-14.328,32-32v-24H8V336z"/>
<path style="fill:#F9ECDE;" d="M440,8h-40v48l-24-16l-24,16V8H40C22.328,8,8,22.328,8,40v72v48v48v104h464V208v-48v-48V40  C472,22.328,457.672,8,440,8z M104,240c-8.84,0-16-7.16-16-16s7.16-16,16-16s16,7.16,16,16S112.84,240,104,240z M104,176  c-8.84,0-16-7.16-16-16s7.16-16,16-16s16,7.16,16,16S112.84,176,104,176z M104,112c-8.84,0-16-7.16-16-16s7.16-16,16-16  s16,7.16,16,16S112.84,112,104,112z M314.696,264H165.304c-12.656,0-20.304-14-13.456-24.656L208,152v-24V96V56h64v96l56.152,87.344  C335,250,327.352,264,314.696,264z M376,80c8.84,0,16,7.16,16,16s-7.16,16-16,16s-16-7.16-16-16S367.16,80,376,80z M376,240  c-8.84,0-16-7.16-16-16s7.16-16,16-16s16,7.16,16,16S384.84,240,376,240z M376,176c-8.84,0-16-7.16-16-16s7.16-16,16-16  s16,7.16,16,16S384.84,176,376,176z"/>
<path style="fill:#66CEDB;" d="M96,440c0,17.672,14.328,32,32,32h224c17.672,0,32-14.328,32-32h-48H144H96z"/>
<polygon style="fill:#F9ECDE;" points="144,440 336,440 304,368 176,368 "/>
<g>
	<circle style="fill:#66CEDB;" cx="104" cy="96" r="16"/>
	<circle style="fill:#66CEDB;" cx="104" cy="160" r="16"/>
	<circle style="fill:#66CEDB;" cx="104" cy="224" r="16"/>
	<circle style="fill:#66CEDB;" cx="376" cy="224" r="16"/>
	<circle style="fill:#66CEDB;" cx="376" cy="160" r="16"/>
	<circle style="fill:#66CEDB;" cx="376" cy="96" r="16"/>
</g>
<g>
	<polygon style="fill:#F6BF58;" points="376,40 400,56 400,8 352,8 352,56  "/>
	<path style="fill:#F6BF58;" d="M272,152V56h-64v40v32v24l-56.152,87.344C145,250,152.648,264,165.304,264h149.384   c12.656,0,20.304-14,13.456-24.656L272,152z"/>
</g>
<g>
	<path style="fill:#010133;" d="M440,0h-40h-48H40C17.944,0,0,17.944,0,40v296c0,22.056,17.944,40,40,40h123.688L138.8,432H96   c-4.424,0-8,3.576-8,8c0,22.056,17.944,40,40,40h224c22.056,0,40-17.944,40-40c0-4.424-3.576-8-8-8h-42.8l-24.888-56H440   c22.056,0,40-17.944,40-40V40C480,17.944,462.056,0,440,0z M392,16v25.056l-11.56-7.712C379.096,32.448,377.544,32,376,32   s-3.096,0.448-4.44,1.344L360,41.056V16H392z M40,16h304v40c0,2.952,1.624,5.664,4.224,7.056c2.592,1.392,5.76,1.232,8.208-0.4   L376,49.616l19.56,13.04C396.896,63.544,398.448,64,400,64c1.296,0,2.592-0.312,3.776-0.944C406.376,61.664,408,58.952,408,56V16   h32c13.232,0,24,10.768,24,24v64h-20.688l-13.656-13.656C428.16,88.84,426.128,88,424,88h-25.472c-3.312-9.288-12.112-16-22.528-16   c-13.232,0-24,10.768-24,24s10.768,24,24,24c10.416,0,19.216-6.712,22.528-16h22.16l13.656,13.656   C435.84,119.16,437.872,120,440,120h24v32h-65.472c-3.312-9.288-12.112-16-22.528-16c-13.232,0-24,10.768-24,24s10.768,24,24,24   c10.416,0,19.216-6.712,22.528-16H464v32h-24c-2.128,0-4.16,0.84-5.656,2.344L420.688,216h-22.16c-3.312-9.288-12.112-16-22.528-16   c-13.232,0-24,10.768-24,24s10.768,24,24,24c10.416,0,19.216-6.712,22.528-16H424c2.128,0,4.16-0.84,5.656-2.344L443.312,216H464   v88H16v-88h20.688l13.656,13.656C51.84,231.16,53.872,232,56,232h25.472c3.312,9.288,12.112,16,22.528,16c13.232,0,24-10.768,24-24   s-10.768-24-24-24c-10.416,0-19.216,6.712-22.528,16h-22.16l-13.656-13.656C44.16,200.84,42.128,200,40,200H16v-32h65.472   c3.312,9.288,12.112,16,22.528,16c13.232,0,24-10.768,24-24s-10.768-24-24-24c-10.416,0-19.216,6.712-22.528,16H16v-32h24   c2.128,0,4.16-0.84,5.656-2.344L59.312,104h22.16c3.312,9.288,12.112,16,22.528,16c13.232,0,24-10.768,24-24s-10.768-24-24-24   c-10.416,0-19.216,6.712-22.528,16H56c-2.128,0-4.16,0.84-5.656,2.344L36.688,104H16V40C16,26.768,26.768,16,40,16z M384,96   c0,4.416-3.584,8-8,8s-8-3.584-8-8s3.584-8,8-8S384,91.584,384,96z M384,160c0,4.416-3.584,8-8,8s-8-3.584-8-8s3.584-8,8-8   S384,155.584,384,160z M384,224c0,4.416-3.584,8-8,8s-8-3.584-8-8s3.584-8,8-8S384,219.584,384,224z M96,224c0-4.416,3.584-8,8-8   s8,3.584,8,8s-3.584,8-8,8S96,228.416,96,224z M96,160c0-4.416,3.584-8,8-8s8,3.584,8,8s-3.584,8-8,8S96,164.416,96,160z M96,96   c0-4.416,3.584-8,8-8s8,3.584,8,8s-3.584,8-8,8S96,100.416,96,96z M352,464H128c-10.432,0-19.328-6.688-22.632-16H144h192h38.632   C371.328,457.312,362.432,464,352,464z M323.688,432H156.312l24.88-56H298.8L323.688,432z M440,360H304H176H40   c-13.232,0-24-10.768-24-24v-16h448v16C464,349.232,453.232,360,440,360z"/>
	<path style="fill:#010133;" d="M165.304,272h149.392c8.912,0,16.792-4.672,21.064-12.496c4.272-7.832,3.952-16.984-0.864-24.488   l-0.008-0.008L280,149.648V56c0-4.424-3.576-8-8-8h-64c-4.424,0-8,3.576-8,8v93.648l-54.888,85.376   c-4.824,7.504-5.144,16.656-0.864,24.488C148.512,267.328,156.392,272,165.304,272z M158.568,243.672l56.16-87.344   c0.832-1.288,1.272-2.8,1.272-4.328v-16h16v-16h-16v-16h16V88h-16V64h48v88c0,1.528,0.44,3.04,1.272,4.328l56.152,87.336   c2.32,3.608,0.976,6.912,0.296,8.168c-0.688,1.256-2.744,4.168-7.024,4.168H165.304c-4.28,0-6.336-2.912-7.024-4.168   C157.6,250.576,156.256,247.272,158.568,243.672z"/>
	<path style="fill:#010133;" d="M224,203.312V240h16v-40h8v24c0,2.128,0.84,4.16,2.344,5.656l8,8l11.312-11.312L264,220.688V200h8   v-16h-48c-2.128,0-4.16,0.84-5.656,2.344l-16,16l11.312,11.312L224,203.312z"/>
</g>
<g>
</g>
<g>
</g>
<g>
</g>
<g>
</g>
<g>
</g>
<g>
</g>
<g>
</g>
<g>
</g>
<g>
</g>
<g>
</g>
<g>
</g>
<g>
</g>
<g>
</g>
<g>
</g>
<g>
</g>
</svg>
