<?xml version="1.0" encoding="iso-8859-1"?>
<!-- Generator: Adobe Illustrator 19.0.0, SVG Export Plug-In . SVG Version: 6.00 Build 0)  -->
<svg xmlns="http://www.w3.org/2000/svg" xmlns:xlink="http://www.w3.org/1999/xlink" version="1.1" id="Layer_1" x="0px" y="0px" viewBox="0 0 480 480" style="enable-background:new 0 0 480 480;" xml:space="preserve">
<g>
	<polygon style="fill:#F6BF58;" points="240,8 8,72 120,102.896 240,136 360,102.896 440,80.824 472,72  "/>
	<polygon style="fill:#F6BF58;" points="120,102.896 120,206.416 120,208 194.112,227.76 240,240 285.888,227.76 360,208    360,206.416 360,102.896 240,136  "/>
</g>
<path style="fill:#66CEDB;" d="M285.888,227.76L240,240l-45.888-12.24L120,208v-1.584C95.176,234.608,80,271.488,80,312  c0,36.392,12.256,69.84,32.752,96.688l-0.008,0.008c0.048,0.064,0.104,0.12,0.152,0.184c2.584,3.376,5.288,6.648,8.128,9.8  c0.296,0.328,0.6,0.648,0.904,0.976c2.84,3.112,5.768,6.144,8.84,9.024c0.176,0.168,0.36,0.32,0.536,0.488  c3.808,3.544,7.808,6.88,11.944,10.048c0.968,0.736,1.936,1.472,2.92,2.184c2.952,2.152,5.992,4.184,9.088,6.136  c1.864,1.168,3.728,2.336,5.64,3.424c1.848,1.056,3.72,2.08,5.616,3.064c3.208,1.664,6.448,3.264,9.784,4.712  c1.416,0.624,2.88,1.168,4.32,1.744c3.136,1.256,6.304,2.432,9.528,3.488c1.024,0.336,2.032,0.72,3.072,1.04  c4.152,1.272,8.4,2.328,12.688,3.264c1.096,0.24,2.192,0.48,3.288,0.696c4.416,0.864,8.896,1.56,13.44,2.048  c0.872,0.096,1.76,0.16,2.64,0.24C230.12,471.704,235.024,472,240,472c4.976,0,9.88-0.296,14.736-0.744  c0.88-0.08,1.768-0.144,2.64-0.24c4.544-0.488,9.016-1.184,13.44-2.048c1.104-0.216,2.2-0.456,3.288-0.696  c4.288-0.936,8.536-1.992,12.688-3.264c1.032-0.32,2.04-0.696,3.072-1.04c3.224-1.056,6.4-2.232,9.528-3.488  c1.44-0.576,2.896-1.128,4.32-1.744c3.328-1.448,6.576-3.048,9.784-4.712c1.896-0.984,3.768-2,5.616-3.064  c1.912-1.096,3.776-2.256,5.64-3.424c3.096-1.952,6.136-3.984,9.088-6.136c0.984-0.712,1.952-1.448,2.92-2.184  c4.136-3.16,8.136-6.504,11.944-10.048c0.176-0.168,0.36-0.32,0.536-0.488c3.072-2.88,6-5.912,8.84-9.024  c0.296-0.328,0.608-0.648,0.904-0.976c2.84-3.152,5.544-6.424,8.128-9.8c0.048-0.064,0.104-0.12,0.152-0.184l-0.008-0.008  C387.744,381.84,400,348.392,400,312c0-40.512-15.176-77.4-40-105.584V208L285.888,227.76z"/>
<polygon style="fill:#F6BF58;" points="440,160 416,224 440,248 464,224 "/>
<g>
	<path style="fill:#010133;" d="M5.872,79.712L112,108.984v94.624C86.24,233.992,72,272.312,72,312   c0,38,12.832,72.976,34.184,101.152c0.08,0.12,0.096,0.272,0.184,0.384c0.448,0.592,0.936,1.144,1.392,1.728   c1.472,1.88,2.944,3.752,4.496,5.568c2.448,2.88,4.976,5.656,7.584,8.336c1.176,1.208,2.384,2.368,3.592,3.536   c3.008,2.92,6.08,5.752,9.272,8.424c0.216,0.176,0.408,0.368,0.624,0.544c3.96,3.28,8.08,6.312,12.296,9.2   c0.288,0.2,0.576,0.4,0.864,0.6c4.376,2.96,8.88,5.688,13.496,8.208c0.008,0.008,0.016,0.008,0.024,0.016   c14.176,7.72,29.432,13.344,45.384,16.672c0.544,0.112,1.08,0.224,1.624,0.336c4.992,0.992,10.048,1.784,15.16,2.32   c0.64,0.064,1.288,0.104,1.928,0.168C229.352,479.688,234.648,480,240,480c5.352,0,10.648-0.312,15.896-0.808   c0.64-0.064,1.288-0.096,1.928-0.168c5.112-0.536,10.168-1.328,15.16-2.32c0.544-0.112,1.08-0.216,1.624-0.336   c15.952-3.336,31.208-8.952,45.384-16.672c0.008-0.008,0.016-0.008,0.024-0.016c4.616-2.52,9.12-5.248,13.496-8.208   c0.288-0.192,0.576-0.4,0.864-0.6c4.216-2.888,8.336-5.92,12.296-9.2c0.216-0.176,0.408-0.368,0.624-0.544   c3.192-2.672,6.264-5.504,9.272-8.424c1.208-1.168,2.416-2.336,3.592-3.536c2.6-2.688,5.136-5.464,7.584-8.336   c1.552-1.816,3.024-3.688,4.496-5.568c0.456-0.584,0.944-1.136,1.392-1.728c0.088-0.112,0.104-0.264,0.184-0.384   C395.168,384.976,408,350,408,312c0-39.688-14.24-78.008-40-108.392v-94.624l64-17.656v67.216l-23.496,62.648   c-1.104,2.936-0.384,6.248,1.832,8.464l24,24c1.568,1.56,3.616,2.344,5.664,2.344s4.096-0.784,5.656-2.344l24-24   c2.216-2.216,2.936-5.528,1.832-8.464L448,158.544V86.92l26.128-7.208C477.6,78.752,480,75.6,480,72s-2.4-6.752-5.872-7.712   l-232-64c-1.4-0.384-2.856-0.384-4.256,0l-232,64C2.4,65.248,0,68.4,0,72S2.4,78.752,5.872,79.712z M440,236.688l-14.696-14.704   l14.696-39.2l14.696,39.2L440,236.688z M365.352,397.8c-16.72-10.456-38.44-18.488-62.928-23.576   c5.056-16.816,8.456-35.08,9.24-54.232H391.6C390.088,348.752,380.704,375.44,365.352,397.8z M349.176,417.504   c-1.2,1.248-2.424,2.456-3.656,3.656c-2.656,2.568-5.36,5.08-8.192,7.448c-0.648,0.544-1.32,1.056-1.976,1.592   c-10.936,8.84-23.08,16.248-36.2,21.816c-0.024,0.008-0.056,0.024-0.08,0.032c-4.448,1.88-9.008,3.552-13.656,5.008   c-0.192,0.064-0.392,0.12-0.584,0.176c-4.536,1.408-9.168,2.6-13.88,3.576c-0.32,0.064-0.648,0.12-0.968,0.184   c-4.12,0.832-8.32,1.432-12.552,1.92c11.08-15.056,27.856-40.928,39.88-73.376c22.696,4.52,42.84,11.608,58.224,20.96   c-0.04,0.048-0.088,0.096-0.128,0.144C353.4,413,351.328,415.288,349.176,417.504z M209.048,460.816   c-4.712-0.976-9.336-2.176-13.88-3.576c-0.192-0.064-0.392-0.12-0.584-0.176c-4.648-1.456-9.208-3.128-13.656-5.008   c-0.024-0.008-0.056-0.024-0.08-0.032c-13.12-5.568-25.264-12.968-36.2-21.816c-0.656-0.536-1.328-1.048-1.976-1.592   c-2.832-2.368-5.536-4.88-8.192-7.448c-1.232-1.2-2.456-2.416-3.656-3.656c-2.144-2.216-4.224-4.504-6.232-6.856   c-0.04-0.048-0.088-0.096-0.128-0.144c15.384-9.352,35.528-16.448,58.224-20.96c12.024,32.44,28.8,58.32,39.88,73.376   c-4.232-0.488-8.432-1.096-12.552-1.92C209.696,460.936,209.368,460.88,209.048,460.816z M88.408,320h79.936   c0.792,19.152,4.184,37.416,9.24,54.232c-24.488,5.08-46.216,13.12-62.928,23.576C99.296,375.44,89.912,348.752,88.408,320z    M121.752,216.744l61.648,16.44c-9.12,24.096-14.208,47.84-15.176,70.816h-79.88C90.032,272.208,101.624,241.68,121.752,216.744z    M240,368c-15.968,0-31.584,1.176-46.44,3.384c-4.992-15.992-8.448-33.312-9.272-51.384h111.424   c-0.824,18.072-4.28,35.392-9.272,51.384C271.584,369.176,255.968,368,240,368z M281,386.832c-13.168,34-31.616,60.36-41,72.496   c-9.384-12.136-27.84-38.496-41-72.496c13.144-1.792,26.872-2.832,41-2.832C254.128,384,267.856,385.04,281,386.832z M311.776,304   c-0.96-22.976-6.048-46.72-15.176-70.816l61.648-16.44C378.376,241.68,389.96,272.2,391.656,304H311.776z M281.104,237.32   c8.792,22.776,13.704,45.144,14.688,66.68H184.208c0.984-21.536,5.896-43.904,14.688-66.68l39.04,10.408   c0.68,0.184,1.376,0.272,2.064,0.272c0.688,0,1.384-0.088,2.064-0.272L281.104,237.32z M352,113.4v88.456l-68.168,18.176   c0,0,0,0-0.008,0L240,231.72l-43.832-11.688c0,0,0,0-0.008,0L128,201.856V113.4l109.872,30.312   c0.696,0.192,1.416,0.288,2.128,0.288s1.432-0.096,2.128-0.288L352,113.4z M240,16.296L441.92,72L240,127.704L38.08,72L240,16.296z   "/>
	<rect x="232" y="64" style="fill:#010133;" width="16" height="16"/>
</g>
<g>
</g>
<g>
</g>
<g>
</g>
<g>
</g>
<g>
</g>
<g>
</g>
<g>
</g>
<g>
</g>
<g>
</g>
<g>
</g>
<g>
</g>
<g>
</g>
<g>
</g>
<g>
</g>
<g>
</g>
</svg>
