<?xml version="1.0" encoding="iso-8859-1"?>
<!-- Generator: Adobe Illustrator 19.0.0, SVG Export Plug-In . SVG Version: 6.00 Build 0)  -->
<svg xmlns="http://www.w3.org/2000/svg" xmlns:xlink="http://www.w3.org/1999/xlink" version="1.1" id="Layer_1" x="0px" y="0px" viewBox="0 0 480 480" style="enable-background:new 0 0 480 480;" xml:space="preserve">
<g>
	<path style="fill:#66CEDB;" d="M8,296l112,30.896L240,360l120-33.104l80-22.072L472,296l-232-64L8,296z M320,296   c0,8.84-7.16,16-16,16H176c-8.84,0-16-7.16-16-16s7.16-16,16-16h128C312.84,280,320,287.16,320,296z"/>
	<polygon style="fill:#66CEDB;" points="120,326.896 120,432 240,472 360,432 360,326.896 240,360  "/>
	<polygon style="fill:#66CEDB;" points="416,448 440,472 464,448 440,384  "/>
</g>
<path style="fill:#F9ECDE;" d="M160,296c0,8.84,7.16,16,16,16h128c8.84,0,16-7.16,16-16s-7.16-16-16-16H176  C167.16,280,160,287.16,160,296z"/>
<circle style="fill:#F6BF58;" cx="240" cy="152" r="80"/>
<g>
	<path style="fill:#010133;" d="M474.128,288.288l-200.016-55.176C305.744,219.76,328,188.432,328,152c0-48.52-39.48-88-88-88   s-88,39.48-88,88c0,36.432,22.256,67.76,53.888,81.112L5.872,288.288C2.408,289.24,0,292.4,0,296s2.408,6.76,5.872,7.712   L112,332.984V432c0,3.448,2.2,6.496,5.472,7.584l120,40c0.816,0.272,1.68,0.416,2.528,0.416c0.848,0,1.712-0.144,2.528-0.416   l120-40C365.8,438.496,368,435.448,368,432v-99.016l64-17.656v67.208l-23.496,62.648c-1.104,2.936-0.384,6.248,1.832,8.472l24,24   c1.568,1.56,3.616,2.344,5.664,2.344s4.096-0.784,5.656-2.344l24-24c2.216-2.216,2.936-5.528,1.832-8.472L448,382.544V310.92   l26.128-7.208C477.592,302.76,480,299.6,480,296S477.592,289.24,474.128,288.288z M440,460.688l-14.704-14.704l14.704-39.2   l14.704,39.2L440,460.688z M168,152c0-39.704,32.296-72,72-72s72,32.296,72,72c0,39.696-32.288,71.984-71.976,72   c-0.016,0-0.024,0-0.04,0C200.288,223.984,168,191.696,168,152z M240,240.296L441.912,296L240,351.704L38.088,296L240,240.296z    M352,337.408v88.832l-112,37.336L128,426.24v-88.832l109.872,30.304c1.392,0.392,2.856,0.392,4.248,0L352,337.408z"/>
	<path style="fill:#010133;" d="M328,296c0-13.232-10.768-24-24-24H176c-13.232,0-24,10.768-24,24s10.768,24,24,24h128   C317.232,320,328,309.232,328,296z M168,296c0-4.416,3.584-8,8-8h128c4.416,0,8,3.584,8,8s-3.584,8-8,8H176   C171.584,304,168,300.416,168,296z"/>
	<path style="fill:#010133;" d="M232,208h16v-9.472c9.288-3.312,16-12.112,16-22.528v-8c0-13.232-10.768-24-24-24   c-4.416,0-8-3.584-8-8v-8c0-4.416,3.584-8,8-8c4.416,0,8,3.584,8,8h16c0-10.416-6.712-19.216-16-22.528V96h-16v9.472   c-9.288,3.312-16,12.112-16,22.528v8c0,13.232,10.768,24,24,24c4.416,0,8,3.584,8,8v8c0,4.416-3.584,8-8,8s-8-3.584-8-8h-16   c0,10.416,6.712,19.216,16,22.528V208z"/>
	<rect x="232" y="32" style="fill:#010133;" width="16" height="16"/>
	<rect x="232" style="fill:#010133;" width="16" height="16"/>
	<rect x="200" style="fill:#010133;" width="16" height="16"/>
	<rect x="264" style="fill:#010133;" width="16" height="16"/>
</g>
<g>
</g>
<g>
</g>
<g>
</g>
<g>
</g>
<g>
</g>
<g>
</g>
<g>
</g>
<g>
</g>
<g>
</g>
<g>
</g>
<g>
</g>
<g>
</g>
<g>
</g>
<g>
</g>
<g>
</g>
</svg>
