<?xml version="1.0" encoding="iso-8859-1"?>
<!-- Generator: Adobe Illustrator 19.0.0, SVG Export Plug-In . SVG Version: 6.00 Build 0)  -->
<svg xmlns="http://www.w3.org/2000/svg" xmlns:xlink="http://www.w3.org/1999/xlink" version="1.1" id="Layer_1" x="0px" y="0px" viewBox="0 0 480 480" style="enable-background:new 0 0 480 480;" xml:space="preserve">
<path style="fill:#66CEDB;" d="M368,264v-24v-24h-26.896c-2.592-10.952-6.912-21.2-12.656-30.504l1.496-1.496l17.536-17.536  l-33.944-33.944L296,150.056l-1.496,1.496c-9.304-5.744-19.56-10.064-30.504-12.656V112h-24h-24v26.896  c-10.952,2.592-21.2,6.912-30.504,12.656L184,150.056l-17.536-17.536l-33.944,33.944L150.056,184l1.496,1.496  c-5.744,9.304-10.064,19.56-12.656,30.504H112v24v24h26.896c2.592,10.952,6.912,21.2,12.656,30.504L150.056,296l-17.536,17.536  l33.944,33.944L184,329.944l1.488-1.488c9.304,5.744,19.56,10.064,30.512,12.656V368h24h24v-26.896  c10.952-2.592,21.2-6.912,30.512-12.656l1.488,1.496l17.536,17.536l33.944-33.944L329.944,296l-1.496-1.496  c5.744-9.304,10.064-19.56,12.656-30.504H368z M279.6,279.6C269.464,289.728,255.464,296,240,296s-29.464-6.272-39.6-16.4  C190.272,269.464,184,255.464,184,240s6.272-29.464,16.4-39.6c10.136-10.128,24.136-16.4,39.6-16.4s29.464,6.272,39.6,16.4  c10.128,10.136,16.4,24.136,16.4,39.6S289.728,269.464,279.6,279.6z"/>
<path style="fill:#F6BF58;" d="M240,184c-15.464,0-29.464,6.272-39.6,16.4C190.272,210.536,184,224.536,184,240  s6.272,29.464,16.4,39.6c10.136,10.128,24.136,16.4,39.6,16.4s29.464-6.272,39.6-16.4c10.128-10.136,16.4-24.136,16.4-39.6  s-6.272-29.464-16.4-39.6C269.464,190.272,255.464,184,240,184z"/>
<g>
	<path style="fill:#010133;" d="M240,176c-35.288,0-64,28.712-64,64s28.712,64,64,64s64-28.712,64-64S275.288,176,240,176z    M267.768,200.92L240,228.688l-27.768-27.768C220.08,195.328,229.648,192,240,192C250.352,192,259.92,195.328,267.768,200.92z    M200.92,212.232L228.688,240l-27.768,27.768C195.328,259.92,192,250.352,192,240S195.328,220.08,200.92,212.232z M212.232,279.08   L240,251.312l27.768,27.768C259.92,284.672,250.352,288,240,288S220.08,284.672,212.232,279.08z M279.08,267.768L251.312,240   l27.768-27.768C284.672,220.08,288,229.648,288,240C288,250.352,284.672,259.92,279.08,267.768z"/>
	<path style="fill:#010133;" d="M373.656,189.656L419.312,144H480v-16h-64c-2.128,0-4.16,0.84-5.656,2.344L364.688,176h-15.432   l3.88-3.88c1.504-1.504,2.344-3.536,2.344-5.656s-0.84-4.16-2.344-5.656l-33.944-33.944c-3.128-3.128-8.184-3.128-11.312,0   l-3.88,3.88v-15.432l45.656-45.656C351.16,68.16,352,66.12,352,64V0h-16v60.688l-45.656,45.656C288.84,107.84,288,109.88,288,112   v27.072c-5.192-2.472-10.496-4.672-16-6.32v-17.44l5.656-5.656C279.16,108.16,280,106.12,280,104V75.312l29.656-29.656   C311.16,44.16,312,42.12,312,40V0h-16v36.688l-29.656,29.656C264.84,67.84,264,69.88,264,72v28.688L260.688,104H248V0h-16v104   h-12.688L216,100.688V72c0-2.12-0.84-4.16-2.344-5.656L184,36.688V0h-16v40c0,2.12,0.84,4.16,2.344,5.656L200,75.312V104   c0,2.12,0.84,4.16,2.344,5.656l5.656,5.656v17.44c-5.504,1.64-10.808,3.848-16,6.32V112c0-2.12-0.84-4.16-2.344-5.656L144,60.688V0   h-16v64c0,2.12,0.84,4.16,2.344,5.656L176,115.312v15.432l-3.88-3.88c-3.128-3.128-8.184-3.128-11.312,0l-33.944,33.944   c-1.504,1.504-2.344,3.536-2.344,5.656s0.84,4.16,2.344,5.656l3.88,3.88h-15.432l-45.656-45.656C68.16,128.84,66.128,128,64,128H0   v16h60.688l45.656,45.656C107.84,191.16,109.872,192,112,192h27.072c-2.472,5.192-4.672,10.496-6.32,16h-17.44l-5.656-5.656   C108.16,200.84,106.128,200,104,200H75.312l-29.656-29.656C44.16,168.84,42.128,168,40,168H0v16h36.688l29.656,29.656   C67.84,215.16,69.872,216,72,216h28.688l3.312,3.312V232H0v16h104v12.688L100.688,264H72c-2.128,0-4.16,0.84-5.656,2.344   L36.688,296H0v16h40c2.128,0,4.16-0.84,5.656-2.344L75.312,280H104c2.128,0,4.16-0.84,5.656-2.344l5.656-5.656h17.44   c1.648,5.504,3.848,10.808,6.32,16H112c-2.128,0-4.16,0.84-5.656,2.344L60.688,336H0v16h64c2.128,0,4.16-0.84,5.656-2.344   L115.312,304h15.432l-3.88,3.88c-1.504,1.504-2.344,3.536-2.344,5.656s0.84,4.16,2.344,5.656l33.944,33.944   c3.128,3.128,8.184,3.128,11.312,0l3.88-3.88v15.432l-45.656,45.656C128.84,411.84,128,413.88,128,416v64h16v-60.688l45.656-45.656   C191.16,372.16,192,370.12,192,368v-27.072c5.192,2.472,10.496,4.672,16,6.32v17.44l-5.656,5.656C200.84,371.84,200,373.88,200,376   v28.688l-29.656,29.656C168.84,435.84,168,437.88,168,440v40h16v-36.688l29.656-29.656C215.16,412.16,216,410.12,216,408v-28.688   l3.312-3.312H232v104h16V376h12.688l3.312,3.312V408c0,2.12,0.84,4.16,2.344,5.656L296,443.312V480h16v-40   c0-2.12-0.84-4.16-2.344-5.656L280,404.688V376c0-2.12-0.84-4.16-2.344-5.656L272,364.688v-17.44c5.504-1.64,10.808-3.848,16-6.32   V368c0,2.12,0.84,4.16,2.344,5.656L336,419.312V480h16v-64c0-2.12-0.84-4.16-2.344-5.656L304,364.688v-15.432l3.88,3.88   c3.128,3.128,8.184,3.128,11.312,0l33.944-33.944c1.504-1.504,2.344-3.536,2.344-5.656s-0.84-4.16-2.344-5.656l-3.88-3.88h15.432   l45.656,45.656C411.84,351.16,413.872,352,416,352h64v-16h-60.688l-45.656-45.656C372.16,288.84,370.128,288,368,288h-27.072   c2.472-5.192,4.672-10.496,6.32-16h17.44l5.656,5.656C371.84,279.16,373.872,280,376,280h28.688l29.656,29.656   C435.84,311.16,437.872,312,440,312h40v-16h-36.688l-29.656-29.656C412.16,264.84,410.128,264,408,264h-28.688L376,260.688V248h104   v-16H376v-12.688l3.312-3.312H408c2.128,0,4.16-0.84,5.656-2.344L443.312,184H480v-16h-40c-2.128,0-4.16,0.84-5.656,2.344   L404.688,200H376c-2.128,0-4.16,0.84-5.656,2.344L364.688,208h-17.44c-1.648-5.504-3.848-10.808-6.32-16H368   C370.128,192,372.16,191.16,373.656,189.656z M360,224v32h-18.888c-3.712,0-6.928,2.544-7.784,6.16   c-2.36,9.936-6.288,19.408-11.68,28.152c-1.952,3.16-1.48,7.24,1.152,9.856l13.376,13.376l-22.632,22.632L300.168,322.8   c-2.624-2.624-6.72-3.096-9.856-1.152c-8.744,5.4-18.208,9.328-28.152,11.68c-3.608,0.856-6.16,4.08-6.16,7.784V360h-32v-18.896   c0-3.704-2.544-6.928-6.16-7.784c-9.936-2.352-19.408-6.28-28.152-11.68c-3.152-1.944-7.248-1.472-9.856,1.152l-13.376,13.376   l-22.632-22.632L157.2,300.16c2.624-2.624,3.104-6.704,1.152-9.856c-5.392-8.744-9.32-18.216-11.68-28.152   c-0.848-3.608-4.072-6.152-7.784-6.152H120v-32h18.888c3.712,0,6.928-2.544,7.784-6.16c2.36-9.936,6.288-19.408,11.68-28.152   c1.952-3.16,1.48-7.24-1.152-9.856l-13.376-13.376l22.632-22.632l13.376,13.376c2.608,2.624,6.712,3.088,9.856,1.152   c8.744-5.4,18.208-9.328,28.152-11.68c3.608-0.856,6.16-4.08,6.16-7.784V120h32v18.896c0,3.704,2.544,6.928,6.16,7.784   c9.936,2.352,19.408,6.28,28.152,11.68c3.144,1.936,7.232,1.472,9.856-1.152l13.376-13.376l22.632,22.632L322.8,179.84   c-2.624,2.624-3.104,6.704-1.152,9.856c5.392,8.744,9.32,18.216,11.68,28.152c0.848,3.608,4.072,6.16,7.784,6.16H360V224z"/>
</g>
<g>
</g>
<g>
</g>
<g>
</g>
<g>
</g>
<g>
</g>
<g>
</g>
<g>
</g>
<g>
</g>
<g>
</g>
<g>
</g>
<g>
</g>
<g>
</g>
<g>
</g>
<g>
</g>
<g>
</g>
</svg>
