<?xml version="1.0" encoding="iso-8859-1"?>
<!-- Generator: Adobe Illustrator 19.0.0, SVG Export Plug-In . SVG Version: 6.00 Build 0)  -->
<svg xmlns="http://www.w3.org/2000/svg" xmlns:xlink="http://www.w3.org/1999/xlink" version="1.1" id="Layer_1" x="0px" y="0px" viewBox="0 0 485.544 485.544" style="enable-background:new 0 0 485.544 485.544;" xml:space="preserve">
<path style="fill:#66CEDB;" d="M122.774,432l87.216,43.608c5.48,2.736,11.968,2.528,17.256-0.56l174.52-101.8  c5.576-3.248,9.008-9.216,9.008-15.672c0-11.264-10.16-19.808-21.256-17.88L226.774,368l-48-48h-88v112H122.774z"/>
<polygon style="fill:#F9ECDE;" points="90.774,440 90.774,432 90.774,320 90.774,312 58.774,312 58.774,440 "/>
<rect x="10.774" y="312" style="fill:#66CEDB;" width="48" height="128"/>
<polygon style="fill:#F6BF58;" points="322.774,80 370.774,88 386.774,128 418.774,104 474.774,128 442.774,8 "/>
<g>
	<path style="fill:#010133;" d="M10.774,448h48h32c4.424,0,8-3.576,8-8h22.112l85.528,42.768c3.696,1.848,7.704,2.776,11.696,2.776   c4.552,0,9.096-1.192,13.168-3.568L405.806,380.16c8-4.664,12.968-13.312,12.968-22.576c0-7.736-3.4-15.032-9.32-20.016   c-5.904-4.976-13.704-7.072-21.304-5.752l-158.656,27.592l-45.064-45.064c-1.496-1.504-3.528-2.344-5.656-2.344h-80   c0-4.424-3.576-8-8-8h-32h-48c-4.424,0-8,3.576-8,8v128C2.774,444.424,6.35,448,10.774,448z M175.462,328l63.032,63.032   c2.72,2.72,4.28,6.488,4.28,10.344c0,8.064-6.56,14.624-14.624,14.624c-3.848,0-7.624-1.56-10.344-4.28l-41.376-41.376   l-11.312,11.312l41.376,41.376c5.784,5.784,13.472,8.968,21.656,8.968c16.88,0,30.624-13.744,30.624-30.624   c0-8.176-3.184-15.872-8.968-21.656l-6.48-6.48l147.552-25.664c2.968-0.52,5.976,0.296,8.272,2.232   c2.304,1.936,3.624,4.768,3.624,7.768c0,3.592-1.928,6.952-5.032,8.76l-174.52,101.816c-2.96,1.728-6.568,1.84-9.648,0.304   l-87.216-43.608c-1.112-0.56-2.344-0.848-3.584-0.848h-24v-96H175.462z M82.774,432h-16V320h16V432z M18.774,320h32v112h-32V320z"/>
	<path style="fill:#010133;" d="M379.342,130.968c0.928,2.312,2.872,4.064,5.272,4.736c2.4,0.664,4.968,0.192,6.952-1.304   l28.304-21.224l51.752,22.176c1.008,0.44,2.088,0.648,3.152,0.648c1.888,0,3.752-0.672,5.232-1.952c2.312-2,3.28-5.152,2.496-8.112   l-32-120c-0.64-2.432-2.392-4.408-4.728-5.352c-2.312-0.936-4.968-0.744-7.12,0.552l-120,72c-2.872,1.728-4.368,5.056-3.744,8.352   s3.232,5.848,6.544,6.4l43.552,7.256L379.342,130.968z M390.326,115.336l-10.28-25.688l47.168-52.416l-15.52,62.072   L390.326,115.336z M428.182,99.328l14.84-59.352l19.784,74.184L428.182,99.328z M401.118,42.32l-33.36,37.064l-22.24-3.712   L401.118,42.32z"/>
	<path style="fill:#010133;" d="M212.846,158.72l9.736,12.688c3.928-3.008,8.16-6,12.576-8.888l-8.768-13.392   C221.638,152.232,217.086,155.464,212.846,158.72z"/>
	<path style="fill:#010133;" d="M330.966,103.848l4.544,15.344c5.04-1.496,10.104-2.92,15.176-4.264l-4.096-15.472   C341.366,100.848,336.166,102.312,330.966,103.848z"/>
	<path style="fill:#010133;" d="M306.198,304.952l7.032,14.376c5.368-2.624,10.344-5.408,14.784-8.264l-8.672-13.456   C315.43,300.136,311.006,302.6,306.198,304.952z"/>
	<path style="fill:#010133;" d="M185.806,233.672c4.672,3.592,10.496,6.312,17.304,8.072l4-15.488   c-4.704-1.216-8.592-2.992-11.552-5.272L185.806,233.672z"/>
	<path style="fill:#010133;" d="M348.406,238.76l15.488-4c-1.768-6.832-6.48-12.672-13.624-16.88l-8.128,13.784   C344.526,233.064,347.542,235.432,348.406,238.76z"/>
	<path style="fill:#010133;" d="M173.822,202.992c-0.512,2.032-0.784,4.128-0.784,6.24c0,2.4,0.336,4.84,0.992,7.264l15.44-4.2   c-0.28-1.048-0.432-2.08-0.432-3.064c0-0.784,0.096-1.544,0.288-2.296c0.288-1.152,0.832-2.368,1.656-3.736l-13.704-8.264   C175.63,197.672,174.502,200.32,173.822,202.992z"/>
	<path style="fill:#010133;" d="M220.63,244.192c1.136,0.048,2.272,0.064,3.408,0.064c4.44,0,8.96-0.296,13.832-0.896l-1.968-15.872   c-5.248,0.648-9.904,0.872-14.68,0.728L220.63,244.192z"/>
	<path style="fill:#010133;" d="M330.014,227.68l2.184-15.84l-1.784-0.216c-5.256-0.552-10.496-0.576-15.736-0.28l0.904,15.968   c4.384-0.248,8.776-0.232,13.136,0.216L330.014,227.68z"/>
	<path style="fill:#010133;" d="M353.446,287.056l-13.264-8.952c-2.504,3.72-5.616,7.288-9.24,10.632l10.84,11.768   C346.318,296.32,350.246,291.8,353.446,287.056z"/>
	<path style="fill:#010133;" d="M250.894,224.832l3.472,15.624c5.272-1.168,10.552-2.52,15.832-3.92l-4.08-15.472   C261.038,222.4,255.958,223.704,250.894,224.832z"/>
	<path style="fill:#010133;" d="M240.518,140.528l7.872,13.936c4.504-2.544,9.096-4.976,13.76-7.288l-7.112-14.328   C250.126,135.288,245.27,137.84,240.518,140.528z"/>
	<path style="fill:#010133;" d="M269.878,125.944l6.44,14.64c4.792-2.104,9.624-4.112,14.488-6.024l-5.872-14.888   C279.878,121.664,274.854,123.752,269.878,125.944z"/>
	<path style="fill:#010133;" d="M282.59,331.632c5.168-1.76,10.344-3.624,15.416-5.632l-5.888-14.872   c-4.832,1.912-9.76,3.688-14.68,5.368L282.59,331.632z"/>
	<path style="fill:#010133;" d="M305.55,129.008c4.936-1.784,9.912-3.496,14.904-5.128l-4.968-15.2   c-5.152,1.68-10.264,3.44-15.36,5.264L305.55,129.008z"/>
	<path style="fill:#010133;" d="M364.846,253.232l-15.968-1.096c-0.32,4.792-1.2,9.376-2.624,13.656l15.184,5.032   C363.278,265.28,364.422,259.36,364.846,253.232z"/>
	<path style="fill:#010133;" d="M281.702,216.992l3.888,15.512c5.032-1.256,10.08-2.424,15.12-3.344l-2.872-15.736   C292.982,214.312,287.862,215.448,281.702,216.992z"/>
	<polygon style="fill:#010133;" points="251.942,341.432 267.182,336.64 262.382,321.376 247.07,326.192  "/>
	<path style="fill:#010133;" d="M200.054,169.368c-4.176,3.808-8.168,7.784-11.856,11.832l11.832,10.784   c3.352-3.68,6.984-7.304,10.8-10.768L200.054,169.368z"/>
</g>
<g>
</g>
<g>
</g>
<g>
</g>
<g>
</g>
<g>
</g>
<g>
</g>
<g>
</g>
<g>
</g>
<g>
</g>
<g>
</g>
<g>
</g>
<g>
</g>
<g>
</g>
<g>
</g>
<g>
</g>
</svg>
