<?xml version="1.0" encoding="iso-8859-1"?>
<!-- Generator: Adobe Illustrator 19.0.0, SVG Export Plug-In . SVG Version: 6.00 Build 0)  -->
<svg xmlns="http://www.w3.org/2000/svg" xmlns:xlink="http://www.w3.org/1999/xlink" version="1.1" id="Layer_1" x="0px" y="0px" viewBox="0 0 480.001 480.001" style="enable-background:new 0 0 480.001 480.001;" xml:space="preserve">
<path style="fill:#66CEDB;" d="M416.001,180c-15.68,0-29.832,6.464-40,16.848V20h-48v144h-64h-26.896  c-2.592,10.952-6.912,21.2-12.656,30.504l19.032,19.032l-33.944,33.944l-19.032-19.032c-9.304,5.744-19.56,10.064-30.512,12.656V268  h-44.632l52.64,200h64l-42.104-160h138.104v144h48V275.152l-0.008-0.008c10.16,10.392,24.32,16.856,40.008,16.856  c30.928,0,56-25.072,56-56S446.929,180,416.001,180z M366.561,209.72c-0.824,1.544-1.576,3.128-2.256,4.744  C364.985,212.84,365.737,211.256,366.561,209.72z M364.073,215.096c-0.584,1.456-1.136,2.928-1.608,4.44  C362.937,218.024,363.489,216.552,364.073,215.096z M362.121,220.888c-0.368,1.296-0.728,2.6-1,3.936  C361.393,223.496,361.753,222.192,362.121,220.888z M360.745,227.288c-0.16,1.008-0.352,2.008-0.456,3.04  C360.393,229.296,360.585,228.296,360.745,227.288z M360.289,241.672c0.104,1.024,0.296,2.024,0.456,3.04  C360.585,243.704,360.393,242.704,360.289,241.672z M361.121,247.168c0.272,1.336,0.632,2.64,1,3.936  C361.753,249.808,361.393,248.504,361.121,247.168z M362.473,252.464c0.472,1.52,1.024,3.008,1.616,4.472  C363.497,255.472,362.937,253.992,362.473,252.464z M364.305,257.536c0.68,1.624,1.432,3.208,2.256,4.752  C365.737,260.744,364.985,259.16,364.305,257.536z"/>
<path style="fill:#F6BF58;" d="M160.001,241.104c10.952-2.592,21.2-6.912,30.512-12.656l19.032,19.032l33.944-33.944l-19.032-19.032  c5.744-9.304,10.064-19.56,12.656-30.504h26.888v-48h-26.896c-2.592-10.952-6.912-21.2-12.656-30.504l19.032-19.032L209.537,32.52  l-19.032,19.032c-9.304-5.752-19.552-10.064-30.504-12.656V12h-48v26.896c-10.952,2.592-21.2,6.912-30.504,12.656L62.465,32.52  L28.521,66.464l19.032,19.032C41.801,94.8,37.489,105.048,34.897,116H8.001v48h26.896c2.592,10.952,6.912,21.2,12.656,30.504  l-19.032,19.032l33.944,33.944l1.536-1.536V244l17.488-15.552l15,7.648c4.984,2.056,10.16,3.744,15.512,5.008V244v24h3.368h44.632  V241.104z M96.401,179.6c-10.128-10.136-16.4-24.136-16.4-39.6s6.272-29.464,16.4-39.6c10.136-10.128,24.136-16.4,39.6-16.4  s29.464,6.272,39.6,16.4c10.128,10.136,16.4,24.136,16.4,39.6s-6.272,29.464-16.4,39.6c-10.136,10.128-24.136,16.4-39.6,16.4  S106.537,189.728,96.401,179.6z"/>
<g>
	<path style="fill:#66CEDB;" d="M192.001,140c0-15.464-6.272-29.464-16.4-39.6c-10.136-10.128-24.136-16.4-39.6-16.4   s-29.464,6.272-39.6,16.4c-10.128,10.136-16.4,24.136-16.4,39.6s6.272,29.464,16.4,39.6c10.136,10.128,24.136,16.4,39.6,16.4   s29.464-6.272,39.6-16.4C185.729,169.464,192.001,155.464,192.001,140z"/>
	<polygon style="fill:#66CEDB;" points="96.489,236.096 81.489,228.448 64.001,244 64.001,245.944 64.001,252 8.001,468 72.001,468    120.001,292 112.001,268 112.001,244  "/>
</g>
<g>
	<path style="fill:#010133;" d="M416.001,172c-11.664,0-22.576,3.184-32,8.656V20c0-4.424-3.576-8-8-8h-48c-4.424,0-8,3.576-8,8v136   h-48v-40c0-4.424-3.576-8-8-8h-20.752c-2.192-7.344-5.136-14.44-8.8-21.192l14.688-14.688c3.128-3.128,3.128-8.184,0-11.312   l-33.944-33.944c-3.128-3.128-8.184-3.128-11.312,0l-14.688,14.688c-6.76-3.664-13.848-6.6-21.192-8.8V12c0-4.424-3.576-8-8-8h-48   c-4.424,0-8,3.576-8,8v20.752c-7.344,2.192-14.44,5.136-21.192,8.8L68.121,26.864c-3.128-3.128-8.184-3.128-11.312,0L22.865,60.808   c-3.128,3.128-3.128,8.184,0,11.312l14.688,14.688c-3.664,6.76-6.6,13.848-8.8,21.192H8.001c-4.424,0-8,3.576-8,8v48   c0,4.424,3.576,8,8,8h20.752c2.192,7.344,5.136,14.44,8.8,21.192L22.865,207.88c-1.504,1.504-2.344,3.528-2.344,5.656   s0.84,4.16,2.344,5.656l33.52,33.512L0.265,465.96c-0.632,2.408-0.12,4.96,1.4,6.92c1.512,1.968,3.848,3.12,6.336,3.12h64   c3.632,0,6.816-2.456,7.736-5.96l40.264-153.008l40.264,153.008c0.92,3.504,4.104,5.96,7.736,5.96h64   c2.488,0,4.824-1.152,6.336-3.12c1.512-1.96,2.032-4.52,1.4-6.92L200.265,316h119.736v136c0,4.424,3.576,8,8,8h48   c4.424,0,8-3.576,8-8V291.344c9.424,5.472,20.336,8.656,32,8.656c35.288,0,64-28.712,64-64S451.289,172,416.001,172z    M54.353,190.304c-5.392-8.744-9.32-18.208-11.68-28.152c-0.848-3.608-4.072-6.152-7.784-6.152H16.001v-32h18.888   c3.712,0,6.928-2.544,7.784-6.16c2.36-9.936,6.288-19.408,11.68-28.152c1.952-3.16,1.48-7.232-1.152-9.856L39.825,66.456   l22.632-22.632L75.833,57.2c2.616,2.632,6.712,3.104,9.856,1.152c8.744-5.392,18.208-9.32,28.152-11.68   c3.616-0.848,6.16-4.072,6.16-7.784V20h32v18.888c0,3.712,2.544,6.928,6.16,7.784c9.936,2.36,19.408,6.288,28.152,11.68   c3.144,1.952,7.232,1.488,9.856-1.152l13.376-13.376l22.632,22.632l-13.376,13.376c-2.624,2.624-3.104,6.704-1.152,9.856   c5.392,8.744,9.32,18.208,11.68,28.152c0.848,3.608,4.072,6.16,7.784,6.16h18.888v32h-18.888c-3.712,0-6.928,2.544-7.784,6.16   c-2.36,9.936-6.288,19.408-11.68,28.152c-1.952,3.16-1.48,7.232,1.152,9.856l13.376,13.376l-22.632,22.624L196.169,222.8   c-2.64-2.632-6.72-3.112-9.856-1.152c-8.744,5.392-18.208,9.32-28.152,11.68c-3.616,0.848-6.16,4.072-6.16,7.784V260h-32v-18.888   c0-3.712-2.544-6.928-6.16-7.784c-9.936-2.36-19.408-6.288-28.152-11.68c-3.152-1.96-7.232-1.488-9.856,1.152l-13.376,13.368   l-22.632-22.624l13.376-13.376C55.833,197.536,56.305,193.464,54.353,190.304z M65.833,460H18.377l56.112-213.232l8.32-8.312   c6.76,3.664,13.848,6.6,21.192,8.8V268c0,3.376,2.096,6.224,5.048,7.4l2.688,10.2L65.833,460z M368.001,444h-32V308   c0-4.424-3.576-8-8-8H189.889c-2.488,0-4.824,1.152-6.336,3.12c-1.512,1.96-2.032,4.52-1.4,6.92L221.625,460h-47.464l-48.424-184   h34.264c4.424,0,8-3.576,8-8v-20.752c7.344-2.192,14.44-5.136,21.192-8.8l14.688,14.68c3.128,3.128,8.184,3.128,11.312,0   l33.944-33.936c1.504-1.504,2.344-3.528,2.344-5.656s-0.84-4.16-2.344-5.656l-14.688-14.688c3.664-6.76,6.6-13.848,8.8-21.192   h20.752h64c4.424,0,8-3.576,8-8V28h32v165.704c-0.272,0.304-0.504,0.64-0.768,0.952c-0.504,0.592-0.984,1.208-1.472,1.824   c-0.784,0.992-1.552,2-2.272,3.04c-0.4,0.568-0.776,1.152-1.16,1.736c-0.736,1.128-1.432,2.272-2.088,3.44   c-0.32,0.568-0.632,1.144-0.936,1.72c-0.64,1.216-1.232,2.456-1.792,3.712c-0.264,0.592-0.52,1.184-0.768,1.784   c-0.52,1.272-0.984,2.568-1.416,3.872c-0.208,0.632-0.432,1.264-0.624,1.904c-0.392,1.312-0.72,2.64-1.024,3.976   c-0.152,0.664-0.328,1.328-0.456,2c-0.272,1.408-0.472,2.832-0.648,4.256c-0.08,0.624-0.192,1.232-0.256,1.864   c-0.2,2.048-0.32,4.12-0.32,6.216c0,2.096,0.12,4.168,0.312,6.232c0.064,0.632,0.176,1.24,0.256,1.864   c0.184,1.432,0.376,2.848,0.648,4.256c0.136,0.672,0.304,1.336,0.456,2c0.304,1.336,0.632,2.664,1.024,3.976   c0.192,0.64,0.408,1.272,0.624,1.904c0.432,1.304,0.904,2.6,1.416,3.872c0.248,0.6,0.504,1.192,0.768,1.784   c0.56,1.256,1.152,2.488,1.792,3.712c0.304,0.576,0.616,1.152,0.936,1.72c0.656,1.168,1.36,2.312,2.088,3.44   c0.376,0.584,0.76,1.168,1.16,1.736c0.72,1.032,1.488,2.04,2.272,3.04c0.48,0.616,0.96,1.224,1.472,1.824   c0.264,0.312,0.496,0.64,0.768,0.952V444H368.001z M416.001,284c-14.016,0-26.6-6.072-35.384-15.68   c-0.624-0.68-1.256-1.36-1.84-2.064c-0.472-0.584-0.904-1.2-1.352-1.808c-0.464-0.624-0.944-1.24-1.368-1.88   c-0.504-0.752-0.952-1.536-1.408-2.32c-0.32-0.536-0.656-1.064-0.952-1.616c-0.472-0.872-0.88-1.784-1.296-2.688   c-0.224-0.496-0.48-0.976-0.688-1.48c-0.4-0.96-0.736-1.944-1.072-2.928c-0.168-0.488-0.36-0.96-0.512-1.456   c-0.304-1-0.544-2.032-0.792-3.056c-0.12-0.504-0.272-1-0.376-1.512c-0.216-1.072-0.36-2.168-0.496-3.264   c-0.064-0.48-0.16-0.96-0.208-1.44c-0.168-1.584-0.256-3.184-0.256-4.808s0.088-3.224,0.24-4.808   c0.048-0.488,0.152-0.96,0.208-1.44c0.144-1.096,0.28-2.192,0.496-3.264c0.104-0.512,0.256-1.008,0.376-1.512   c0.24-1.024,0.48-2.056,0.792-3.056c0.152-0.496,0.344-0.968,0.512-1.456c0.336-0.984,0.672-1.976,1.072-2.928   c0.208-0.504,0.464-0.984,0.688-1.48c0.416-0.904,0.832-1.816,1.296-2.688c0.296-0.552,0.632-1.072,0.952-1.616   c0.456-0.776,0.912-1.568,1.408-2.32c0.432-0.64,0.912-1.256,1.368-1.88c0.448-0.608,0.88-1.224,1.352-1.808   c0.576-0.712,1.216-1.384,1.84-2.064c8.8-9.608,21.384-15.68,35.4-15.68c26.472,0,48,21.528,48,48S442.473,284,416.001,284z"/>
	<path style="fill:#010133;" d="M136.001,204c35.288,0,64-28.712,64-64s-28.712-64-64-64s-64,28.712-64,64S100.713,204,136.001,204z    M108.233,179.08l27.768-27.768l27.768,27.768c-7.848,5.592-17.416,8.92-27.768,8.92S116.081,184.672,108.233,179.08z    M175.081,167.768L147.313,140l27.768-27.768c5.592,7.848,8.92,17.416,8.92,27.768S180.673,159.92,175.081,167.768z    M163.769,100.92l-27.768,27.768l-27.768-27.768c7.848-5.592,17.416-8.92,27.768-8.92S155.921,95.328,163.769,100.92z    M96.921,112.232L124.689,140l-27.768,27.768c-5.592-7.848-8.92-17.416-8.92-27.768S91.329,120.08,96.921,112.232z"/>
</g>
<g>
</g>
<g>
</g>
<g>
</g>
<g>
</g>
<g>
</g>
<g>
</g>
<g>
</g>
<g>
</g>
<g>
</g>
<g>
</g>
<g>
</g>
<g>
</g>
<g>
</g>
<g>
</g>
<g>
</g>
</svg>
