<?xml version="1.0" encoding="iso-8859-1"?>
<!-- Generator: Adobe Illustrator 19.0.0, SVG Export Plug-In . SVG Version: 6.00 Build 0)  -->
<svg xmlns="http://www.w3.org/2000/svg" xmlns:xlink="http://www.w3.org/1999/xlink" version="1.1" id="Layer_1" x="0px" y="0px" viewBox="0 0 480 480" style="enable-background:new 0 0 480 480;" xml:space="preserve">
<path style="fill:#66CEDB;" d="M283.184,162.872l-19.352,19.352l33.944,33.944l19.352-19.352c5.904,3.304,12.232,5.904,18.872,7.784  V232h48v-27.4c6.64-1.88,12.968-4.48,18.872-7.784l19.352,19.352l33.944-33.944l-19.352-19.352  c3.304-5.904,5.904-12.232,7.784-18.872H472V96h-27.4c-1.88-6.64-4.48-12.968-7.784-18.872l19.352-19.352l-33.944-33.944  l-19.352,19.352C396.968,39.88,390.64,37.28,384,35.4V8h-48v27.4c-6.64,1.88-12.968,4.48-18.872,7.784l-19.352-19.352  l-33.944,33.944l19.352,19.352C279.88,83.032,277.28,89.36,275.4,96H248v48h27.4C277.28,150.64,279.88,156.968,283.184,162.872z   M360,72c26.512,0,48,21.488,48,48s-21.488,48-48,48s-48-21.488-48-48S333.488,72,360,72z"/>
<polygon style="fill:#F6BF58;" points="344,424 272,424 256,376 240,344 288,288 192,192 136,240 104,224 56,208 56,136 0,136   0,480 344,480 "/>
<g>
	<path style="fill:#010133;" d="M144,480h16c0-88.224-71.776-160-160-160v16C79.4,336,144,400.6,144,480z"/>
	<path style="fill:#010133;" d="M56,480h16c0-39.696-32.304-72-72-72v16C30.88,424,56,449.12,56,480z"/>
	<path style="fill:#010133;" d="M14.312,280.504C9.584,280.168,4.816,280,0,280v16c4.432,0,8.832,0.16,13.184,0.464L14.312,280.504z   "/>
	<path style="fill:#010133;" d="M200,480c0-5.56-0.232-11.16-0.68-16.632l-15.944,1.312c0.416,5.04,0.624,10.2,0.624,15.32H200z"/>
	<path style="fill:#010133;" d="M175.6,384.112c-2.648-4.84-5.536-9.648-8.592-14.28l-13.352,8.824   c2.816,4.256,5.472,8.672,7.904,13.128L175.6,384.112z"/>
	<path style="fill:#010133;" d="M189.072,414.576c-1.816-5.248-3.864-10.464-6.096-15.512l-14.632,6.472   c2.048,4.648,3.936,9.448,5.608,14.272L189.072,414.576z"/>
	<path style="fill:#010133;" d="M134.696,354.576c3.496,3.752,6.848,7.672,9.976,11.648l12.576-9.888   c-3.4-4.32-7.04-8.576-10.832-12.656L134.696,354.576z"/>
	<path style="fill:#010133;" d="M112.04,333.984c4.048,3.112,8.008,6.416,11.76,9.832l10.768-11.832   c-4.072-3.704-8.376-7.304-12.776-10.68L112.04,333.984z"/>
	<path style="fill:#010133;" d="M43.448,301.144l3.752-15.552c-5.344-1.288-10.84-2.376-16.336-3.232l-2.456,15.816   C33.464,298.96,38.52,299.96,43.448,301.144z"/>
	<path style="fill:#010133;" d="M99.512,325.152l8.656-13.456c-4.664-3-9.496-5.832-14.36-8.424l-7.504,14.136   C90.776,319.792,95.224,322.392,99.512,325.152z"/>
	<path style="fill:#010133;" d="M72.48,310.792l6.296-14.712c-5.096-2.184-10.336-4.168-15.568-5.904l-5.04,15.184   C62.984,306.96,67.792,308.784,72.48,310.792z"/>
	<path style="fill:#010133;" d="M197.272,446.84c-0.912-5.464-2.064-10.952-3.424-16.304l-15.504,3.936   c1.248,4.92,2.312,9.968,3.152,15L197.272,446.84z"/>
	<path style="fill:#010133;" d="M352,480v-56c0-4.416-3.584-8-8-8h-66.68c-6.736-24.768-16.592-48.536-29.352-70.832L295.128,298   c3.128-3.128,3.128-8.184,0-11.312L193.304,184.872c-3.128-3.128-8.184-3.128-11.312,0l-47.168,47.16   c-22.288-12.76-46.064-22.616-70.832-29.352V136c0-4.416-3.584-8-8-8H0v16h48v64.864c0,3.672,2.496,6.872,6.056,7.76   c27.44,6.856,53.664,17.728,77.936,32.296c3.144,1.88,7.176,1.392,9.776-1.2l45.88-45.872l90.512,90.504l-45.872,45.88   c-2.6,2.6-3.096,6.624-1.2,9.776c14.568,24.272,25.44,50.496,32.296,77.936c0.88,3.56,4.08,6.056,7.752,6.056H336v48H352z"/>
	<path style="fill:#010133;" d="M248,152h21.544c1.128,3.2,2.416,6.32,3.848,9.344l-15.224,15.224   c-3.128,3.128-3.128,8.184,0,11.312l33.944,33.944c3.128,3.128,8.184,3.128,11.312,0l15.224-15.224   c3.024,1.44,6.152,2.728,9.344,3.848V232c0,4.416,3.584,8,8,8h48c4.416,0,8-3.584,8-8v-21.544c3.2-1.128,6.32-2.416,9.344-3.848   l15.224,15.224c3.128,3.128,8.184,3.128,11.312,0l33.944-33.944c3.128-3.128,3.128-8.184,0-11.312l-15.224-15.224   c1.44-3.024,2.728-6.152,3.848-9.344H472c4.416,0,8-3.584,8-8v-48c0-4.416-3.584-8-8-8h-21.544c-1.128-3.2-2.416-6.32-3.848-9.344   l15.224-15.224c3.128-3.128,3.128-8.184,0-11.312l-33.944-33.944c-3.128-3.128-8.184-3.128-11.312,0l-15.224,15.224   c-3.032-1.448-6.152-2.736-9.352-3.864V8c0-4.416-3.584-8-8-8h-48c-4.416,0-8,3.584-8,8v21.544c-3.2,1.128-6.32,2.416-9.344,3.848   l-15.224-15.224c-3.128-3.128-8.184-3.128-11.312,0l-33.944,33.944c-3.128,3.128-3.128,8.184,0,11.312L273.4,78.648   c-1.44,3.032-2.728,6.152-3.856,9.352H248c-4.416,0-8,3.584-8,8v48C240,148.416,243.584,152,248,152z M256,104h19.4   c3.576,0,6.72-2.376,7.696-5.816c1.72-6.064,4.096-11.832,7.072-17.16c1.744-3.128,1.2-7.024-1.328-9.56l-13.696-13.696   l22.632-22.632l13.696,13.696c2.528,2.528,6.424,3.08,9.56,1.328c5.32-2.976,11.096-5.352,17.16-7.072   C341.624,42.12,344,38.976,344,35.4V16h32v19.4c0,3.576,2.376,6.72,5.816,7.696c6.064,1.72,11.832,4.096,17.16,7.072   c3.128,1.752,7.024,1.2,9.56-1.328l13.696-13.696l22.632,22.632l-13.696,13.696c-2.528,2.528-3.072,6.432-1.328,9.56   c2.976,5.32,5.352,11.096,7.072,17.16c0.968,3.432,4.112,5.808,7.688,5.808H464v32h-19.4c-3.576,0-6.72,2.376-7.696,5.816   c-1.72,6.064-4.096,11.832-7.072,17.16c-1.744,3.128-1.2,7.024,1.328,9.56l13.696,13.696l-22.632,22.632l-13.696-13.696   c-2.528-2.52-6.432-3.08-9.56-1.328c-5.32,2.976-11.096,5.352-17.16,7.072c-3.432,0.968-5.808,4.112-5.808,7.688V224h-32v-19.4   c0-3.576-2.376-6.72-5.816-7.696c-6.064-1.72-11.832-4.096-17.16-7.072c-3.136-1.752-7.024-1.192-9.56,1.328l-13.696,13.696   l-22.632-22.632l13.696-13.696c2.528-2.528,3.072-6.432,1.328-9.56c-2.976-5.32-5.352-11.096-7.072-17.16   c-0.968-3.432-4.112-5.808-7.688-5.808H256V104z"/>
	<path style="fill:#010133;" d="M360,176c30.88,0,56-25.12,56-56s-25.12-56-56-56s-56,25.12-56,56S329.12,176,360,176z M360,80   c22.056,0,40,17.944,40,40s-17.944,40-40,40s-40-17.944-40-40S337.944,80,360,80z"/>
	<polygon style="fill:#010133;" points="480,312 416,312 416,248 400,248 400,300.688 365.656,266.344 354.344,277.656 388.688,312    304,312 304,328 400,328 400,480 416,480 416,339.312 450.344,373.656 461.656,362.344 427.312,328 480,328  "/>
	<polygon style="fill:#010133;" points="152,176 168,176 168,91.312 202.344,125.656 213.656,114.344 179.312,80 232,80 232,64    168,64 168,0 152,0 152,52.688 117.656,18.344 106.344,29.656 140.688,64 0,64 0,80 152,80  "/>
</g>
<g>
</g>
<g>
</g>
<g>
</g>
<g>
</g>
<g>
</g>
<g>
</g>
<g>
</g>
<g>
</g>
<g>
</g>
<g>
</g>
<g>
</g>
<g>
</g>
<g>
</g>
<g>
</g>
<g>
</g>
</svg>
