<?xml version="1.0" encoding="iso-8859-1"?>
<!-- Generator: Adobe Illustrator 19.0.0, SVG Export Plug-In . SVG Version: 6.00 Build 0)  -->
<svg xmlns="http://www.w3.org/2000/svg" xmlns:xlink="http://www.w3.org/1999/xlink" version="1.1" id="Layer_1" x="0px" y="0px" viewBox="0 0 480 480" style="enable-background:new 0 0 480 480;" xml:space="preserve">
<path style="fill:#F6BF58;" d="M144,344v112c0,8.832,7.168,16,16,16s16-7.168,16-16v-40v-32v-32v-8c0-8.488,1.696-16.584,4.712-24  c9.52-23.424,32.488-40,59.288-40c3.184,0,6.328-0.176,9.432-0.48L272,272l16-8l2.72,1.36C317.856,248.376,336,218.304,336,184V64  h24L320,8l-40,56h24v80v32v8c0,8.488-1.696,16.584-4.712,24c-9.52,23.424-32.488,40-59.288,40c-3.472,0-6.896,0.208-10.28,0.568  l-25.136,6.288C169.144,268.984,144,303.584,144,344z"/>
<polygon style="fill:#66CEDB;" points="432,368 432,248 456,248 416,192 376,248 400,248 400,368 "/>
<polygon style="fill:#F6BF58;" points="72,232 72,168 96,168 56,112 16,168 40,168 40,232 "/>
<g>
	<polygon style="fill:#66CEDB;" points="200,64 160,8 120,64 144,64 144,192 152,224 184,264 200,256 204.584,254.856    229.72,248.568 232,248 208,240 184,216 176,184 176,64  "/>
	<path style="fill:#66CEDB;" d="M272,272l-22.568,7.52L248,280l32,16l16,16l8,24v120c0,8.84,7.16,16,16,16s16-7.16,16-16V328l-8-32   l-24-24l-13.28-6.64L288,264L272,272z"/>
</g>
<g>
	<path style="fill:#010133;" d="M200,72c3,0,5.744-1.672,7.12-4.336c1.368-2.664,1.136-5.872-0.608-8.312l-40-56   c-3-4.208-10.016-4.208-13.016,0l-40,56c-1.744,2.44-1.976,5.648-0.608,8.312C114.256,70.328,117,72,120,72h16v112   c0,31.16,13.952,60.264,37.696,79.952C150.688,283.04,136,311.832,136,344v112c0,13.232,10.768,24,24,24s24-10.768,24-24v-32h112   v32c0,13.232,10.768,24,24,24s24-10.768,24-24V344c0-31.16-13.952-60.264-37.696-79.952C329.312,244.96,344,216.168,344,184V72h16   c3,0,5.744-1.672,7.12-4.336c1.368-2.664,1.136-5.872-0.608-8.312l-40-56c-3-4.208-10.016-4.208-13.016,0l-40,56   c-1.744,2.44-1.976,5.648-0.608,8.312C274.256,70.328,277,72,280,72h16v64H184V72H200z M152,184V64c0-4.416-3.576-8-8-8h-8.456   L160,21.76L184.456,56H176c-4.424,0-8,3.584-8,8v120c0,26.704,14.648,50.016,36.304,62.448c-5.872,2.152-11.48,4.8-16.808,7.928   C165.256,237.752,152,211.872,152,184z M293.64,200H186.36c-1.52-5.072-2.36-10.44-2.36-16h112   C296,189.56,295.16,194.928,293.64,200z M285.888,216c-10.136,14.488-26.912,24-45.888,24s-35.76-9.512-45.888-24H285.888z    M186.36,328h107.28c1.52,5.072,2.36,10.44,2.36,16H184C184,338.44,184.84,333.072,186.36,328z M194.112,312   c10.136-14.488,26.912-24,45.888-24s35.76,9.512,45.888,24H194.112z M184,360h112v16H184V360z M184,408v-16h112v16H184z M328,344   v112c0,4.408-3.584,8-8,8s-8-3.592-8-8V344c0-26.704-14.648-50.016-36.304-62.448c5.872-2.152,11.48-4.8,16.808-7.928   C314.744,290.248,328,316.128,328,344z M295.544,56L320,21.768L344.456,56H336c-4.424,0-8,3.584-8,8v120c0,48.52-39.48,88-88,88   c-39.704,0-72,32.304-72,72v112c0,4.408-3.584,8-8,8s-8-3.592-8-8V344c0-48.52,39.48-88,88-88c39.704,0,72-32.304,72-72V64   c0-4.416-3.576-8-8-8H295.544z M296,152v16H184v-16H296z"/>
	<path style="fill:#010133;" d="M463.12,251.664c1.368-2.664,1.136-5.872-0.608-8.312l-40-56c-3-4.208-10.016-4.208-13.016,0l-40,56   c-1.744,2.44-1.976,5.648-0.608,8.312S373,256,376,256h16v112c0,4.416,3.576,8,8,8h32c4.424,0,8-3.584,8-8V256h16   C459,256,461.744,254.328,463.12,251.664z M432,240c-4.424,0-8,3.584-8,8v112h-16V248c0-4.416-3.576-8-8-8h-8.456L416,205.768   L440.456,240H432z"/>
	<path style="fill:#010133;" d="M80,232v-56h16c3,0,5.744-1.672,7.12-4.336c1.368-2.664,1.136-5.872-0.608-8.312l-40-56   c-3-4.208-10.016-4.208-13.016,0l-40,56c-1.744,2.44-1.976,5.648-0.608,8.312C10.256,174.328,13,176,16,176h16v56   c0,4.416,3.576,8,8,8h32C76.424,240,80,236.416,80,232z M64,168v56H48v-56c0-4.416-3.576-8-8-8h-8.456L56,125.768L80.456,160H72   C67.576,160,64,163.584,64,168z"/>
	<path style="fill:#010133;" d="M61.504,292.992C65.936,288.792,72,283.032,72,272H56c0,3.992-1.688,5.76-5.504,9.384   c-4.432,4.2-10.496,9.96-10.496,20.984c0,11.032,6.064,16.792,10.496,20.992c3.816,3.632,5.504,5.4,5.504,9.392   s-1.688,5.76-5.504,9.392c-4.432,4.2-10.496,9.96-10.496,20.992c0,11.04,6.064,16.808,10.488,21.016   c3.824,3.632,5.512,5.408,5.512,9.416s-1.688,5.784-5.512,9.424C46.064,407.192,40,412.96,40,424h16   c0-4.008,1.688-5.784,5.512-9.416C65.936,410.368,72,404.608,72,393.568s-6.064-16.808-10.488-21.008   c-3.824-3.64-5.512-5.416-5.512-9.424c0-3.992,1.688-5.76,5.504-9.392C65.936,349.536,72,343.784,72,332.752   s-6.064-16.784-10.496-20.992c-3.816-3.624-5.504-5.4-5.504-9.392C56,298.384,57.688,296.616,61.504,292.992z"/>
	<path style="fill:#010133;" d="M469.504,20.992C473.936,16.792,480,11.032,480,0h-16c0,3.992-1.688,5.76-5.504,9.384   c-4.432,4.2-10.496,9.96-10.496,20.984c0,11.032,6.064,16.792,10.496,20.992c3.816,3.632,5.504,5.4,5.504,9.392   s-1.688,5.76-5.504,9.392c-4.432,4.2-10.496,9.96-10.496,20.992c0,11.04,6.064,16.808,10.488,21.016   c3.824,3.632,5.512,5.408,5.512,9.416s-1.688,5.784-5.512,9.424C454.064,135.192,448,140.96,448,152h16   c0-4.008,1.688-5.784,5.512-9.416c4.424-4.216,10.488-9.976,10.488-21.016s-6.064-16.808-10.488-21.008   c-3.824-3.64-5.512-5.416-5.512-9.424c0-3.992,1.688-5.76,5.504-9.392C473.936,77.536,480,71.784,480,60.752   s-6.064-16.784-10.496-20.992c-3.816-3.624-5.504-5.4-5.504-9.392C464,26.384,465.688,24.616,469.504,20.992z"/>
	<rect x="104" y="224" style="fill:#010133;" width="16" height="80"/>
	<rect x="104" y="320" style="fill:#010133;" width="16" height="40"/>
	<rect x="376" y="408" style="fill:#010133;" width="16" height="40"/>
	<rect x="440" y="400" style="fill:#010133;" width="16" height="16"/>
	<rect x="104" y="376" style="fill:#010133;" width="16" height="16"/>
	<rect y="400" style="fill:#010133;" width="16" height="40"/>
	<rect y="456" style="fill:#010133;" width="16" height="16"/>
</g>
<g>
</g>
<g>
</g>
<g>
</g>
<g>
</g>
<g>
</g>
<g>
</g>
<g>
</g>
<g>
</g>
<g>
</g>
<g>
</g>
<g>
</g>
<g>
</g>
<g>
</g>
<g>
</g>
<g>
</g>
</svg>
