<?xml version="1.0" encoding="iso-8859-1"?>
<!-- Generator: Adobe Illustrator 19.0.0, SVG Export Plug-In . SVG Version: 6.00 Build 0)  -->
<svg xmlns="http://www.w3.org/2000/svg" xmlns:xlink="http://www.w3.org/1999/xlink" version="1.1" id="Layer_1" x="0px" y="0px" viewBox="0 0 480 480" style="enable-background:new 0 0 480 480;" xml:space="preserve">
<rect x="208" y="8" style="fill:#F6BF58;" width="64" height="40"/>
<path style="fill:#F9ECDE;" d="M80,328h72h48h80h48h72c17.672,0,32-14.328,32-32V80c0-17.672-14.328-32-32-32H272h-64H80  c-17.672,0-32,14.328-32,32v216C48,313.672,62.328,328,80,328z M112,224V104l50.856,29.912L384,264H152h-40V224z"/>
<g>
	<polygon style="fill:#F6BF58;" points="320,472 368,472 328,328 280,328  "/>
	<polygon style="fill:#F6BF58;" points="112,472 160,472 200,328 152,328  "/>
</g>
<polygon style="fill:#66CEDB;" points="384,264 162.856,133.912 112,104 112,224 112,264 152,264 "/>
<g>
	<path style="fill:#010133;" d="M80,336h61.472l-37.184,133.856c-0.664,2.408-0.168,4.992,1.344,6.984   c1.512,1.992,3.872,3.16,6.368,3.16h48c3.592,0,6.752-2.392,7.712-5.856L206.08,336h67.832l38.376,138.144   c0.96,3.464,4.12,5.856,7.712,5.856h48c2.496,0,4.856-1.168,6.368-3.16c1.512-1.992,2.008-4.568,1.344-6.984L338.528,336H400   c22.056,0,40-17.944,40-40V80c0-22.056-17.944-40-40-40H280V8c0-4.416-3.576-8-8-8h-64c-4.424,0-8,3.584-8,8v32H80   c-22.056,0-40,17.944-40,40v216C40,318.056,57.944,336,80,336z M153.92,464h-31.4l35.552-128h31.4L153.92,464z M357.48,464h-31.4   l-35.552-128h31.4L357.48,464z M216,16h48v24h-48V16z M56,80c0-13.232,10.768-24,24-24h128h64h128c13.232,0,24,10.768,24,24v216   c0,13.232-10.768,24-24,24h-72h-48h-80h-48H80c-13.232,0-24-10.768-24-24V80z"/>
	<rect x="72" y="96" style="fill:#010133;" width="16" height="72"/>
	<rect x="72" y="200" style="fill:#010133;" width="16" height="72"/>
	<rect x="264" y="288" style="fill:#010133;" width="128" height="16"/>
	<rect x="104" y="288" style="fill:#010133;" width="128" height="16"/>
	<rect x="256" y="80" style="fill:#010133;" width="136" height="16"/>
	<rect x="256" y="112" style="fill:#010133;" width="136" height="16"/>
	<rect x="256" y="144" style="fill:#010133;" width="136" height="16"/>
	<path style="fill:#010133;" d="M112,272h40h232c3.608,0,6.776-2.416,7.72-5.896s-0.552-7.168-3.664-9L173.864,131.112l9-14.992   l-13.72-8.232L160.072,123l-44.016-25.896c-2.464-1.456-5.528-1.472-8.024-0.048C105.536,98.48,104,101.128,104,104v120v40   C104,268.416,107.576,272,112,272z M120,256v-24h24v24H120z M151.84,136.72l-6.696,11.168l13.72,8.232l6.776-11.288L354.624,256   H160v-32c0-4.416-3.576-8-8-8h-32v-98.008L151.84,136.72z"/>
</g>
<g>
</g>
<g>
</g>
<g>
</g>
<g>
</g>
<g>
</g>
<g>
</g>
<g>
</g>
<g>
</g>
<g>
</g>
<g>
</g>
<g>
</g>
<g>
</g>
<g>
</g>
<g>
</g>
<g>
</g>
</svg>
