<?xml version="1.0" encoding="iso-8859-1"?>
<!-- Generator: Adobe Illustrator 19.0.0, SVG Export Plug-In . SVG Version: 6.00 Build 0)  -->
<svg xmlns="http://www.w3.org/2000/svg" xmlns:xlink="http://www.w3.org/1999/xlink" version="1.1" id="Layer_1" x="0px" y="0px" viewBox="0 0 480 480" style="enable-background:new 0 0 480 480;" xml:space="preserve">
<path style="fill:#66CEDB;" d="M341.824,138.176C315.768,112.12,279.768,96,240,96s-75.768,16.12-101.824,42.176S96,200.232,96,240  s16.12,75.768,42.176,101.824S200.232,384,240,384s75.768-16.12,101.824-42.176S384,279.768,384,240S367.88,164.232,341.824,138.176  z M272,264.424V304h-32h-32v-39.576c-23.688-11.792-40-36.176-40-64.424c0-39.768,32.232-72,72-72s72,32.232,72,72  C312,228.256,295.688,252.64,272,264.424z"/>
<path style="fill:#F6BF58;" d="M240,128c-39.768,0-72,32.232-72,72c0,28.256,16.312,52.64,40,64.424V304h32h32v-39.576  c23.688-11.792,40-36.176,40-64.424C312,160.232,279.768,128,240,128z"/>
<g>
	<path style="fill:#010133;" d="M221.872,390.816l-19.528,19.528l11.312,11.312L232,403.312V480h16v-76.688l18.344,18.344   l11.312-11.312l-19.528-19.528c29.312-3.504,56.104-15.312,77.872-33.096V392h16v-28.688l52.048,52.048l11.312-11.312L363.32,352   H392v-16h-34.28c17.784-21.768,29.592-48.56,33.096-77.872l19.528,19.528l11.312-11.312L403.312,248H480v-16h-76.688l18.344-18.344   l-11.312-11.312l-19.528,19.528c-3.504-29.312-15.312-56.104-33.096-77.872H392v-16h-28.68l52.048-52.048L404.056,64.64   L352,116.688V88h-16v34.28c-21.768-17.784-48.56-29.592-77.872-33.096l19.528-19.528l-11.312-11.312L248,76.688V0h-16v76.688   l-18.344-18.344l-11.312,11.312l19.528,19.528C192.56,92.688,165.768,104.496,144,122.28V88h-16v28.688L75.952,64.64L64.64,75.952   L116.68,128H88v16h34.28c-17.784,21.768-29.592,48.56-33.096,77.872l-19.528-19.528l-11.312,11.312L76.688,232H0v16h76.688   l-18.344,18.344l11.312,11.312l19.528-19.528c3.504,29.312,15.312,56.104,33.096,77.872H88v16h28.68l-52.048,52.048l11.312,11.312   L128,363.312V392h16v-34.28C165.768,375.504,192.56,387.312,221.872,390.816z M240,104c74.992,0,136,61.008,136,136   s-61.008,136-136,136s-136-61.008-136-136S165.008,104,240,104z"/>
	<polygon style="fill:#010133;" points="208,344 232,344 232,360 248,360 248,344 272,344 272,328 208,328  "/>
	<path style="fill:#010133;" d="M200,269.208V304c0,4.424,3.584,8,8,8h64c4.416,0,8-3.576,8-8v-34.792   c24.8-14.296,40-40.376,40-69.208c0-44.112-35.888-80-80-80s-80,35.888-80,80C160,228.832,175.2,254.912,200,269.208z M240,228.688   L203.312,192l4.688-4.688l10.344,10.344c3.128,3.128,8.184,3.128,11.312,0L240,187.312l10.344,10.344   c3.128,3.128,8.184,3.128,11.312,0L272,187.312l4.688,4.688L240,228.688z M240,136c35.288,0,64,28.712,64,64   c0,24.408-13.632,46.352-35.568,57.264c-2.712,1.352-4.432,4.128-4.432,7.168V296h-16v-52.688l45.656-45.656   c3.128-3.128,3.128-8.184,0-11.312l-16-16c-3.128-3.128-8.184-3.128-11.312,0L256,180.688l-10.344-10.344   c-3.128-3.128-8.184-3.128-11.312,0L224,180.688l-10.344-10.344c-3.128-3.128-8.184-3.128-11.312,0l-16,16   c-3.128,3.128-3.128,8.184,0,11.312L232,243.312V296h-16v-31.568c0-3.04-1.72-5.816-4.432-7.168   C189.632,246.352,176,224.408,176,200C176,164.712,204.712,136,240,136z"/>
</g>
<g>
</g>
<g>
</g>
<g>
</g>
<g>
</g>
<g>
</g>
<g>
</g>
<g>
</g>
<g>
</g>
<g>
</g>
<g>
</g>
<g>
</g>
<g>
</g>
<g>
</g>
<g>
</g>
<g>
</g>
</svg>
