<?xml version="1.0" encoding="iso-8859-1"?>
<!-- Generator: Adobe Illustrator 19.0.0, SVG Export Plug-In . SVG Version: 6.00 Build 0)  -->
<svg xmlns="http://www.w3.org/2000/svg" xmlns:xlink="http://www.w3.org/1999/xlink" version="1.1" id="Layer_1" x="0px" y="0px" viewBox="0 0 480 480" style="enable-background:new 0 0 480 480;" xml:space="preserve">
<g>
	<path style="fill:#F9ECDE;" d="M368,264c0-9.616,4.328-18.136,11.04-24H277.144c-4.36,12.248-13.464,22.248-25.2,27.624L264,352   h-64l12.056-84.376C195.512,260.04,184,243.384,184,224c0-26.512,21.488-48,48-48c20.888,0,38.616,13.368,45.208,32H379.04   c-6.712-5.864-11.04-14.384-11.04-24c0-14.896,10.224-27.304,24-30.872V72h-8h-56l0,0l0,0V8H72v288v144c0,17.672-14.328,32-32,32   h320c17.672,0,32-14.328,32-32V294.872C378.224,291.296,368,278.896,368,264z"/>
	<path style="fill:#F9ECDE;" d="M392,72L392,72L392,72z"/>
</g>
<path style="fill:#F6BF58;" d="M440,192c-3.384,0-6.584,0.664-9.64,1.64c0.976-3.056,1.64-6.256,1.64-9.64c0-17.672-14.328-32-32-32  c-2.776,0-5.432,0.464-8,1.128c-13.776,3.568-24,15.976-24,30.872c0,9.616,4.328,18.136,11.04,24H277.208  c-6.6-18.632-24.32-32-45.208-32c-26.512,0-48,21.488-48,48c0,19.384,11.512,36.04,28.056,43.624L200,352h64l-12.056-84.376  c11.736-5.376,20.84-15.368,25.2-27.624H379.04c-6.712,5.864-11.04,14.384-11.04,24c0,14.896,10.224,27.296,24,30.872  c2.568,0.664,5.224,1.128,8,1.128c17.672,0,32-14.328,32-32c0-3.384-0.664-6.584-1.64-9.64c3.056,0.976,6.256,1.64,9.64,1.64  c17.672,0,32-14.328,32-32S457.672,192,440,192z"/>
<g>
	<polygon style="fill:#66CEDB;" points="328,72 384,72 392,72 392,72 328,8 328,8  "/>
	<path style="fill:#66CEDB;" d="M72,440V296H8v144c0,17.672,14.328,32,32,32S72,457.672,72,440z"/>
</g>
<g>
	<path style="fill:#010133;" d="M440,184c0-22.056-17.944-40-40-40V72c0-0.168-0.088-0.312-0.096-0.48   c-0.048-0.728-0.184-1.432-0.432-2.128c-0.088-0.256-0.152-0.512-0.272-0.752c-0.376-0.816-0.864-1.584-1.512-2.248   c-0.016-0.016-0.032-0.04-0.048-0.056L333.664,2.36c-0.016-0.016-0.04-0.032-0.056-0.048c-0.664-0.656-1.432-1.136-2.248-1.512   c-0.24-0.112-0.496-0.176-0.752-0.264c-0.696-0.24-1.4-0.384-2.128-0.432C328.312,0.088,328.168,0,328,0H72c-4.424,0-8,3.576-8,8   v280H8c-4.424,0-8,3.576-8,8v144c0,22.056,17.944,40,40,40h320c22.056,0,40-17.944,40-40V304c22.056,0,40-17.944,40-40   c22.056,0,40-17.944,40-40S462.056,184,440,184z M372.688,64H336V27.312L372.688,64z M16,440V304h48v136c0,13.232-10.768,24-24,24   S16,453.232,16,440z M384,440c0,13.232-10.768,24-24,24H71.984c0.24-0.312,0.408-0.672,0.632-1c0.456-0.648,0.848-1.32,1.272-1.992   c0.848-1.368,1.624-2.776,2.304-4.248c0.36-0.768,0.696-1.528,1-2.32c0.608-1.552,1.08-3.16,1.496-4.8   c0.184-0.744,0.416-1.464,0.56-2.224C79.704,445.008,80,442.544,80,440V296V16h240v56c0,4.424,3.576,8,8,8h56v67.392   c-14.104,6.192-24,20.248-24,36.608c0,5.552,1.184,10.992,3.416,16h-81.032c-9.2-19.304-28.696-32-50.384-32   c-30.872,0-56,25.128-56,56c0,19.776,10.552,38.04,27.336,48.064l-11.256,78.808c-0.328,2.296,0.36,4.624,1.872,6.376   C195.48,358.992,197.68,360,200,360h64c2.32,0,4.52-1.008,6.048-2.76c1.512-1.752,2.2-4.08,1.872-6.376l-11.264-78.816   c9.392-5.64,16.832-14.12,21.6-24.056h81.16C361.184,253.008,360,258.448,360,264c0,16.36,9.896,30.416,24,36.608V440z M263.92,200   H200.2c7.312-9.656,18.784-16,31.792-16C244.752,184,256.496,190.128,263.92,200z M254.776,344h-45.544l10.752-75.248   c0.496-3.504-1.368-6.928-4.592-8.408c-6.152-2.816-11.28-7.144-15.208-12.344h63.448c-3.96,5.232-9.016,9.6-15.008,12.344   c-3.224,1.48-5.096,4.896-4.592,8.408L254.776,344z M440,248c-2.192,0-4.496-0.408-7.224-1.264   c-2.856-0.888-5.952-0.144-8.072,1.968c-2.112,2.112-2.872,5.216-1.968,8.072c0.856,2.728,1.264,5.032,1.264,7.224   c0,13.232-10.768,24-24,24s-24-10.768-24-24c0-6.912,2.952-13.296,8.304-17.976c2.504-2.192,3.4-5.72,2.224-8.832   S382.376,232,379.04,232H192.92c-0.544-2.616-0.92-5.272-0.92-8c0-2.736,0.28-5.416,0.808-8H379.04c3.336,0,6.32-2.072,7.496-5.184   s0.28-6.64-2.224-8.832C378.952,197.296,376,190.912,376,184c0-13.232,10.768-24,24-24s24,10.768,24,24   c0,2.192-0.408,4.496-1.264,7.224c-0.904,2.848-0.144,5.96,1.968,8.072c2.112,2.104,5.2,2.856,8.072,1.968   c2.728-0.856,5.032-1.264,7.224-1.264c13.232,0,24,10.768,24,24S453.232,248,440,248z"/>
	<rect x="400" y="216" style="fill:#010133;" width="16" height="16"/>
</g>
<g>
</g>
<g>
</g>
<g>
</g>
<g>
</g>
<g>
</g>
<g>
</g>
<g>
</g>
<g>
</g>
<g>
</g>
<g>
</g>
<g>
</g>
<g>
</g>
<g>
</g>
<g>
</g>
<g>
</g>
</svg>
