<?xml version="1.0" encoding="iso-8859-1"?>
<!-- Generator: Adobe Illustrator 19.0.0, SVG Export Plug-In . SVG Version: 6.00 Build 0)  -->
<svg xmlns="http://www.w3.org/2000/svg" xmlns:xlink="http://www.w3.org/1999/xlink" version="1.1" id="Layer_1" x="0px" y="0px" viewBox="0 0 480 480" style="enable-background:new 0 0 480 480;" xml:space="preserve">
<path style="fill:#F9ECDE;" d="M416,40c0-17.672-14.328-32-32-32H48v56h23.144H72c5.816,0,10.856,3.136,13.664,7.776  C85.8,72,85.912,72.232,86.04,72.464c0.296,0.544,0.592,1.088,0.824,1.672c0.224,0.576,0.392,1.176,0.552,1.776  c0.096,0.36,0.216,0.712,0.288,1.088c0.024,0.104,0.064,0.2,0.08,0.312C87.84,77.664,87.8,78,87.84,78.352  C87.888,78.904,88,79.44,88,80c0,0.184-0.048,0.352-0.056,0.536c-0.016,0.48-0.088,0.952-0.144,1.424  c-0.08,0.656-0.176,1.304-0.336,1.928c-0.112,0.464-0.264,0.904-0.416,1.352c-0.208,0.6-0.44,1.176-0.72,1.744  c-0.208,0.416-0.424,0.824-0.664,1.224c-0.32,0.536-0.672,1.04-1.056,1.536c-0.28,0.368-0.568,0.728-0.88,1.064  c-0.424,0.464-0.888,0.88-1.368,1.288c-0.344,0.296-0.672,0.592-1.04,0.856c-0.536,0.384-1.104,0.704-1.68,1.024  c-0.376,0.208-0.728,0.432-1.12,0.608c-0.664,0.296-1.368,0.504-2.08,0.712c-0.352,0.104-0.696,0.248-1.056,0.328  C74.288,95.864,73.16,96,72,96H48v48h23.144H72c5.816,0,10.856,3.136,13.664,7.776c0.136,0.224,0.248,0.456,0.376,0.688  c0.296,0.544,0.592,1.088,0.824,1.672c0.224,0.576,0.392,1.176,0.552,1.776c0.096,0.36,0.216,0.712,0.288,1.088  c0.024,0.104,0.064,0.2,0.08,0.312c0.056,0.352,0.016,0.688,0.056,1.04C87.888,158.904,88,159.44,88,160  c0,0.184-0.048,0.352-0.056,0.536c-0.016,0.48-0.088,0.952-0.144,1.424c-0.08,0.656-0.176,1.304-0.336,1.928  c-0.112,0.464-0.264,0.904-0.416,1.352c-0.208,0.6-0.44,1.176-0.72,1.744c-0.208,0.416-0.424,0.824-0.664,1.224  c-0.32,0.536-0.672,1.04-1.056,1.536c-0.28,0.368-0.568,0.728-0.88,1.064c-0.424,0.464-0.888,0.88-1.368,1.288  c-0.344,0.296-0.672,0.592-1.04,0.856c-0.536,0.384-1.104,0.704-1.68,1.024c-0.376,0.208-0.728,0.432-1.12,0.608  c-0.664,0.296-1.368,0.504-2.08,0.712c-0.352,0.104-0.696,0.248-1.056,0.328C74.288,175.864,73.16,176,72,176H48v48h23.144H72  c5.816,0,10.856,3.136,13.664,7.776c0.136,0.224,0.248,0.456,0.376,0.688c0.296,0.544,0.592,1.088,0.824,1.672  c0.224,0.576,0.392,1.176,0.552,1.776c0.096,0.36,0.216,0.712,0.288,1.088c0.024,0.104,0.064,0.2,0.08,0.312  c0.056,0.352,0.016,0.688,0.056,1.04C87.888,238.904,88,239.44,88,240c0,0.184-0.048,0.352-0.056,0.536  c-0.016,0.48-0.088,0.952-0.144,1.424c-0.08,0.656-0.176,1.304-0.336,1.928c-0.112,0.464-0.264,0.904-0.416,1.352  c-0.208,0.6-0.44,1.176-0.72,1.744c-0.208,0.416-0.424,0.824-0.664,1.224c-0.32,0.536-0.672,1.04-1.056,1.536  c-0.28,0.368-0.568,0.728-0.88,1.064c-0.424,0.464-0.888,0.88-1.368,1.288c-0.344,0.296-0.672,0.592-1.04,0.856  c-0.536,0.384-1.104,0.704-1.68,1.024c-0.376,0.208-0.728,0.432-1.12,0.608c-0.664,0.296-1.368,0.504-2.08,0.712  c-0.352,0.104-0.696,0.248-1.056,0.328C74.288,255.864,73.16,256,72,256H48v48h23.144H72c5.816,0,10.856,3.136,13.664,7.776  c0.136,0.224,0.248,0.456,0.376,0.688c0.296,0.544,0.592,1.088,0.824,1.672c0.224,0.576,0.392,1.176,0.552,1.776  c0.096,0.36,0.216,0.712,0.288,1.088c0.024,0.104,0.064,0.2,0.08,0.312c0.056,0.352,0.016,0.688,0.056,1.04  C87.888,318.904,88,319.44,88,320c0,0.184-0.048,0.352-0.056,0.536c-0.016,0.48-0.088,0.952-0.144,1.424  c-0.08,0.656-0.176,1.304-0.336,1.928c-0.112,0.464-0.264,0.904-0.416,1.352c-0.208,0.6-0.44,1.176-0.72,1.744  c-0.208,0.416-0.424,0.824-0.664,1.224c-0.32,0.536-0.672,1.04-1.056,1.536c-0.28,0.368-0.568,0.728-0.88,1.064  c-0.424,0.464-0.888,0.88-1.368,1.288c-0.344,0.296-0.672,0.592-1.04,0.856c-0.536,0.384-1.104,0.704-1.68,1.024  c-0.376,0.208-0.728,0.432-1.12,0.608c-0.664,0.296-1.368,0.504-2.08,0.712c-0.352,0.104-0.696,0.248-1.056,0.328  C74.288,335.864,73.16,336,72,336H48v48h23.144H72c5.816,0,10.856,3.136,13.664,7.776c0.136,0.224,0.248,0.456,0.376,0.688  c0.296,0.544,0.592,1.088,0.824,1.672c0.224,0.576,0.392,1.176,0.552,1.776c0.096,0.36,0.216,0.712,0.288,1.088  c0.024,0.104,0.064,0.2,0.08,0.312c0.056,0.352,0.016,0.688,0.056,1.04C87.888,398.904,88,399.44,88,400  c0,0.184-0.048,0.352-0.056,0.536c-0.016,0.48-0.088,0.952-0.144,1.424c-0.08,0.656-0.176,1.304-0.336,1.928  c-0.112,0.464-0.264,0.904-0.416,1.352c-0.208,0.6-0.44,1.176-0.72,1.744c-0.208,0.416-0.424,0.824-0.664,1.224  c-0.32,0.536-0.672,1.04-1.056,1.536c-0.28,0.368-0.568,0.728-0.88,1.064c-0.424,0.464-0.888,0.88-1.368,1.288  c-0.344,0.296-0.672,0.592-1.04,0.856c-0.536,0.384-1.104,0.704-1.68,1.024c-0.376,0.208-0.728,0.432-1.12,0.608  c-0.664,0.296-1.368,0.504-2.08,0.712c-0.352,0.104-0.696,0.248-1.056,0.328C74.288,415.864,73.16,416,72,416H48v56h336  c17.672,0,32-14.328,32-32v-16v-48V40z M128,64h64v64h-64V64z M128,168h64v64h-64V168z M128,272h64v64h-64V272z M384,424H176l-56-24  l56-24h208V424z"/>
<g>
	<path style="fill:#66CEDB;" d="M75.384,95.624c0.368-0.08,0.704-0.224,1.056-0.328c0.712-0.208,1.416-0.416,2.08-0.712   c0.392-0.176,0.752-0.408,1.12-0.608c0.576-0.32,1.152-0.64,1.68-1.024c0.368-0.264,0.696-0.568,1.04-0.856   c0.48-0.408,0.936-0.824,1.368-1.288c0.312-0.336,0.6-0.696,0.88-1.064c0.384-0.496,0.736-1,1.056-1.536   c0.24-0.4,0.456-0.808,0.664-1.224c0.272-0.568,0.504-1.144,0.72-1.744c0.152-0.448,0.304-0.888,0.416-1.352   c0.16-0.632,0.256-1.272,0.336-1.928c0.056-0.472,0.128-0.936,0.144-1.424C87.952,80.352,88,80.184,88,80   c0-0.56-0.112-1.096-0.168-1.648C87.8,78,87.84,77.664,87.776,77.312C87.76,77.2,87.712,77.104,87.696,77   c-0.072-0.376-0.192-0.72-0.288-1.088c-0.16-0.6-0.328-1.208-0.552-1.776c-0.232-0.584-0.528-1.12-0.824-1.672   c-0.128-0.232-0.24-0.464-0.376-0.688C82.856,67.136,77.816,64,72,64h-0.856H48H24c-8.84,0-16,7.16-16,16s7.16,16,16,16h24h24   C73.16,96,74.288,95.864,75.384,95.624z"/>
	<path style="fill:#66CEDB;" d="M75.384,175.624c0.368-0.08,0.704-0.224,1.056-0.328c0.712-0.208,1.416-0.416,2.08-0.712   c0.392-0.176,0.752-0.408,1.12-0.608c0.576-0.32,1.152-0.64,1.68-1.024c0.368-0.264,0.696-0.568,1.04-0.856   c0.48-0.408,0.936-0.824,1.368-1.288c0.312-0.336,0.6-0.696,0.88-1.064c0.384-0.496,0.736-1,1.056-1.536   c0.24-0.4,0.456-0.808,0.664-1.224c0.272-0.568,0.504-1.144,0.72-1.744c0.152-0.448,0.304-0.888,0.416-1.352   c0.16-0.632,0.256-1.272,0.336-1.928c0.056-0.472,0.128-0.936,0.144-1.424C87.952,160.352,88,160.184,88,160   c0-0.56-0.112-1.096-0.168-1.648c-0.032-0.352,0.008-0.688-0.056-1.04c-0.016-0.112-0.064-0.208-0.08-0.312   c-0.072-0.376-0.192-0.72-0.288-1.088c-0.16-0.6-0.328-1.208-0.552-1.776c-0.232-0.584-0.528-1.12-0.824-1.672   c-0.128-0.232-0.24-0.464-0.376-0.688C82.856,147.136,77.816,144,72,144h-0.856H48H24c-8.84,0-16,7.16-16,16s7.16,16,16,16h24h24   C73.16,176,74.288,175.864,75.384,175.624z"/>
	<path style="fill:#66CEDB;" d="M75.384,255.624c0.368-0.08,0.704-0.224,1.056-0.328c0.712-0.208,1.416-0.416,2.08-0.712   c0.392-0.176,0.752-0.408,1.12-0.608c0.576-0.32,1.152-0.64,1.68-1.024c0.368-0.264,0.696-0.568,1.04-0.856   c0.48-0.408,0.936-0.824,1.368-1.288c0.312-0.336,0.6-0.696,0.88-1.064c0.384-0.496,0.736-1,1.056-1.536   c0.24-0.4,0.456-0.808,0.664-1.224c0.272-0.568,0.504-1.144,0.72-1.744c0.152-0.448,0.304-0.888,0.416-1.352   c0.16-0.632,0.256-1.272,0.336-1.928c0.056-0.472,0.128-0.936,0.144-1.424C87.952,240.352,88,240.184,88,240   c0-0.56-0.112-1.096-0.168-1.648c-0.032-0.352,0.008-0.688-0.056-1.04c-0.016-0.112-0.064-0.208-0.08-0.312   c-0.072-0.376-0.192-0.72-0.288-1.088c-0.16-0.6-0.328-1.208-0.552-1.776c-0.232-0.584-0.528-1.12-0.824-1.672   c-0.128-0.232-0.24-0.464-0.376-0.688C82.856,227.136,77.816,224,72,224h-0.856H48H24c-8.84,0-16,7.16-16,16s7.16,16,16,16h24h24   C73.16,256,74.288,255.864,75.384,255.624z"/>
	<path style="fill:#66CEDB;" d="M75.384,335.624c0.368-0.08,0.704-0.224,1.056-0.328c0.712-0.208,1.416-0.416,2.08-0.712   c0.392-0.176,0.752-0.408,1.12-0.608c0.576-0.32,1.152-0.64,1.68-1.024c0.368-0.264,0.696-0.568,1.04-0.856   c0.48-0.408,0.936-0.824,1.368-1.288c0.312-0.336,0.6-0.696,0.88-1.064c0.384-0.496,0.736-1,1.056-1.536   c0.24-0.4,0.456-0.808,0.664-1.224c0.272-0.568,0.504-1.144,0.72-1.744c0.152-0.448,0.304-0.888,0.416-1.352   c0.16-0.632,0.256-1.272,0.336-1.928c0.056-0.472,0.128-0.936,0.144-1.424C87.952,320.352,88,320.184,88,320   c0-0.56-0.112-1.096-0.168-1.648c-0.032-0.352,0.008-0.688-0.056-1.04c-0.016-0.112-0.064-0.208-0.08-0.312   c-0.072-0.376-0.192-0.72-0.288-1.088c-0.16-0.6-0.328-1.208-0.552-1.776c-0.232-0.584-0.528-1.12-0.824-1.672   c-0.128-0.232-0.24-0.464-0.376-0.688C82.856,307.136,77.816,304,72,304h-0.856H48H24c-8.84,0-16,7.16-16,16s7.16,16,16,16h24h24   C73.16,336,74.288,335.864,75.384,335.624z"/>
	<path style="fill:#66CEDB;" d="M75.384,415.624c0.368-0.08,0.704-0.224,1.056-0.328c0.712-0.208,1.416-0.416,2.08-0.712   c0.392-0.176,0.752-0.408,1.12-0.608c0.576-0.32,1.152-0.64,1.68-1.024c0.368-0.264,0.696-0.568,1.04-0.856   c0.48-0.408,0.936-0.824,1.368-1.288c0.312-0.336,0.6-0.696,0.88-1.064c0.384-0.496,0.736-1,1.056-1.536   c0.24-0.4,0.456-0.808,0.664-1.224c0.272-0.568,0.504-1.144,0.72-1.744c0.152-0.448,0.304-0.888,0.416-1.352   c0.16-0.632,0.256-1.272,0.336-1.928c0.056-0.472,0.128-0.936,0.144-1.424C87.952,400.352,88,400.184,88,400   c0-0.56-0.112-1.096-0.168-1.648c-0.032-0.352,0.008-0.688-0.056-1.04c-0.016-0.112-0.064-0.208-0.08-0.312   c-0.072-0.376-0.192-0.72-0.288-1.088c-0.16-0.6-0.328-1.208-0.552-1.776c-0.232-0.584-0.528-1.12-0.824-1.672   c-0.128-0.232-0.24-0.464-0.376-0.688C82.856,387.136,77.816,384,72,384h-0.856H48H24c-8.84,0-16,7.16-16,16s7.16,16,16,16h24h24   C73.16,416,74.288,415.864,75.384,415.624z"/>
</g>
<g>
	<path style="fill:#F6BF58;" d="M448,376h-32v48h32c13.256,0,24-10.744,24-24S461.256,376,448,376z"/>
	<polygon style="fill:#F6BF58;" points="120,400 176,424 384,424 384,376 176,376  "/>
</g>
<rect x="128" y="272" style="fill:#66CEDB;" width="64" height="64"/>
<rect x="128" y="168" style="fill:#F6BF58;" width="64" height="64"/>
<rect x="128" y="64" style="fill:#66CEDB;" width="64" height="64"/>
<g>
	<path style="fill:#010133;" d="M24,376c-13.232,0-24,10.768-24,24s10.768,24,24,24h16v48c0,4.416,3.584,8,8,8h336   c22.056,0,40-17.944,40-40v-8h24c17.648,0,32-14.352,32-32s-14.352-32-32-32h-24V40c0-22.056-17.944-40-40-40H48   c-4.416,0-8,3.584-8,8v48H24C10.768,56,0,66.768,0,80s10.768,24,24,24h16v32H24c-13.232,0-24,10.768-24,24s10.768,24,24,24h16v32   H24c-13.232,0-24,10.768-24,24s10.768,24,24,24h16v32H24c-13.232,0-24,10.768-24,24s10.768,24,24,24h16v32H24z M16,400   c0-4.408,3.592-8,8-8h24h23.144c3.04,0,5.784,1.488,7.384,3.648c0.16,0.232,0.336,0.448,0.472,0.696   c0.248,0.424,0.384,0.888,0.528,1.352c0.16,0.512,0.272,1.032,0.32,1.584c0.048,0.648,0,1.264-0.088,1.888   c-0.072,0.48-0.128,0.96-0.28,1.4c-0.216,0.624-0.56,1.2-0.936,1.76c-0.232,0.352-0.416,0.736-0.704,1.04   c-0.52,0.56-1.144,0.968-1.784,1.352c-0.288,0.176-0.52,0.424-0.832,0.56C74.216,407.736,73.128,408,72,408H48H24   C19.592,408,16,404.408,16,400z M448,384c8.824,0,16,7.176,16,16s-7.176,16-16,16h-24v-32H448z M168,411.872L140.312,400   L168,388.128V411.872z M184,384h192v32H184V384z M392,384h16v32h-16V384z M16,80c0-4.408,3.592-8,8-8h24h23.144   c3.04,0,5.784,1.488,7.384,3.648c0.16,0.232,0.336,0.448,0.472,0.696c0.248,0.424,0.384,0.888,0.528,1.352   c0.16,0.512,0.272,1.032,0.32,1.584c0.048,0.648,0,1.264-0.088,1.888c-0.072,0.48-0.128,0.96-0.28,1.4   c-0.216,0.624-0.56,1.2-0.936,1.76c-0.232,0.352-0.416,0.736-0.704,1.04c-0.52,0.56-1.144,0.968-1.784,1.352   c-0.288,0.176-0.52,0.424-0.832,0.56C74.216,87.736,73.128,88,72,88H48H24C19.592,88,16,84.408,16,80z M16,160c0-4.408,3.592-8,8-8   h24h23.144c3.04,0,5.784,1.488,7.384,3.648c0.16,0.232,0.336,0.448,0.472,0.696c0.248,0.424,0.384,0.888,0.528,1.352   c0.16,0.512,0.272,1.032,0.32,1.584c0.048,0.648,0,1.264-0.088,1.888c-0.072,0.48-0.128,0.96-0.28,1.4   c-0.216,0.624-0.56,1.2-0.936,1.76c-0.232,0.352-0.416,0.736-0.704,1.04c-0.52,0.56-1.144,0.968-1.784,1.352   c-0.288,0.176-0.52,0.424-0.832,0.56C74.216,167.736,73.128,168,72,168H48H24C19.592,168,16,164.408,16,160z M16,240   c0-4.408,3.592-8,8-8h24h23.144c3.04,0,5.784,1.488,7.384,3.648c0.16,0.232,0.336,0.448,0.472,0.696   c0.248,0.424,0.384,0.888,0.528,1.352c0.16,0.512,0.272,1.032,0.32,1.584c0.048,0.648,0,1.264-0.088,1.888   c-0.072,0.48-0.128,0.96-0.28,1.4c-0.216,0.624-0.56,1.2-0.936,1.76c-0.232,0.352-0.416,0.736-0.704,1.04   c-0.52,0.56-1.144,0.968-1.784,1.352c-0.288,0.176-0.52,0.424-0.832,0.56C74.216,247.736,73.128,248,72,248H48H24   C19.592,248,16,244.408,16,240z M16,320c0-4.408,3.592-8,8-8h24h23.144c3.04,0,5.784,1.488,7.384,3.648   c0.16,0.232,0.336,0.448,0.472,0.696c0.248,0.424,0.384,0.888,0.528,1.352c0.16,0.512,0.272,1.032,0.32,1.584   c0.048,0.648,0,1.264-0.088,1.888c-0.072,0.48-0.128,0.96-0.28,1.4c-0.216,0.624-0.56,1.2-0.936,1.76   c-0.232,0.352-0.416,0.736-0.704,1.04c-0.52,0.56-1.144,0.968-1.784,1.352c-0.288,0.176-0.52,0.424-0.832,0.56   C74.216,327.736,73.128,328,72,328H48H24C19.592,328,16,324.408,16,320z M56,344h16c1.72,0,3.4-0.2,5.016-0.544   c0.504-0.112,0.976-0.32,1.472-0.456c1.088-0.312,2.176-0.624,3.2-1.08c0.6-0.264,1.152-0.624,1.736-0.944   c0.856-0.464,1.704-0.928,2.488-1.496c0.576-0.416,1.104-0.888,1.648-1.36c0.712-0.616,1.4-1.24,2.04-1.928   c0.216-0.232,0.48-0.408,0.688-0.648c0.272-0.312,0.44-0.688,0.688-1.016c0.576-0.752,1.104-1.536,1.592-2.352   c0.36-0.6,0.696-1.2,1-1.832c0.424-0.88,0.768-1.8,1.088-2.736c0.208-0.624,0.432-1.24,0.584-1.888   c0.24-0.976,0.368-1.976,0.488-2.992c0.08-0.672,0.184-1.328,0.2-2.008C95.936,320.472,96,320.248,96,320   c0-0.8-0.16-1.552-0.24-2.336c-0.048-0.544,0-1.088-0.088-1.64c-0.024-0.168-0.096-0.312-0.128-0.472   c-0.112-0.584-0.296-1.128-0.448-1.696c-0.232-0.856-0.456-1.712-0.784-2.528c-0.32-0.824-0.728-1.592-1.128-2.368   c-0.216-0.4-0.408-0.816-0.648-1.2C88.336,300.752,80.744,296,72,296h-0.856H56v-32h16c1.72,0,3.4-0.2,5.016-0.544   c0.504-0.112,0.976-0.32,1.472-0.456c1.088-0.312,2.176-0.624,3.2-1.08c0.6-0.264,1.152-0.624,1.736-0.944   c0.856-0.464,1.704-0.928,2.488-1.496c0.576-0.416,1.104-0.888,1.648-1.36c0.712-0.616,1.4-1.24,2.04-1.928   c0.216-0.232,0.48-0.408,0.688-0.648c0.272-0.312,0.44-0.688,0.688-1.016c0.576-0.752,1.104-1.536,1.592-2.352   c0.36-0.6,0.696-1.2,1-1.832c0.424-0.88,0.768-1.8,1.088-2.736c0.208-0.624,0.432-1.24,0.584-1.888   c0.24-0.976,0.368-1.976,0.488-2.992c0.08-0.672,0.184-1.328,0.2-2.008C95.936,240.472,96,240.248,96,240   c0-0.8-0.16-1.552-0.24-2.336c-0.048-0.544,0-1.088-0.088-1.64c-0.024-0.168-0.096-0.312-0.128-0.472   c-0.112-0.584-0.296-1.128-0.448-1.696c-0.232-0.856-0.456-1.712-0.784-2.528c-0.32-0.824-0.728-1.592-1.128-2.368   c-0.216-0.4-0.408-0.816-0.648-1.2C88.336,220.752,80.744,216,72,216h-0.856H56v-32h16c1.72,0,3.4-0.2,5.016-0.544   c0.504-0.112,0.976-0.32,1.472-0.456c1.088-0.312,2.176-0.624,3.2-1.08c0.6-0.264,1.152-0.624,1.736-0.944   c0.856-0.464,1.704-0.928,2.488-1.496c0.576-0.416,1.104-0.888,1.648-1.36c0.712-0.616,1.4-1.24,2.04-1.928   c0.216-0.232,0.48-0.408,0.688-0.648c0.272-0.312,0.44-0.688,0.688-1.016c0.576-0.752,1.104-1.536,1.592-2.352   c0.36-0.6,0.696-1.2,1-1.832c0.424-0.88,0.768-1.8,1.088-2.736c0.208-0.624,0.432-1.24,0.584-1.888   c0.24-0.976,0.368-1.976,0.488-2.992c0.08-0.672,0.184-1.328,0.2-2.008C95.936,160.472,96,160.248,96,160   c0-0.8-0.16-1.552-0.24-2.336c-0.048-0.544,0-1.088-0.088-1.64c-0.024-0.168-0.096-0.312-0.128-0.472   c-0.112-0.584-0.296-1.128-0.448-1.696c-0.232-0.856-0.456-1.712-0.784-2.528c-0.32-0.824-0.728-1.592-1.128-2.368   c-0.216-0.4-0.408-0.816-0.648-1.2C88.336,140.752,80.744,136,72,136h-0.856H56v-32h16c1.72,0,3.4-0.2,5.016-0.544   c0.504-0.112,0.976-0.32,1.472-0.456c1.088-0.312,2.176-0.624,3.2-1.08c0.6-0.264,1.152-0.624,1.736-0.944   c0.856-0.464,1.704-0.928,2.488-1.496c0.576-0.416,1.104-0.888,1.648-1.36c0.712-0.616,1.4-1.24,2.04-1.928   c0.216-0.232,0.48-0.408,0.688-0.648c0.272-0.312,0.44-0.688,0.688-1.016c0.576-0.752,1.104-1.536,1.592-2.352   c0.36-0.6,0.696-1.2,1-1.832c0.424-0.88,0.768-1.8,1.088-2.736c0.208-0.624,0.432-1.24,0.584-1.888   c0.24-0.976,0.368-1.976,0.488-2.992c0.08-0.672,0.184-1.328,0.2-2.008C95.936,80.472,96,80.248,96,80c0-0.8-0.16-1.552-0.24-2.336   c-0.048-0.544,0-1.088-0.088-1.64c-0.024-0.168-0.096-0.312-0.128-0.472c-0.112-0.584-0.296-1.128-0.448-1.696   c-0.232-0.856-0.456-1.712-0.784-2.528c-0.32-0.824-0.728-1.592-1.128-2.368c-0.216-0.4-0.408-0.816-0.648-1.2   C88.336,60.752,80.744,56,72,56h-0.856H56V16h328c13.232,0,24,10.768,24,24v328H176c-1.08,0-2.16,0.216-3.152,0.648l-56,24   C113.904,393.904,112,396.8,112,400s1.904,6.096,4.848,7.352l56,24C173.84,431.784,174.92,432,176,432h232v8   c0,13.232-10.768,24-24,24H56v-40h16c1.72,0,3.4-0.2,5.016-0.544c0.504-0.112,0.976-0.32,1.472-0.456   c1.088-0.312,2.176-0.624,3.2-1.08c0.6-0.264,1.152-0.624,1.736-0.944c0.856-0.464,1.704-0.928,2.488-1.496   c0.576-0.416,1.104-0.888,1.648-1.36c0.712-0.616,1.4-1.24,2.04-1.928c0.216-0.232,0.48-0.408,0.688-0.648   c0.272-0.312,0.44-0.688,0.688-1.016c0.576-0.752,1.104-1.536,1.592-2.352c0.36-0.6,0.696-1.2,1-1.832   c0.424-0.88,0.768-1.8,1.088-2.736c0.208-0.624,0.432-1.24,0.584-1.888c0.24-0.976,0.368-1.976,0.488-2.992   c0.08-0.672,0.184-1.328,0.2-2.008C95.936,400.472,96,400.248,96,400c0-0.8-0.16-1.552-0.24-2.336c-0.048-0.544,0-1.088-0.088-1.64   c-0.024-0.168-0.096-0.312-0.128-0.472c-0.112-0.584-0.296-1.128-0.448-1.696c-0.232-0.856-0.456-1.712-0.784-2.528   c-0.32-0.824-0.728-1.592-1.128-2.368c-0.216-0.4-0.408-0.816-0.648-1.2C88.336,380.752,80.744,376,72,376h-0.856H56V344z"/>
	<path style="fill:#010133;" d="M128,344h64c4.416,0,8-3.584,8-8v-64c0-4.416-3.584-8-8-8h-64c-4.416,0-8,3.584-8,8v64   C120,340.416,123.584,344,128,344z M136,280h48v48h-48V280z"/>
	<rect x="216" y="264" style="fill:#010133;" width="160" height="16"/>
	<rect x="216" y="296" style="fill:#010133;" width="160" height="16"/>
	<rect x="216" y="328" style="fill:#010133;" width="160" height="16"/>
	<path style="fill:#010133;" d="M128,240h64c4.416,0,8-3.584,8-8v-64c0-4.416-3.584-8-8-8h-64c-4.416,0-8,3.584-8,8v64   C120,236.416,123.584,240,128,240z M136,176h48v48h-48V176z"/>
	<rect x="216" y="160" style="fill:#010133;" width="160" height="16"/>
	<rect x="216" y="192" style="fill:#010133;" width="160" height="16"/>
	<rect x="216" y="224" style="fill:#010133;" width="160" height="16"/>
	<path style="fill:#010133;" d="M128,136h64c4.416,0,8-3.584,8-8V64c0-4.416-3.584-8-8-8h-64c-4.416,0-8,3.584-8,8v64   C120,132.416,123.584,136,128,136z M136,72h48v48h-48V72z"/>
	<rect x="216" y="56" style="fill:#010133;" width="160" height="16"/>
	<rect x="216" y="88" style="fill:#010133;" width="160" height="16"/>
	<rect x="216" y="120" style="fill:#010133;" width="160" height="16"/>
</g>
<g>
</g>
<g>
</g>
<g>
</g>
<g>
</g>
<g>
</g>
<g>
</g>
<g>
</g>
<g>
</g>
<g>
</g>
<g>
</g>
<g>
</g>
<g>
</g>
<g>
</g>
<g>
</g>
<g>
</g>
</svg>
