<?xml version="1.0" encoding="iso-8859-1"?>
<!-- Generator: Adobe Illustrator 19.0.0, SVG Export Plug-In . SVG Version: 6.00 Build 0)  -->
<svg xmlns="http://www.w3.org/2000/svg" xmlns:xlink="http://www.w3.org/1999/xlink" version="1.1" id="Layer_1" x="0px" y="0px" viewBox="0 0 480.005 480.005" style="enable-background:new 0 0 480.005 480.005;" xml:space="preserve">
<path style="fill:#F6BF58;" d="M208.003,320.004l112-112l88-88l24-24l30.056-30.056c6.368-6.368,9.944-15,9.944-24  c0-18.752-15.192-33.944-33.944-33.944c-9,0-17.632,3.576-24,9.944l-30.056,30.056l-24,24l-88,88l-112,112l-128,128l-24,72l72-24  L208.003,320.004z"/>
<g>
	<polygon style="fill:#66CEDB;" points="240.003,128.004 200.003,88.004 160.003,48.004 120.003,8.004 8.003,120.004    160.003,272.004 272.003,160.004  "/>
	<polygon style="fill:#66CEDB;" points="360.003,472.004 472.003,360.004 432.003,320.004 392.003,280.004 352.003,240.004    320.003,208.004 208.003,320.004  "/>
</g>
<path style="fill:#F6BF58;" d="M48.003,328.004c0-22.112,17.888-40,40-40c-22.112,0-40-17.888-40-40c0,22.112-17.888,40-40,40  C30.115,288.004,48.003,305.892,48.003,328.004z"/>
<g>
	
		<rect x="239.713" y="204.012" transform="matrix(-0.7071 0.7071 -0.7071 -0.7071 607.4069 172.427)" style="fill:#010133;" width="56.559" height="16"/>
	<path style="fill:#010133;" d="M148.691,272.004L26.347,394.348c-0.88,0.88-1.536,1.952-1.936,3.128l-24,72   c-0.96,2.872-0.208,6.048,1.936,8.184c1.52,1.528,3.568,2.344,5.656,2.344c0.848,0,1.696-0.136,2.528-0.408l72-24   c1.176-0.392,2.248-1.056,3.128-1.936l122.344-122.344L354.347,477.66c1.56,1.56,3.608,2.344,5.656,2.344s4.096-0.784,5.656-2.344   l112-112c3.128-3.128,3.128-8.184,0-11.312L331.315,208.004l82.344-82.344l24-24l30.056-30.056   c7.928-7.928,12.288-18.456,12.288-29.656c0-23.128-18.816-41.944-41.944-41.944c-11.2,0-21.736,4.36-29.656,12.288l-30.056,30.056   l-24,24l-82.344,82.344L125.659,2.348c-3.128-3.128-8.184-3.128-11.312,0l-112,112c-3.128,3.128-3.128,8.184,0,11.312   L148.691,272.004z M35.499,414.812l29.696,29.696l-44.544,14.848L35.499,414.812z M340.691,240.004l-26.344,26.344l11.312,11.312   l26.344-26.344l28.688,28.688l-26.344,26.344l11.312,11.312l26.344-26.344l28.688,28.688l-26.344,26.344l11.312,11.312   l26.344-26.344l28.688,28.688L360.003,460.692L219.315,320.004l100.688-100.688L340.691,240.004z M314.347,202.348l-112,112   L80.003,436.692l-12.688-12.688L237.659,253.66l-11.312-11.312L56.003,412.692l-12.688-12.688L165.659,277.66l112-112   l82.344-82.344l12.688,12.688l-42.344,42.344l11.312,11.312l42.344-42.344l12.688,12.688L314.347,202.348z M419.715,23.604   c4.904-4.904,11.416-7.6,18.344-7.6c14.304,0,25.944,11.64,25.944,25.944c0,6.928-2.696,13.44-7.6,18.344l-24.4,24.4   l-36.688-36.688L419.715,23.604z M384.003,59.316l36.688,36.688l-12.688,12.688l-36.688-36.688L384.003,59.316z M120.003,19.316   l28.688,28.688l-26.344,26.344l11.312,11.312l26.344-26.344l28.688,28.688l-26.344,26.344l11.312,11.312l26.344-26.344   l28.688,28.688l-26.344,26.344l11.312,11.312l26.344-26.344l20.688,20.688L160.003,260.692L19.315,120.004L120.003,19.316z"/>
	
		<rect x="300.686" y="160.005" transform="matrix(-0.7071 0.7071 -0.7071 -0.7071 651.4119 66.1867)" style="fill:#010133;" width="22.624" height="16"/>
	<path style="fill:#010133;" d="M8.003,296.004c17.648,0,32,14.352,32,32c0,4.416,3.584,8,8,8s8-3.584,8-8c0-17.648,14.352-32,32-32   c4.416,0,8-3.584,8-8s-3.584-8-8-8c-17.648,0-32-14.352-32-32c0-4.416-3.584-8-8-8s-8,3.584-8,8c0,17.648-14.352,32-32,32   c-4.416,0-8,3.584-8,8S3.587,296.004,8.003,296.004z M48.003,274.508c3.552,5.344,8.152,9.944,13.496,13.496   c-5.344,3.552-9.944,8.152-13.496,13.496c-3.552-5.344-8.152-9.944-13.496-13.496C39.851,284.452,44.451,279.852,48.003,274.508z"/>
</g>
<g>
</g>
<g>
</g>
<g>
</g>
<g>
</g>
<g>
</g>
<g>
</g>
<g>
</g>
<g>
</g>
<g>
</g>
<g>
</g>
<g>
</g>
<g>
</g>
<g>
</g>
<g>
</g>
<g>
</g>
</svg>
