<?xml version="1.0" encoding="iso-8859-1"?>
<!-- Generator: Adobe Illustrator 19.0.0, SVG Export Plug-In . SVG Version: 6.00 Build 0)  -->
<svg xmlns="http://www.w3.org/2000/svg" xmlns:xlink="http://www.w3.org/1999/xlink" version="1.1" id="Layer_1" x="0px" y="0px" viewBox="0 0 480.001 480.001" style="enable-background:new 0 0 480.001 480.001;" xml:space="preserve">
<polygon style="fill:#F6BF58;" points="312.001,152.001 472.001,152.001 392.001,8.001 "/>
<g>
	<polygon style="fill:#66CEDB;" points="88.001,152.001 168.001,8.001 8.001,8.001  "/>
	<polygon style="fill:#66CEDB;" points="320.001,424.001 293.337,376.001 266.665,424.001  "/>
	<polygon style="fill:#66CEDB;" points="160.001,424.001 213.337,424.001 186.665,376.001  "/>
	<polygon style="fill:#66CEDB;" points="240.001,280.001 213.337,328.001 266.665,328.001  "/>
	<polygon style="fill:#66CEDB;" points="240.001,472.001 266.665,424.001 213.337,424.001  "/>
	<polygon style="fill:#66CEDB;" points="160.001,328.001 186.665,376.001 213.337,328.001  "/>
	<polygon style="fill:#66CEDB;" points="266.665,328.001 293.337,376.001 320.001,328.001  "/>
</g>
<polygon style="fill:#F6BF58;" points="213.337,328.001 186.665,376.001 213.337,424.001 266.665,424.001 293.337,376.001   266.665,328.001 "/>
<g>
	<path style="fill:#010133;" d="M398.993,4.121c-2.816-5.08-11.168-5.08-13.984,0l-80,144c-1.376,2.48-1.344,5.504,0.096,7.936   c1.432,2.44,4.064,3.944,6.896,3.944h160c2.832,0,5.464-1.504,6.896-3.944c1.44-2.44,1.472-5.464,0.096-7.936L398.993,4.121z    M325.593,144.001l66.408-119.52l66.408,119.52H325.593z"/>
	<path style="fill:#010133;" d="M168.001,0.001h-160c-2.832,0-5.464,1.504-6.896,3.944c-1.44,2.44-1.472,5.464-0.096,7.936l80,144   c1.408,2.544,4.088,4.12,6.992,4.12s5.584-1.576,6.992-4.12l80-144c1.376-2.48,1.344-5.504-0.096-7.936   C173.465,1.505,170.833,0.001,168.001,0.001z M88.001,135.521L21.593,16.001h132.816L88.001,135.521z"/>
	<path style="fill:#010133;" d="M326.897,323.945c-1.432-2.44-4.064-3.944-6.896-3.944h-48.632l-24.376-43.88   c-2.816-5.08-11.168-5.08-13.984,0l-24.376,43.88h-48.632c-2.832,0-5.464,1.504-6.896,3.944c-1.44,2.44-1.472,5.464-0.096,7.936   l24.512,44.12l-24.512,44.12c-1.376,2.48-1.344,5.504,0.096,7.936c1.432,2.44,4.064,3.944,6.896,3.944h48.632l24.376,43.88   c1.408,2.544,4.088,4.12,6.992,4.12c2.904,0,5.584-1.576,6.992-4.12l24.376-43.88h48.632c2.832,0,5.464-1.504,6.896-3.944   c1.44-2.44,1.472-5.464,0.096-7.936l-24.512-44.12l24.512-44.12C328.369,329.409,328.337,326.385,326.897,323.945z    M240.001,296.481l13.072,23.52h-26.136L240.001,296.481z M261.961,336.001l22.224,40l-22.224,40h-43.92l-22.224-40l22.224-40   H261.961z M173.593,336.001h26.144l-13.072,23.528L173.593,336.001z M173.593,416.001l13.072-23.528l13.072,23.528H173.593z    M240.001,455.521l-13.072-23.52h26.136L240.001,455.521z M306.409,416.001h-26.144l13.072-23.528L306.409,416.001z    M293.337,359.529l-13.072-23.528h26.144L293.337,359.529z"/>
	<path style="fill:#010133;" d="M96.001,176.001h-16v40c0,4.424,3.576,8,8,8h144v32h16v-32h144c4.424,0,8-3.576,8-8v-40h-16v32h-288   V176.001z"/>
	<polygon style="fill:#010133;" points="232.001,48.001 232.001,72.001 208.001,72.001 208.001,88.001 232.001,88.001    232.001,112.001 248.001,112.001 248.001,88.001 272.001,88.001 272.001,72.001 248.001,72.001 248.001,48.001  "/>
</g>
<g>
</g>
<g>
</g>
<g>
</g>
<g>
</g>
<g>
</g>
<g>
</g>
<g>
</g>
<g>
</g>
<g>
</g>
<g>
</g>
<g>
</g>
<g>
</g>
<g>
</g>
<g>
</g>
<g>
</g>
</svg>
