<?xml version="1.0" encoding="iso-8859-1"?>
<!-- Generator: Adobe Illustrator 19.0.0, SVG Export Plug-In . SVG Version: 6.00 Build 0)  -->
<svg xmlns="http://www.w3.org/2000/svg" xmlns:xlink="http://www.w3.org/1999/xlink" version="1.1" id="Layer_1" x="0px" y="0px" viewBox="0 0 480 480" style="enable-background:new 0 0 480 480;" xml:space="preserve">
<path style="fill:#66CEDB;" d="M40,368h136h128h136c17.672,0,32-14.328,32-32v-24h-64h-56h-56h-56h-56h-56H72H8v24  C8,353.672,22.328,368,40,368z"/>
<path style="fill:#F6BF58;" d="M128,312h56h56h56h56h56h64V40c0-17.672-14.328-32-32-32h-32h-56h-56h-56h-56h-56H72H40  C22.328,8,8,22.328,8,40v272h64H128z M280,93.92c14.376,4.104,27.856,9.952,40,16.6c38.584,21.12,64,49.48,64,49.48  s-25.416,28.36-64,49.48c-12.144,6.648-25.624,12.496-40,16.6c-12.712,3.632-26.104,5.92-40,5.92s-27.288-2.288-40-5.92  c-14.376-4.104-27.856-9.952-40-16.6C121.416,188.36,96,160,96,160s25.416-28.36,64-49.48c12.144-6.648,25.624-12.496,40-16.6  c12.712-3.624,26.104-5.92,40-5.92S267.288,90.288,280,93.92z"/>
<path style="fill:#66CEDB;" d="M96,440c0,17.672,14.328,32,32,32h224c17.672,0,32-14.328,32-32h-48H144H96z"/>
<g>
	<polygon style="fill:#F9ECDE;" points="144,440 336,440 304,368 176,368  "/>
	<path style="fill:#F9ECDE;" d="M160,110.52C121.416,131.64,96,160,96,160s25.416,28.36,64,49.48   c12.144,6.648,25.624,12.496,40,16.6c12.712,3.624,26.104,5.92,40,5.92s27.288-2.288,40-5.92c14.376-4.104,27.856-9.952,40-16.6   c38.584-21.12,64-49.48,64-49.48s-25.416-28.36-64-49.48c-12.144-6.648-25.624-12.496-40-16.6C267.288,90.288,253.896,88,240,88   s-27.288,2.288-40,5.92C185.624,98.024,172.144,103.872,160,110.52z M240,120c22.088,0,40,17.912,40,40s-17.912,40-40,40   s-40-17.912-40-40S217.912,120,240,120z"/>
</g>
<circle style="fill:#66CEDB;" cx="240" cy="160" r="40"/>
<g>
	<path style="fill:#010133;" d="M40,376h123.688L138.8,432H96c-4.416,0-8,3.584-8,8c0,22.056,17.944,40,40,40h224   c22.056,0,40-17.944,40-40c0-4.416-3.584-8-8-8h-42.8l-24.888-56H440c22.056,0,40-17.944,40-40V40c0-22.056-17.944-40-40-40H40   C17.944,0,0,17.944,0,40v296C0,358.056,17.944,376,40,376z M352,464H128c-10.432,0-19.328-6.688-22.632-16H144h192h38.632   C371.328,457.312,362.432,464,352,464z M323.688,432H156.312l24.888-56h117.6L323.688,432z M440,360H304H176H40   c-13.232,0-24-10.768-24-24v-16h448v16C464,349.232,453.232,360,440,360z M125.656,90.344L80,44.688V16h40v32   c0,2.12,0.84,4.16,2.344,5.656L152,83.312v22.48c-8.768,5.024-16.824,10.312-24,15.544V96C128,93.88,127.16,91.84,125.656,90.344z    M352,96v25.344c-7.176-5.232-15.232-10.52-24-15.544V83.32l29.656-29.656C359.16,52.16,360,50.12,360,48V16h40v28.688   l-45.656,45.656C352.84,91.84,352,93.88,352,96z M344,44.688l-29.656,29.656C312.84,75.84,312,77.88,312,80v17.384   c-7.6-3.592-15.64-6.76-24-9.44V67.312l13.656-13.656C303.16,52.16,304,50.12,304,48V16h40V44.688z M288,44.688l-13.656,13.656   C272.84,59.84,272,61.88,272,64v19.6c-7.768-1.688-15.8-2.72-24-3.176V16h40V44.688z M232,80.424c-8.2,0.464-16.232,1.488-24,3.176   V64c0-2.12-0.84-4.16-2.344-5.656L192,44.688V16h40V80.424z M178.344,53.656L192,67.312v20.632c-8.36,2.68-16.4,5.848-24,9.44V80   c0-2.12-0.84-4.16-2.344-5.656L136,44.688V16h40v32C176,50.12,176.84,52.16,178.344,53.656z M240,96   c62.488,0,116.328,47.744,132.84,64c-16.52,16.256-70.36,64-132.84,64s-116.328-47.744-132.84-64   C123.672,143.744,177.512,96,240,96z M354.344,229.656L400,275.312V304h-40v-32c0-2.12-0.84-4.16-2.344-5.656L328,236.688v-22.48   c8.768-5.024,16.824-10.312,24-15.544V224C352,226.12,352.84,228.16,354.344,229.656z M168,240v-17.384   c7.6,3.592,15.64,6.76,24,9.44v20.632l-13.656,13.656C176.84,267.84,176,269.88,176,272v32h-40v-28.688l29.656-29.656   C167.16,244.16,168,242.12,168,240z M192,275.312l13.656-13.656C207.16,260.16,208,258.12,208,256v-19.6   c7.768,1.688,15.8,2.72,24,3.176V304h-40V275.312z M248,239.576c8.2-0.464,16.232-1.488,24-3.176V256c0,2.12,0.84,4.16,2.344,5.656   L288,275.312V304h-40V239.576z M301.656,266.344L288,252.688v-20.632c8.36-2.68,16.4-5.848,24-9.44V240   c0,2.12,0.84,4.16,2.344,5.656L344,275.312V304h-40v-32C304,269.88,303.16,267.84,301.656,266.344z M128,224v-25.344   c7.176,5.232,15.232,10.52,24,15.544v22.48l-29.656,29.656C120.84,267.84,120,269.88,120,272v32H80v-28.688l45.656-45.656   C127.16,228.16,128,226.12,128,224z M464,40v264h-48v-32c0-2.12-0.84-4.16-2.344-5.656L368,220.688v-34.584   c13.088-11.064,21.048-19.752,21.96-20.768c2.72-3.032,2.72-7.64,0-10.672c-0.912-1.016-8.872-9.712-21.96-20.768V99.312   l45.656-45.656C415.16,52.16,416,50.12,416,48V16h24C453.232,16,464,26.768,464,40z M40,16h24v32c0,2.12,0.84,4.16,2.344,5.656   L112,99.312v34.584c-13.088,11.064-21.048,19.752-21.96,20.768c-2.72,3.032-2.72,7.64,0,10.672   c0.912,1.016,8.872,9.712,21.96,20.768v34.584l-45.656,45.656C64.84,267.84,64,269.88,64,272v32H16V40C16,26.768,26.768,16,40,16z"/>
	<path style="fill:#010133;" d="M240,208c26.472,0,48-21.528,48-48s-21.528-48-48-48s-48,21.528-48,48S213.528,208,240,208z    M240,128c17.648,0,32,14.352,32,32s-14.352,32-32,32s-32-14.352-32-32S222.352,128,240,128z"/>
	<rect x="416" y="152" style="fill:#010133;" width="16" height="16"/>
	<rect x="48" y="152" style="fill:#010133;" width="16" height="16"/>
</g>
<g>
</g>
<g>
</g>
<g>
</g>
<g>
</g>
<g>
</g>
<g>
</g>
<g>
</g>
<g>
</g>
<g>
</g>
<g>
</g>
<g>
</g>
<g>
</g>
<g>
</g>
<g>
</g>
<g>
</g>
</svg>
