<?xml version="1.0" encoding="iso-8859-1"?>
<!-- Generator: Adobe Illustrator 19.0.0, SVG Export Plug-In . SVG Version: 6.00 Build 0)  -->
<svg xmlns="http://www.w3.org/2000/svg" xmlns:xlink="http://www.w3.org/1999/xlink" version="1.1" id="Layer_1" x="0px" y="0px" viewBox="0 0 480 480" style="enable-background:new 0 0 480 480;" xml:space="preserve">
<path style="fill:#66CEDB;" d="M472,417.944v-288v-88h-56v-16c0-8.84-7.16-16-16-16s-16,7.16-16,16v16h-48v-16c0-8.84-7.16-16-16-16  s-16,7.16-16,16v16h-48v-16c0-8.84-7.16-16-16-16s-16,7.16-16,16v16h-48v-16c0-8.84-7.16-16-16-16s-16,7.16-16,16v16H96v-16  c0-8.84-7.16-16-16-16s-16,7.16-16,16v16H8v376h261.568l-0.008-0.008c-2.728-2.264-5.312-4.688-7.792-7.216  c-0.664-0.672-1.264-1.4-1.904-2.096c-1.768-1.904-3.504-3.848-5.128-5.88c-0.76-0.944-1.456-1.936-2.176-2.912  c-1.392-1.88-2.752-3.784-4.024-5.752c-0.72-1.128-1.408-2.28-2.088-3.432c-1.136-1.928-2.216-3.88-3.224-5.88  c-0.632-1.248-1.248-2.512-1.824-3.792c-0.92-2.008-1.752-4.056-2.536-6.136c-0.504-1.336-1.016-2.664-1.472-4.016  c-0.712-2.144-1.32-4.336-1.896-6.544c-0.352-1.344-0.744-2.68-1.04-4.048c-0.528-2.424-0.904-4.896-1.264-7.384  c-0.176-1.2-0.416-2.384-0.552-3.592c-0.4-3.72-0.64-7.488-0.64-11.312c0-57.44,46.56-104,104-104s104,46.56,104,104  c0,3.824-0.24,7.592-0.64,11.304c-0.128,1.216-0.376,2.392-0.552,3.592c-0.36,2.488-0.736,4.96-1.264,7.384  c-0.296,1.368-0.688,2.696-1.04,4.048c-0.576,2.208-1.176,4.4-1.896,6.544c-0.456,1.36-0.968,2.688-1.472,4.016  c-0.792,2.08-1.624,4.128-2.536,6.136c-0.584,1.28-1.192,2.544-1.824,3.792c-1.016,2-2.088,3.96-3.224,5.88  c-0.68,1.152-1.36,2.304-2.088,3.432c-1.272,1.976-2.624,3.872-4.024,5.752c-0.72,0.976-1.424,1.968-2.176,2.912  c-1.624,2.04-3.36,3.976-5.128,5.88c-0.64,0.688-1.24,1.424-1.904,2.096c-2.48,2.528-5.064,4.944-7.792,7.216l-0.008,0.008H472  V417.944z M407.536,79.976c-0.552,0.296-1.088,0.592-1.68,0.824C406.448,80.568,406.992,80.272,407.536,79.976z M404.088,81.352  c-0.36,0.096-0.712,0.216-1.088,0.288C403.376,81.568,403.72,81.448,404.088,81.352z M398.04,81.744  c-0.656-0.08-1.304-0.176-1.928-0.336C396.744,81.568,397.384,81.664,398.04,81.744z M394.76,80.992  c-0.6-0.208-1.176-0.44-1.744-0.712C393.584,80.552,394.16,80.784,394.76,80.992z M391.792,79.608  c-0.536-0.32-1.04-0.672-1.528-1.056C390.752,78.936,391.256,79.288,391.792,79.608z M389.192,77.68  c-0.464-0.424-0.88-0.888-1.288-1.368C388.312,76.792,388.728,77.248,389.192,77.68z M387.048,75.272  c-0.384-0.536-0.704-1.104-1.024-1.68C386.344,74.168,386.664,74.736,387.048,75.272z M385.416,72.464  c-0.296-0.664-0.504-1.368-0.712-2.08C384.912,71.096,385.12,71.8,385.416,72.464z M384.376,69.328  c-0.24-1.096-0.376-2.224-0.376-3.384C384,67.104,384.136,68.232,384.376,69.328z M327.536,79.976  c-0.552,0.296-1.088,0.592-1.68,0.824C326.448,80.568,326.992,80.272,327.536,79.976z M324.088,81.352  c-0.36,0.096-0.712,0.216-1.088,0.288C323.376,81.568,323.72,81.448,324.088,81.352z M318.04,81.744  c-0.656-0.08-1.304-0.176-1.928-0.336C316.744,81.568,317.384,81.664,318.04,81.744z M314.76,80.992  c-0.6-0.208-1.176-0.44-1.744-0.712C313.584,80.552,314.16,80.784,314.76,80.992z M311.792,79.608  c-0.536-0.32-1.04-0.672-1.528-1.056C310.752,78.936,311.256,79.288,311.792,79.608z M309.192,77.68  c-0.464-0.424-0.88-0.888-1.288-1.368C308.312,76.792,308.728,77.248,309.192,77.68z M307.048,75.272  c-0.384-0.536-0.704-1.104-1.024-1.68C306.344,74.168,306.664,74.736,307.048,75.272z M305.416,72.464  c-0.296-0.664-0.504-1.368-0.712-2.08C304.912,71.096,305.12,71.8,305.416,72.464z M304.376,69.328  c-0.24-1.096-0.376-2.224-0.376-3.384C304,67.104,304.136,68.232,304.376,69.328z M247.536,79.976  c-0.552,0.296-1.088,0.592-1.68,0.824C246.448,80.568,246.992,80.272,247.536,79.976z M244.088,81.352  c-0.36,0.096-0.712,0.216-1.088,0.288C243.376,81.568,243.72,81.448,244.088,81.352z M238.04,81.744  c-0.656-0.08-1.304-0.176-1.928-0.336C236.744,81.568,237.384,81.664,238.04,81.744z M234.76,80.992  c-0.6-0.208-1.176-0.44-1.744-0.712C233.584,80.552,234.16,80.784,234.76,80.992z M231.792,79.608  c-0.536-0.32-1.04-0.672-1.528-1.056C230.752,78.936,231.256,79.288,231.792,79.608z M229.192,77.68  c-0.464-0.424-0.88-0.888-1.288-1.368C228.312,76.792,228.728,77.248,229.192,77.68z M227.048,75.272  c-0.384-0.536-0.704-1.104-1.024-1.68C226.344,74.168,226.664,74.736,227.048,75.272z M225.416,72.464  c-0.296-0.664-0.504-1.368-0.712-2.08C224.912,71.096,225.12,71.8,225.416,72.464z M224.376,69.328  c-0.24-1.096-0.376-2.224-0.376-3.384C224,67.104,224.136,68.232,224.376,69.328z M167.536,79.976  c-0.552,0.296-1.088,0.592-1.68,0.824C166.448,80.568,166.992,80.272,167.536,79.976z M164.088,81.352  c-0.36,0.096-0.712,0.216-1.088,0.288C163.376,81.568,163.72,81.448,164.088,81.352z M158.04,81.744  c-0.656-0.08-1.304-0.176-1.928-0.336C156.744,81.568,157.384,81.664,158.04,81.744z M154.76,80.992  c-0.6-0.208-1.176-0.44-1.744-0.712C153.584,80.552,154.16,80.784,154.76,80.992z M151.792,79.608  c-0.536-0.32-1.04-0.672-1.528-1.056C150.752,78.936,151.256,79.288,151.792,79.608z M149.192,77.68  c-0.464-0.424-0.88-0.888-1.288-1.368C148.312,76.792,148.728,77.248,149.192,77.68z M147.048,75.272  c-0.384-0.536-0.704-1.104-1.024-1.68C146.344,74.168,146.664,74.736,147.048,75.272z M145.416,72.464  c-0.296-0.664-0.504-1.368-0.712-2.08C144.912,71.096,145.12,71.8,145.416,72.464z M144.376,69.328  c-0.24-1.096-0.376-2.224-0.376-3.384C144,67.104,144.136,68.232,144.376,69.328z M87.536,79.976  c-0.552,0.296-1.088,0.592-1.68,0.824C86.448,80.568,86.992,80.272,87.536,79.976z M84.088,81.352  c-0.36,0.096-0.712,0.216-1.088,0.288C83.376,81.568,83.72,81.448,84.088,81.352z M78.04,81.744  c-0.656-0.08-1.304-0.176-1.928-0.336C76.744,81.568,77.384,81.664,78.04,81.744z M74.76,80.992c-0.6-0.208-1.176-0.44-1.744-0.712  C73.584,80.552,74.16,80.784,74.76,80.992z M71.792,79.608c-0.536-0.32-1.04-0.672-1.528-1.056  C70.752,78.936,71.256,79.288,71.792,79.608z M69.192,77.68c-0.464-0.424-0.88-0.888-1.288-1.368  C68.312,76.792,68.728,77.248,69.192,77.68z M67.048,75.272c-0.384-0.536-0.704-1.104-1.024-1.68  C66.344,74.168,66.664,74.736,67.048,75.272z M65.416,72.464c-0.296-0.664-0.504-1.368-0.712-2.08  C64.912,71.096,65.12,71.8,65.416,72.464z M64.376,69.328C64.136,68.232,64,67.104,64,65.944C64,67.104,64.136,68.232,64.376,69.328  z M256,225.944l-32,32l-8-8c-17.672-17.672-17.672-46.328,0-64s46.328-17.672,64,0l8,8L256,225.944z M416,225.944l-32-32l8-8  c17.672-17.672,46.328-17.672,64,0s17.672,46.328,0,64l-8,8L416,225.944z"/>
<g>
	<path style="fill:#F6BF58;" d="M412.136,408.632c1.768-1.904,3.504-3.848,5.128-5.88c0.76-0.944,1.456-1.936,2.176-2.912   c1.392-1.88,2.752-3.784,4.024-5.752c0.72-1.128,1.408-2.28,2.088-3.432c1.136-1.928,2.216-3.88,3.224-5.88   c0.632-1.248,1.248-2.512,1.824-3.792c0.92-2.008,1.752-4.056,2.536-6.136c0.504-1.336,1.016-2.664,1.472-4.016   c0.712-2.144,1.32-4.336,1.896-6.544c0.352-1.344,0.744-2.68,1.04-4.048c0.528-2.424,0.904-4.896,1.264-7.384   c0.176-1.2,0.416-2.384,0.552-3.592c0.4-3.728,0.64-7.496,0.64-11.32c0-57.44-46.56-104-104-104s-104,46.56-104,104   c0,3.824,0.24,7.592,0.64,11.304c0.128,1.216,0.376,2.392,0.552,3.592c0.36,2.488,0.736,4.96,1.264,7.384   c0.296,1.368,0.688,2.696,1.04,4.048c0.576,2.208,1.176,4.4,1.896,6.544c0.456,1.36,0.968,2.688,1.472,4.016   c0.792,2.08,1.624,4.128,2.536,6.136c0.584,1.28,1.192,2.544,1.824,3.792c1.016,2,2.088,3.96,3.224,5.88   c0.68,1.152,1.36,2.304,2.088,3.432c1.272,1.976,2.624,3.872,4.024,5.752c0.72,0.976,1.424,1.968,2.176,2.912   c1.624,2.04,3.36,3.976,5.128,5.88c0.64,0.688,1.24,1.424,1.904,2.096c2.48,2.528,5.064,4.944,7.792,7.216   c9.664,8.04,20.84,14.28,33,18.416c10.504,3.576,21.728,5.6,33.44,5.6c14.176,0,27.688-2.856,40-8   c9.632-4.016,18.528-9.44,26.44-16.016c2.728-2.264,5.312-4.688,7.792-7.216C410.888,410.048,411.496,409.32,412.136,408.632z"/>
	<path style="fill:#F6BF58;" d="M456,249.944c17.672-17.672,17.672-46.328,0-64s-46.328-17.672-64,0l-8,8l32,32l32,32L456,249.944z"/>
	<path style="fill:#F6BF58;" d="M216,185.944c-17.672,17.672-17.672,46.328,0,64l8,8l32-32l32-32l-8-8   C262.328,168.272,233.672,168.272,216,185.944z"/>
</g>
<g>
	<path style="fill:#010133;" d="M8,425.944h258.944c7.296,5.736,15.296,10.6,23.88,14.4l-17.688,29.48l13.72,8.232l19.36-32.264   c9.504,2.632,19.456,4.152,29.784,4.152c12.8,0,25.056-2.264,36.528-6.24l20.616,34.352l13.72-8.232l-19.48-32.472   c6.264-3.248,12.168-7.08,17.68-11.408H472c4.416,0,8-3.576,8-8v-376c0-4.424-3.584-8-8-8h-48v-8c0-13.232-10.768-24-24-24   s-24,10.768-24,24v8h-32v-8c0-13.232-10.768-24-24-24s-24,10.768-24,24v8h-32v-8c0-13.232-10.768-24-24-24s-24,10.768-24,24v8h-32   v-8c0-13.232-10.768-24-24-24s-24,10.768-24,24v8h-32v-8c0-13.232-10.768-24-24-24s-24,10.768-24,24v8H8c-4.416,0-8,3.576-8,8v376   C0,422.368,3.584,425.944,8,425.944z M271.616,408.944c-1.304-1.184-2.632-2.344-3.864-3.584c-1.224-1.24-2.36-2.568-3.52-3.872   c-1.016-1.152-2.048-2.288-3.008-3.488c-1.112-1.384-2.152-2.816-3.192-4.264c-0.888-1.232-1.76-2.472-2.576-3.744   c-0.944-1.456-1.84-2.944-2.704-4.448c-0.792-1.392-1.552-2.8-2.272-4.224c-0.744-1.464-1.472-2.936-2.144-4.44   c-0.712-1.608-1.352-3.248-1.976-4.896c-0.536-1.408-1.088-2.808-1.552-4.24c-0.616-1.872-1.112-3.792-1.608-5.704   c-0.336-1.296-0.72-2.568-1-3.88c-0.48-2.24-0.816-4.52-1.136-6.8c-0.152-1.056-0.368-2.088-0.48-3.16   c-0.384-3.392-0.584-6.808-0.584-10.256c0-52.936,43.064-96,96-96s96,43.064,96,96c0,3.448-0.2,6.864-0.568,10.248   c-0.112,1.072-0.336,2.104-0.48,3.16c-0.32,2.28-0.656,4.56-1.136,6.8c-0.28,1.312-0.664,2.592-1,3.88   c-0.496,1.912-1,3.832-1.608,5.704c-0.472,1.44-1.024,2.832-1.552,4.24c-0.624,1.648-1.264,3.288-1.976,4.896   c-0.672,1.504-1.4,2.976-2.144,4.44c-0.728,1.424-1.48,2.84-2.272,4.224c-0.864,1.504-1.76,2.992-2.704,4.448   c-0.824,1.272-1.696,2.512-2.576,3.744c-1.04,1.44-2.08,2.88-3.192,4.264c-0.96,1.192-1.992,2.336-3.008,3.488   c-1.16,1.304-2.296,2.632-3.52,3.872c-1.232,1.248-2.56,2.408-3.864,3.584c-17.064,15.488-39.616,25.008-64.4,25.008   S288.664,424.424,271.616,408.944z M421.784,409.944c2.456-2.92,4.704-5.984,6.832-9.12c0.312-0.456,0.592-0.936,0.896-1.4   c1.584-2.4,3.088-4.848,4.472-7.36c0.448-0.808,0.856-1.648,1.288-2.472c1.152-2.208,2.248-4.448,3.248-6.728   c0.472-1.064,0.904-2.152,1.344-3.232c0.848-2.104,1.624-4.232,2.344-6.392c0.416-1.24,0.816-2.48,1.184-3.744   c0.616-2.104,1.152-4.224,1.64-6.368c0.304-1.312,0.624-2.624,0.88-3.952c0.44-2.296,0.768-4.608,1.064-6.936   c0.152-1.192,0.36-2.368,0.472-3.576c0.344-3.544,0.552-7.12,0.552-10.72c0-36.144-17.288-68.256-43.944-88.744L416,237.256   l26.344,26.344c1.56,1.56,3.608,2.344,5.656,2.344s4.096-0.784,5.656-2.344l8-8c0.832-0.832,1.576-1.72,2.344-2.592v156.936   H421.784z M395.312,193.944l2.344-2.344c14.52-14.528,38.168-14.528,52.688,0c14.52,14.52,14.52,38.168,0,52.688L448,246.632   L395.312,193.944z M392,25.944c0-4.416,3.592-8,8-8s8,3.584,8,8v16v23.144c0,3.048-1.496,5.8-3.656,7.4   c-0.232,0.152-0.44,0.328-0.68,0.456c-0.432,0.248-0.912,0.392-1.384,0.544c-0.504,0.152-1.016,0.264-1.552,0.312   c-0.64,0.056-1.264,0.008-1.872-0.088c-0.488-0.072-0.984-0.136-1.44-0.288c-0.616-0.216-1.176-0.552-1.728-0.92   c-0.352-0.232-0.744-0.424-1.056-0.712c-0.568-0.52-0.976-1.152-1.368-1.792c-0.176-0.288-0.416-0.512-0.552-0.824   c-0.448-1.008-0.712-2.104-0.712-3.232v-24V25.944z M312,25.944c0-4.416,3.592-8,8-8s8,3.584,8,8v16v23.144   c0,3.048-1.496,5.8-3.656,7.4c-0.232,0.152-0.44,0.328-0.68,0.456c-0.432,0.248-0.912,0.392-1.384,0.544   c-0.504,0.152-1.016,0.264-1.552,0.312c-0.64,0.056-1.264,0.008-1.872-0.088c-0.488-0.072-0.984-0.136-1.44-0.288   c-0.616-0.216-1.176-0.552-1.728-0.92c-0.352-0.232-0.744-0.424-1.056-0.712c-0.568-0.52-0.976-1.152-1.368-1.792   c-0.176-0.288-0.416-0.512-0.552-0.824c-0.448-1.008-0.712-2.104-0.712-3.232v-24V25.944z M232,25.944c0-4.416,3.592-8,8-8   c4.408,0,8,3.584,8,8v16v23.144c0,3.048-1.496,5.8-3.656,7.4c-0.232,0.152-0.44,0.328-0.68,0.456   c-0.432,0.248-0.912,0.392-1.384,0.544c-0.504,0.152-1.016,0.264-1.552,0.312c-0.64,0.056-1.264,0.008-1.872-0.08   c-0.488-0.072-0.984-0.136-1.448-0.296c-0.616-0.216-1.168-0.552-1.72-0.912c-0.36-0.232-0.744-0.424-1.064-0.712   c-0.568-0.52-0.976-1.152-1.368-1.792c-0.176-0.288-0.416-0.512-0.552-0.824c-0.44-1.016-0.704-2.112-0.704-3.24v-24V25.944z    M152,25.944c0-4.416,3.592-8,8-8s8,3.584,8,8v16v23.144c0,3.048-1.496,5.8-3.656,7.4c-0.232,0.152-0.44,0.328-0.68,0.456   c-0.432,0.248-0.912,0.392-1.384,0.544c-0.504,0.152-1.016,0.264-1.552,0.312c-0.64,0.056-1.264,0.008-1.872-0.088   c-0.488-0.072-0.976-0.136-1.432-0.288c-0.616-0.216-1.184-0.552-1.736-0.92c-0.352-0.232-0.744-0.424-1.056-0.712   c-0.568-0.52-0.976-1.152-1.368-1.792c-0.176-0.288-0.416-0.512-0.552-0.824c-0.448-1.008-0.712-2.104-0.712-3.232v-24V25.944z    M72,25.944c0-4.416,3.592-8,8-8s8,3.584,8,8v16v23.144c0,3.048-1.496,5.8-3.656,7.4c-0.232,0.152-0.44,0.328-0.68,0.456   c-0.432,0.248-0.912,0.392-1.384,0.544c-0.504,0.152-1.016,0.264-1.552,0.312c-0.64,0.056-1.264,0.008-1.872-0.088   c-0.488-0.072-0.976-0.136-1.432-0.288c-0.616-0.216-1.184-0.552-1.736-0.92c-0.352-0.232-0.744-0.424-1.056-0.712   c-0.568-0.52-0.976-1.152-1.368-1.792c-0.176-0.288-0.416-0.512-0.552-0.824C72.264,68.168,72,67.072,72,65.944v-24V25.944z    M16,49.944h40v16c0,1.72,0.2,3.4,0.544,5.016c0.112,0.52,0.32,1,0.464,1.504c0.304,1.08,0.616,2.152,1.072,3.168   c0.272,0.616,0.632,1.176,0.96,1.76c0.464,0.848,0.92,1.68,1.48,2.464c0.416,0.584,0.896,1.112,1.368,1.656   c0.608,0.712,1.232,1.392,1.92,2.024c0.232,0.216,0.408,0.48,0.656,0.688c0.32,0.272,0.688,0.44,1.024,0.688   c0.744,0.576,1.52,1.096,2.328,1.584c0.608,0.36,1.224,0.704,1.856,1.008c0.88,0.424,1.784,0.76,2.72,1.08   c0.632,0.208,1.248,0.432,1.896,0.592c0.976,0.24,1.984,0.376,3.008,0.488c0.664,0.08,1.32,0.184,2,0.2   c0.232,0.016,0.456,0.08,0.704,0.08c0.784,0,1.52-0.16,2.288-0.232c0.56-0.048,1.12,0,1.688-0.088   c0.176-0.024,0.328-0.096,0.496-0.128c0.544-0.104,1.056-0.28,1.584-0.416c0.896-0.24,1.784-0.48,2.64-0.824   c0.8-0.312,1.544-0.704,2.296-1.096c0.424-0.224,0.856-0.432,1.264-0.688c7-4.2,11.744-11.784,11.744-20.528v-0.856V49.944h32v16   c0,1.72,0.2,3.4,0.544,5.016c0.112,0.52,0.32,1,0.464,1.504c0.304,1.08,0.616,2.152,1.072,3.168c0.272,0.616,0.632,1.176,0.96,1.76   c0.464,0.848,0.92,1.68,1.48,2.464c0.416,0.584,0.896,1.112,1.368,1.656c0.608,0.712,1.232,1.392,1.92,2.024   c0.232,0.216,0.408,0.48,0.656,0.688c0.32,0.272,0.696,0.44,1.024,0.688c0.744,0.568,1.52,1.096,2.328,1.576   c0.616,0.368,1.224,0.712,1.864,1.016c0.872,0.416,1.776,0.76,2.704,1.072c0.632,0.216,1.256,0.432,1.904,0.592   c0.976,0.24,1.976,0.368,2.992,0.488c0.672,0.08,1.328,0.184,2.008,0.2c0.24,0.024,0.464,0.088,0.712,0.088   c0.784,0,1.52-0.16,2.288-0.232c0.56-0.048,1.12,0,1.688-0.088c0.176-0.024,0.328-0.096,0.496-0.128   c0.544-0.104,1.056-0.28,1.584-0.416c0.896-0.24,1.784-0.48,2.64-0.824c0.8-0.312,1.544-0.704,2.296-1.096   c0.424-0.224,0.856-0.432,1.264-0.688c7-4.2,11.744-11.784,11.744-20.528v-0.856V49.944h32v16c0,1.72,0.2,3.4,0.544,5.016   c0.112,0.52,0.32,1,0.464,1.504c0.304,1.08,0.616,2.152,1.072,3.168c0.272,0.616,0.632,1.176,0.96,1.76   c0.464,0.848,0.92,1.68,1.48,2.464c0.416,0.584,0.896,1.112,1.368,1.656c0.608,0.712,1.232,1.392,1.92,2.024   c0.232,0.216,0.408,0.48,0.656,0.688c0.32,0.272,0.696,0.44,1.024,0.696c0.744,0.568,1.512,1.096,2.328,1.576   c0.616,0.368,1.232,0.712,1.872,1.016c0.872,0.416,1.768,0.752,2.696,1.064c0.64,0.216,1.264,0.44,1.912,0.6   c0.976,0.24,1.976,0.368,2.992,0.488c0.672,0.08,1.328,0.184,2.008,0.2c0.232,0.016,0.456,0.08,0.704,0.08   c0.784,0,1.52-0.16,2.288-0.232c0.56-0.048,1.12,0,1.688-0.088c0.176-0.024,0.328-0.096,0.496-0.128   c0.544-0.104,1.056-0.28,1.584-0.416c0.896-0.24,1.784-0.48,2.64-0.824c0.8-0.312,1.544-0.704,2.296-1.096   c0.424-0.224,0.856-0.432,1.264-0.688c7-4.2,11.744-11.784,11.744-20.528v-0.856V49.944h32v16c0,1.72,0.2,3.4,0.544,5.016   c0.112,0.52,0.32,1,0.464,1.504c0.304,1.08,0.616,2.152,1.072,3.168c0.272,0.616,0.632,1.176,0.96,1.76   c0.464,0.848,0.92,1.68,1.48,2.464c0.416,0.584,0.896,1.112,1.368,1.656c0.608,0.712,1.232,1.392,1.92,2.024   c0.232,0.216,0.408,0.48,0.656,0.688c0.32,0.272,0.696,0.44,1.024,0.696c0.744,0.568,1.512,1.088,2.32,1.568   c0.616,0.368,1.232,0.712,1.88,1.024c0.864,0.416,1.76,0.752,2.68,1.064c0.64,0.216,1.272,0.44,1.928,0.6   c0.968,0.24,1.968,0.368,2.976,0.488c0.672,0.08,1.336,0.184,2.016,0.2c0.24,0.016,0.464,0.08,0.712,0.08   c0.784,0,1.528-0.16,2.288-0.232c0.56-0.048,1.12,0,1.68-0.088c0.176-0.024,0.328-0.096,0.496-0.128   c0.544-0.104,1.056-0.28,1.584-0.416c0.896-0.24,1.784-0.48,2.64-0.824c0.8-0.312,1.544-0.704,2.296-1.096   c0.424-0.224,0.856-0.432,1.264-0.688C339.256,82.272,344,74.688,344,65.944v-0.856V49.944h32v16c0,1.72,0.2,3.4,0.544,5.016   c0.112,0.52,0.32,1,0.464,1.504c0.304,1.08,0.616,2.152,1.072,3.168c0.272,0.616,0.632,1.176,0.96,1.76   c0.464,0.848,0.92,1.68,1.48,2.464c0.416,0.584,0.896,1.112,1.368,1.656c0.608,0.712,1.232,1.392,1.92,2.024   c0.232,0.216,0.408,0.48,0.656,0.688c0.32,0.272,0.696,0.44,1.024,0.696c0.744,0.568,1.512,1.088,2.32,1.576   c0.616,0.368,1.232,0.712,1.88,1.016c0.872,0.416,1.768,0.752,2.696,1.072c0.632,0.216,1.256,0.432,1.912,0.592   c0.976,0.24,1.976,0.368,2.992,0.488c0.672,0.08,1.328,0.184,2,0.2c0.24,0.016,0.464,0.08,0.712,0.08   c0.784,0,1.52-0.16,2.288-0.232c0.56-0.048,1.12,0,1.688-0.088c0.176-0.024,0.328-0.096,0.496-0.128   c0.544-0.104,1.056-0.28,1.584-0.416c0.896-0.24,1.784-0.48,2.64-0.824c0.8-0.312,1.544-0.704,2.296-1.096   c0.424-0.224,0.856-0.432,1.264-0.688c7-4.2,11.744-11.784,11.744-20.528v-0.856V49.944h40v72H136v16h328v44.936   c-0.768-0.872-1.512-1.76-2.344-2.592c-20.768-20.768-54.544-20.768-75.312,0l-8,8c-3.128,3.128-3.128,8.184,0,11.312   l26.344,26.344l-14.224,14.224c-13.928-7.8-29.696-12.624-46.464-13.816v-16.408h16v-16h-48v16h16v16.408   c-16.768,1.192-32.536,6.024-46.464,13.816l-14.224-14.224l26.344-26.344c3.128-3.128,3.128-8.184,0-11.312l-8-8   c-20.768-20.768-54.544-20.768-75.312,0s-20.768,54.544,0,75.312l8,8c1.56,1.56,3.608,2.344,5.656,2.344s4.096-0.784,5.656-2.344   L256,237.256l11.944,11.944C241.288,269.688,224,301.8,224,337.944c0,3.6,0.208,7.176,0.544,10.72   c0.112,1.208,0.32,2.384,0.472,3.576c0.296,2.328,0.624,4.648,1.064,6.936c0.256,1.336,0.576,2.64,0.88,3.952   c0.496,2.144,1.024,4.264,1.64,6.368c0.368,1.264,0.768,2.504,1.184,3.744c0.72,2.16,1.496,4.288,2.344,6.392   c0.44,1.088,0.872,2.168,1.344,3.232c1,2.28,2.096,4.52,3.248,6.728c0.432,0.824,0.84,1.656,1.288,2.472   c1.392,2.512,2.896,4.952,4.472,7.36c0.304,0.464,0.584,0.944,0.896,1.4c2.136,3.136,4.376,6.2,6.832,9.12H16V49.944z M224,246.632   l-2.344-2.344c-14.52-14.52-14.52-38.168,0-52.688c7.264-7.264,16.808-10.888,26.344-10.888c9.536,0,19.08,3.624,26.344,10.888   l2.344,2.344L224,246.632z"/>
	<path style="fill:#010133;" d="M328,273.944v60.688l-53.656,53.656l11.312,11.312l56-56c1.504-1.496,2.344-3.528,2.344-5.656v-64   H328z"/>
	<path style="fill:#010133;" d="M48,201.944h64c4.416,0,8-3.576,8-8v-64c0-4.424-3.584-8-8-8H48c-4.416,0-8,3.576-8,8v64   C40,198.368,43.584,201.944,48,201.944z M56,137.944h48v48H56V137.944z"/>
	<path style="fill:#010133;" d="M104,281.944H56v-48h32v-16H48c-4.416,0-8,3.576-8,8v64c0,4.424,3.584,8,8,8h64c4.416,0,8-3.576,8-8   v-24h-16V281.944z"/>
	<path style="fill:#010133;" d="M112,313.944H48c-4.416,0-8,3.576-8,8v64c0,4.424,3.584,8,8,8h64c4.416,0,8-3.576,8-8v-64   C120,317.52,116.416,313.944,112,313.944z M104,377.944H56v-48h48V377.944z"/>
	<path style="fill:#010133;" d="M80,254.632l-10.344-10.344L58.344,255.6l16,16c1.56,1.56,3.608,2.344,5.656,2.344   s4.096-0.784,5.656-2.344l48-48l-11.312-11.312L80,254.632z"/>
</g>
<g>
</g>
<g>
</g>
<g>
</g>
<g>
</g>
<g>
</g>
<g>
</g>
<g>
</g>
<g>
</g>
<g>
</g>
<g>
</g>
<g>
</g>
<g>
</g>
<g>
</g>
<g>
</g>
<g>
</g>
</svg>
