<?xml version="1.0" encoding="iso-8859-1"?>
<!-- Generator: Adobe Illustrator 19.0.0, SVG Export Plug-In . SVG Version: 6.00 Build 0)  -->
<svg xmlns="http://www.w3.org/2000/svg" xmlns:xlink="http://www.w3.org/1999/xlink" version="1.1" id="Layer_1" x="0px" y="0px" viewBox="0 0 480 480" style="enable-background:new 0 0 480 480;" xml:space="preserve">
<path style="fill:#F6BF58;" d="M208,440v-80c0-17.672,14.328-32,32-32s32,14.328,32,32v80h80V192v-24L240,96l-112,72v24v248H208z   M240,152c26.512,0,48,21.488,48,48s-21.488,48-48,48s-48-21.488-48-48S213.488,152,240,152z"/>
<g>
	<polygon style="fill:#66CEDB;" points="472,440 448,440 448,192 352,192 352,440 272,440 208,440 128,440 128,192 32,192 32,440    8,440 8,472 472,472  "/>
	<rect x="240" y="8" style="fill:#66CEDB;" width="96" height="48"/>
</g>
<g>
	<path style="fill:#F9ECDE;" d="M240,328c-17.672,0-32,14.328-32,32v80h64v-80C272,342.328,257.672,328,240,328z"/>
	<circle style="fill:#F9ECDE;" cx="240" cy="200" r="48"/>
</g>
<g>
	<path style="fill:#010133;" d="M480,440c0-4.416-3.576-8-8-8h-16V192c0-4.416-3.576-8-8-8h-88v-16c0-2.72-1.384-5.256-3.672-6.728   L248,91.632V64h88c4.424,0,8-3.584,8-8V8c0-4.416-3.576-8-8-8h-96c-4.424,0-8,3.584-8,8v48v35.632l-108.328,69.64   C121.384,162.744,120,165.28,120,168v16H32c-4.424,0-8,3.584-8,8v240H8c-4.424,0-8,3.584-8,8v32c0,4.416,3.576,8,8,8h464   c4.424,0,8-3.584,8-8V440z M440,200v232h-80V200H440z M248,16h80v32h-80V16z M136,172.368l104-66.856l104,66.856V192v240h-64v-72   c0-22.056-17.944-40-40-40s-40,17.944-40,40v72h-64V192V172.368z M264,432h-48v-72c0-13.232,10.768-24,24-24s24,10.768,24,24V432z    M40,200h80v232H40V200z M464,464H16v-16h16h96h80h64h80h96h16V464z"/>
	<rect x="376" y="216" style="fill:#010133;" width="16" height="16"/>
	<rect x="408" y="216" style="fill:#010133;" width="16" height="16"/>
	<rect x="376" y="248" style="fill:#010133;" width="16" height="16"/>
	<rect x="408" y="248" style="fill:#010133;" width="16" height="16"/>
	<rect x="376" y="280" style="fill:#010133;" width="16" height="16"/>
	<rect x="408" y="280" style="fill:#010133;" width="16" height="16"/>
	<rect x="376" y="312" style="fill:#010133;" width="16" height="16"/>
	<rect x="408" y="312" style="fill:#010133;" width="16" height="16"/>
	<rect x="376" y="344" style="fill:#010133;" width="16" height="16"/>
	<rect x="408" y="344" style="fill:#010133;" width="16" height="16"/>
	<rect x="56" y="216" style="fill:#010133;" width="16" height="16"/>
	<rect x="88" y="216" style="fill:#010133;" width="16" height="16"/>
	<rect x="56" y="248" style="fill:#010133;" width="16" height="16"/>
	<rect x="88" y="248" style="fill:#010133;" width="16" height="16"/>
	<rect x="56" y="280" style="fill:#010133;" width="16" height="16"/>
	<rect x="88" y="280" style="fill:#010133;" width="16" height="16"/>
	<rect x="56" y="312" style="fill:#010133;" width="16" height="16"/>
	<rect x="88" y="312" style="fill:#010133;" width="16" height="16"/>
	<rect x="56" y="344" style="fill:#010133;" width="16" height="16"/>
	<rect x="88" y="344" style="fill:#010133;" width="16" height="16"/>
	<path style="fill:#010133;" d="M240,256c30.872,0,56-25.12,56-56s-25.128-56-56-56s-56,25.12-56,56S209.128,256,240,256z M240,160   c22.056,0,40,17.944,40,40s-17.944,40-40,40s-40-17.944-40-40S217.944,160,240,160z"/>
	<path style="fill:#010133;" d="M248,200v-32h-16v24h-16v16h24C244.424,208,248,204.416,248,200z"/>
</g>
<g>
</g>
<g>
</g>
<g>
</g>
<g>
</g>
<g>
</g>
<g>
</g>
<g>
</g>
<g>
</g>
<g>
</g>
<g>
</g>
<g>
</g>
<g>
</g>
<g>
</g>
<g>
</g>
<g>
</g>
</svg>
