<?xml version="1.0" encoding="iso-8859-1"?>
<!-- Generator: Adobe Illustrator 19.0.0, SVG Export Plug-In . SVG Version: 6.00 Build 0)  -->
<svg xmlns="http://www.w3.org/2000/svg" xmlns:xlink="http://www.w3.org/1999/xlink" version="1.1" id="Layer_1" x="0px" y="0px" viewBox="0 0 480.03 480.03" style="enable-background:new 0 0 480.03 480.03;" xml:space="preserve">
<g>
	<polygon style="fill:#F9ECDE;" points="72.03,256.015 88.03,256.015 104.03,240.015 120.03,240.015 136.03,256.015 152.03,256.015    168.03,240.015 184.03,240.015 200.03,256.015 216.03,256.015 238.694,240.903 184.03,168.015 184.03,128.015 184.03,32.015    184.03,8.015 104.03,8.015 104.03,56.015 104.03,96.015 104.03,136.015 104.03,168.015 49.366,240.903  "/>
	<path style="fill:#F9ECDE;" d="M21.774,325.759l-11.352-11.352C12.766,319.271,16.694,323.375,21.774,325.759z"/>
</g>
<g>
	<circle style="fill:#66CEDB;" cx="144.03" cy="392.015" r="24"/>
	<circle style="fill:#66CEDB;" cx="56.03" cy="448.015" r="24"/>
	<circle style="fill:#66CEDB;" cx="248.03" cy="128.015" r="24"/>
</g>
<circle style="fill:#F6BF58;" cx="376.03" cy="128.015" r="24"/>
<circle style="fill:#66CEDB;" cx="312.03" cy="32.015" r="24"/>
<g>
	<circle style="fill:#F6BF58;" cx="440.03" cy="32.015" r="24"/>
	<polygon style="fill:#F6BF58;" points="274.03,288.015 274.318,288.015 240.03,240.015 238.694,240.903 216.03,256.015    200.03,256.015 184.03,240.015 168.03,240.015 152.03,256.015 136.03,256.015 120.03,240.015 104.03,240.015 88.03,256.015    72.03,256.015 49.366,240.903 48.03,240.015 8.03,296.015 8.03,312.015 10.422,314.407 21.774,325.759 24.03,328.015    32.03,328.015 56.03,328.015 144.03,328.015 232.03,328.015 232.03,288.015  "/>
</g>
<path style="fill:#66CEDB;" d="M424.03,288.015h-32h-80h-37.712h-0.288h-42v40v16v48v48c0,17.672,14.328,32,32,32h176  c17.672,0,32-14.328,32-32v-96v-56h-8H424.03z"/>
<g>
	<path style="fill:#010133;" d="M472.03,280.015v-96c0-2.128-0.84-4.16-2.344-5.656l-21.656-21.656V62.879   c13.768-3.576,24-15.992,24-30.864c0-17.648-14.352-32-32-32c-14.872,0-27.288,10.232-30.864,24h-66.272   c-3.576-13.768-15.992-24-30.864-24s-27.288,10.232-30.864,24H192.03v-16c0-4.424-3.576-8-8-8h-80c-4.424,0-8,3.576-8,8v157.336   L6.43,284.823c-7.32,9.76-8.48,22.6-3.016,33.504c5.448,10.912,16.424,17.688,28.616,17.688h16v81.136   c-13.768,3.576-24,15.992-24,30.864c0,17.648,14.352,32,32,32c14.872,0,27.288-10.232,30.864-24h140.528   c6.192,14.104,20.248,24,36.608,24h176c22.056,0,40-17.944,40-40v-96v-56C480.03,283.591,476.454,280.015,472.03,280.015z    M400.03,352.015v16h-96v-16h-16v16h-20.688l-27.312-27.312v-12.688v-32h34h190v44.688l-27.312,27.312H416.03v-16H400.03z    M174.894,384.015c-2.912-11.192-11.672-19.96-22.864-22.864v-25.136h72v8v40H174.894z M144.03,376.015c8.824,0,16,7.176,16,16   s-7.176,16-16,16s-16-7.176-16-16S135.206,376.015,144.03,376.015z M192.03,136.015h25.136c3.576,13.768,15.992,24,30.864,24   c14.872,0,27.288-10.232,30.864-24h66.272c2.912,11.192,11.672,19.96,22.864,22.864v25.136c0,2.128,0.84,4.16,2.344,5.656   l45.656,45.656v44.688h-16v-16c0-13.232-10.768-24-24-24h-48c-13.232,0-24,10.768-24,24v16h-26l-86-114.664V136.015z    M248.03,112.015c8.824,0,16,7.176,16,16s-7.176,16-16,16s-16-7.176-16-16S239.206,112.015,248.03,112.015z M376.03,112.015   c8.824,0,16,7.176,16,16s-7.176,16-16,16s-16-7.176-16-16S367.206,112.015,376.03,112.015z M384.03,280.015h-64v-16   c0-4.416,3.584-8,8-8h48c4.416,0,8,3.584,8,8V280.015z M440.03,16.015c8.824,0,16,7.176,16,16s-7.176,16-16,16s-16-7.176-16-16   S431.206,16.015,440.03,16.015z M432.03,62.879v97.136c0,2.128,0.84,4.16,2.344,5.656l21.656,21.656v92.688h-24v-48   c0-2.128-0.84-4.16-2.344-5.656l-45.656-45.656v-21.824c13.768-3.576,24-15.992,24-30.864s-10.232-27.288-24-30.864V40.015h25.136   C412.07,51.207,420.838,59.975,432.03,62.879z M312.03,16.015c8.824,0,16,7.176,16,16s-7.176,16-16,16s-16-7.176-16-16   S303.206,16.015,312.03,16.015z M312.03,64.015c14.872,0,27.288-10.232,30.864-24h25.136v57.136   c-11.192,2.912-19.96,11.672-22.864,22.864h-66.272c-2.912-11.192-11.672-19.96-22.864-22.864V40.015h25.136   C284.742,53.783,297.158,64.015,312.03,64.015z M240.03,40.015v57.136c-11.192,2.912-19.96,11.672-22.864,22.864H192.03v-80H240.03   z M110.43,172.815c1.04-1.384,1.6-3.064,1.6-4.8v-24h24v-16h-24v-24h24v-16h-24v-24h24v-16h-24v-32h64v152   c0,1.736,0.56,3.416,1.6,4.8l47.688,63.584c-2.816,1.88-5.056,4.064-6.96,5.96c-3.928,3.92-5.856,5.656-10.368,5.656   s-6.432-1.736-10.36-5.656c-4.376-4.368-10.36-10.344-21.68-10.344c-11.312,0-17.288,5.976-21.648,10.344   c-3.92,3.92-5.84,5.656-10.336,5.656s-6.416-1.736-10.336-5.656c-4.36-4.368-10.336-10.344-21.64-10.344   c-11.312,0-17.288,5.976-21.648,10.344c-3.92,3.92-5.84,5.656-10.328,5.656c-4.496,0-6.416-1.736-10.336-5.656   c-1.896-1.896-4.128-4.08-6.944-5.96L110.43,172.815z M17.726,311.175c-2.776-5.536-2.208-11.808,1.504-16.76l33.88-45.168   c1.64,0.92,3.176,2.344,5.264,4.432c4.352,4.36,10.328,10.336,21.64,10.336c11.304,0,17.28-5.976,21.64-10.344   c3.92-3.92,5.84-5.656,10.336-5.656c4.488,0,6.408,1.736,10.328,5.656c4.36,4.368,10.336,10.344,21.648,10.344   s17.288-5.976,21.648-10.344c3.92-3.92,5.84-5.656,10.336-5.656c4.512,0,6.44,1.736,10.368,5.664   c4.376,4.36,10.352,10.336,21.672,10.336s17.304-5.976,21.68-10.344c2.096-2.088,3.632-3.512,5.28-4.432l23.08,30.776h-26   c-4.424,0-8,3.576-8,8v32h-192C25.846,320.015,20.494,316.711,17.726,311.175z M56.03,464.015c-8.824,0-16-7.176-16-16   s7.176-16,16-16s16,7.176,16,16S64.854,464.015,56.03,464.015z M86.894,440.015c-2.912-11.192-11.672-19.96-22.864-22.864v-81.136   h72v25.136c-13.768,3.576-24,15.992-24,30.864c0,17.648,14.352,32,32,32c14.872,0,27.288-10.232,30.864-24h49.136v40H86.894z    M440.03,464.015h-176c-13.232,0-24-10.768-24-24v-76.688l18.344,18.344c1.496,1.504,3.528,2.344,5.656,2.344h24v16h16v-16h40v8h16   v-8h40v16h16v-16h24c2.128,0,4.16-0.84,5.656-2.344l18.344-18.344v76.688C464.03,453.247,453.262,464.015,440.03,464.015z"/>
	<rect x="312.03" y="432.015" style="fill:#010133;" width="16" height="16"/>
	<rect x="344.03" y="432.015" style="fill:#010133;" width="16" height="16"/>
	<rect x="376.03" y="432.015" style="fill:#010133;" width="16" height="16"/>
</g>
<g>
</g>
<g>
</g>
<g>
</g>
<g>
</g>
<g>
</g>
<g>
</g>
<g>
</g>
<g>
</g>
<g>
</g>
<g>
</g>
<g>
</g>
<g>
</g>
<g>
</g>
<g>
</g>
<g>
</g>
</svg>
