<?xml version="1.0" encoding="iso-8859-1"?>
<!-- Generator: Adobe Illustrator 19.0.0, SVG Export Plug-In . SVG Version: 6.00 Build 0)  -->
<svg xmlns="http://www.w3.org/2000/svg" xmlns:xlink="http://www.w3.org/1999/xlink" version="1.1" id="Layer_1" x="0px" y="0px" viewBox="0 0 480 480" style="enable-background:new 0 0 480 480;" xml:space="preserve">
<path style="fill:#F6BF58;" d="M289.128,176.568l13.864,6.928C304.624,183.792,306.28,184,308,184c1.616,0,3.176-0.216,4.712-0.472  l18.904-12.6C334.352,166.592,336,161.504,336,156c0,15.464,12.536,28,28,28s28-12.536,28-28c0,15.464,12.536,28,28,28  s28-12.536,28-28V68c0-15.464-12.536-28-28-28s-28,12.536-28,28c0-15.464-12.536-28-28-28s-28,12.536-28,28  c0-15.464-12.536-28-28-28s-28,12.536-28,28v88c0,1.392,0.216,2.72,0.408,4.056l7.088,14.888  C288.024,175.512,288.56,176.048,289.128,176.568z"/>
<polygon style="fill:#F9ECDE;" points="136,136 136,56 88,56 88,88 88,120 88,136 57.232,176 166.768,176 "/>
<path style="fill:#F6BF58;" d="M186.28,201.368L166.768,176H57.232L37.72,201.368C25.576,217.152,36.832,240,56.744,240H96h71.256  C187.168,240,198.424,217.152,186.28,201.368z"/>
<rect x="232" y="344" style="fill:#F9ECDE;" width="216" height="64"/>
<g>
	<rect x="232" y="408" style="fill:#66CEDB;" width="216" height="64"/>
	<path style="fill:#66CEDB;" d="M32,304h200v40h216V168l-16,16h-12h-12l-16-16l-16,16h-12h-12l-16-16l-4.384,2.92l-18.904,12.6   L312,184h-4h-4l-1.008-0.504l-13.864-6.928L288,176l-0.504-1.056l-7.088-14.888L208,8H32c0,26.512,21.488,48,48,48h8h48h32l64,184   h-64.744H96C60.656,240,32,268.656,32,304z"/>
</g>
<g>
	<path style="fill:#010133;" d="M24,304c0,4.416,3.576,8,8,8h192v32v64v64c0,4.416,3.576,8,8,8h216c4.424,0,8-3.584,8-8v-64v-64V160   h-0.408c0.152-1.328,0.408-2.632,0.408-4V68c0-19.848-16.152-36-36-36c-11.368,0-21.4,5.4-28,13.648C385.4,37.4,375.368,32,364,32   s-21.4,5.4-28,13.648C329.4,37.4,319.368,32,308,32c-19.848,0-36,16.152-36,36v56.432L215.224,4.576C213.904,1.784,211.096,0,208,0   H32c-4.424,0-8,3.584-8,8c0,30.88,25.128,56,56,56v69.28l-48.624,63.208c-7.488,9.736-8.768,22.632-3.344,33.648   c4.64,9.408,13.352,15.736,23.44,17.392C34.768,260.728,24,281.112,24,304z M440,400H240v-48h200V400z M440,464H240v-48h200V464z    M420,48c11.032,0,20,8.976,20,20v88c0,11.024-8.968,20-20,20s-20-8.976-20-20V68C400,56.976,408.968,48,420,48z M364,48   c11.032,0,20,8.976,20,20v88c0,11.024-8.968,20-20,20s-20-8.976-20-20V68C344,56.976,352.968,48,364,48z M288,68   c0-11.024,8.968-20,20-20s20,8.976,20,20v88c0,11.024-8.968,20-20,20s-20-8.976-20-20V68z M40.808,16h162.136l69.832,147.424   l0.016-0.008C276.216,179.72,290.696,192,308,192c11.368,0,21.4-5.4,28-13.648C342.6,186.6,352.632,192,364,192s21.4-5.4,28-13.648   C398.6,186.6,408.632,192,420,192c7.4,0,14.272-2.256,20-6.096V336H240v-32c0-4.416-3.576-8-8-8H40.568   c3.888-27.104,27.264-48,55.432-48h71.256H232c2.584,0,5.016-1.256,6.52-3.36c1.504-2.112,1.88-4.824,1.032-7.264l-64-184   C174.44,50.16,171.408,48,168,48h-32H88h-8C60.68,48,44.52,34.232,40.808,16z M192.624,196.488L144,133.28V64h18.312l58.44,168   H194.88c0.36-0.624,0.76-1.208,1.088-1.864C201.392,219.12,200.112,206.224,192.624,196.488z M94.344,140.88   C95.416,139.48,96,137.768,96,136v-8h16v-16H96V96h16V80H96V64h32v72c0,1.768,0.584,3.48,1.656,4.88L150.52,168H73.48   L94.344,140.88z M56.744,232c-6.232,0-11.6-3.336-14.352-8.936c-2.76-5.592-2.136-11.88,1.672-16.824L61.176,184h101.648   l17.112,22.248c3.808,4.944,4.432,11.232,1.672,16.824c-2.752,5.592-8.112,8.928-14.352,8.928H96H56.744z"/>
	<rect x="408" y="368" style="fill:#010133;" width="16" height="16"/>
</g>
<g>
</g>
<g>
</g>
<g>
</g>
<g>
</g>
<g>
</g>
<g>
</g>
<g>
</g>
<g>
</g>
<g>
</g>
<g>
</g>
<g>
</g>
<g>
</g>
<g>
</g>
<g>
</g>
<g>
</g>
</svg>
