<?xml version="1.0" encoding="iso-8859-1"?>
<!-- Generator: Adobe Illustrator 19.0.0, SVG Export Plug-In . SVG Version: 6.00 Build 0)  -->
<svg xmlns="http://www.w3.org/2000/svg" xmlns:xlink="http://www.w3.org/1999/xlink" version="1.1" id="Layer_1" x="0px" y="0px" viewBox="0 0 480 480" style="enable-background:new 0 0 480 480;" xml:space="preserve">
<path style="fill:#66CEDB;" d="M176,56h8v24v16v24v16v24v16v40L18.048,405.656C-4.584,431.52,13.784,472,48.152,472h383.696  c34.368,0,52.736-40.48,30.104-66.344L296,216v-40v-40V96V56h8c13.256,0,24-10.744,24-24S317.256,8,304,8H176  c-13.256,0-24,10.744-24,24S162.744,56,176,56z M307.88,292.12c13.288,13.288,9.456,40.064-7.216,67.88  c16.672,27.816,20.504,54.592,7.216,67.88s-40.064,9.456-67.88-7.216c-27.816,16.672-54.592,20.504-67.88,7.216  s-9.456-40.064,7.216-67.88c-16.672-27.816-20.504-54.592-7.216-67.88s40.064-9.456,67.88,7.216  C267.816,282.664,294.592,278.832,307.88,292.12z"/>
<g>
	<path style="fill:#F6BF58;" d="M448,56c13.256,0,24-10.744,24-24S461.256,8,448,8s-24,10.744-24,24   c0,6.624,2.688,12.624,7.032,16.968C435.376,53.312,441.376,56,448,56z"/>
	<path style="fill:#F6BF58;" d="M448,264c13.256,0,24-10.744,24-24s-10.744-24-24-24c-6.624,0-12.624,2.688-16.968,7.032   C426.688,227.376,424,233.376,424,240C424,253.256,434.744,264,448,264z"/>
	<circle style="fill:#F6BF58;" cx="448" cy="136" r="24"/>
	<path style="fill:#F6BF58;" d="M32,56c6.624,0,12.624-2.688,16.968-7.032C53.312,44.624,56,38.624,56,32C56,18.744,45.256,8,32,8   S8,18.744,8,32S18.744,56,32,56z"/>
	<path style="fill:#F6BF58;" d="M32,264c13.256,0,24-10.744,24-24c0-6.624-2.688-12.624-7.032-16.968S38.624,216,32,216   c-13.256,0-24,10.744-24,24C8,253.256,18.744,264,32,264z"/>
	<circle style="fill:#F6BF58;" cx="32" cy="136" r="24"/>
</g>
<path style="fill:#F9ECDE;" d="M172.12,292.12c-13.288,13.288-9.456,40.064,7.216,67.88c-16.672,27.816-20.504,54.592-7.216,67.88  s40.064,9.456,67.88-7.216c27.816,16.672,54.592,20.504,67.88,7.216s9.456-40.064-7.216-67.88  c16.672-27.816,20.504-54.592,7.216-67.88s-40.064-9.456-67.88,7.216C212.184,282.664,185.408,278.832,172.12,292.12z"/>
<g>
	<rect x="424" y="432" style="fill:#010133;" width="16" height="16"/>
	<rect x="392" y="432" style="fill:#010133;" width="16" height="16"/>
	<rect x="392" y="400" style="fill:#010133;" width="16" height="16"/>
	<rect x="40" y="432" style="fill:#010133;" width="16" height="16"/>
	<rect x="72" y="432" style="fill:#010133;" width="16" height="16"/>
	<rect x="72" y="400" style="fill:#010133;" width="16" height="16"/>
	<path style="fill:#010133;" d="M96,168c-2.12,0-4.16,0.84-5.656,2.344l-42.192,42.192C43.392,209.72,37.92,208,32,208   c-17.648,0-32,14.352-32,32s14.352,32,32,32s32-14.352,32-32c0-5.92-1.72-11.392-4.536-16.152L99.312,184H176v28.992   l-163.976,187.4c-12.56,14.36-15.472,34.072-7.584,51.448C12.328,469.208,29.072,480,48.152,480h383.696   c19.08,0,35.832-10.792,43.712-28.168s4.976-37.088-7.584-51.448L304,212.992V184h76.688l39.848,39.848   C417.72,228.608,416,234.08,416,240c0,17.648,14.352,32,32,32s32-14.352,32-32s-14.352-32-32-32c-5.92,0-11.392,1.72-16.152,4.536   l-42.192-42.192C388.16,168.84,386.12,168,384,168h-80v-24h113.136c3.576,13.76,16,24,30.864,24c17.648,0,32-14.352,32-32   s-14.352-32-32-32c-14.864,0-27.288,10.24-30.864,24H304v-24h80c2.12,0,4.16-0.84,5.656-2.344l42.192-42.192   C436.608,62.28,442.08,64,448,64c17.648,0,32-14.352,32-32S465.648,0,448,0s-32,14.352-32,32c0,5.92,1.72,11.392,4.536,16.152   L380.688,88H304V64c17.648,0,32-14.352,32-32S321.648,0,304,0H176c-17.648,0-32,14.352-32,32s14.352,32,32,32v24H99.312   L59.464,48.152C62.28,43.392,64,37.92,64,32C64,14.352,49.648,0,32,0S0,14.352,0,32s14.352,32,32,32   c5.92,0,11.392-1.72,16.152-4.536l42.192,42.192C91.84,103.16,93.88,104,96,104h80v24H62.864c-3.576-13.76-16-24-30.864-24   c-17.648,0-32,14.352-32,32s14.352,32,32,32c14.864,0,27.288-10.24,30.864-24H176v24H96z M32,256c-8.824,0-16-7.176-16-16   s7.176-16,16-16s16,7.176,16,16S40.824,256,32,256z M464,240c0,8.824-7.176,16-16,16s-16-7.176-16-16s7.176-16,16-16   S464,231.176,464,240z M448,120c8.824,0,16,7.176,16,16s-7.176,16-16,16s-16-7.176-16-16S439.176,120,448,120z M448,16   c8.824,0,16,7.176,16,16s-7.176,16-16,16s-16-7.176-16-16S439.176,16,448,16z M16,32c0-8.824,7.176-16,16-16s16,7.176,16,16   s-7.176,16-16,16S16,40.824,16,32z M32,152c-8.824,0-16-7.176-16-16s7.176-16,16-16s16,7.176,16,16S40.824,152,32,152z M160,32   c0-8.824,7.176-16,16-16h128c8.824,0,16,7.176,16,16s-7.176,16-16,16h-8c-4.416,0-8,3.584-8,8v160c0,1.936,0.704,3.808,1.984,5.272   l165.952,189.664c8.376,9.568,10.312,22.712,5.056,34.296C455.736,456.808,444.568,464,431.848,464H48.152   c-12.72,0-23.888-7.192-29.144-18.776c-5.256-11.584-3.32-24.72,5.056-34.296l165.952-189.664c1.28-1.456,1.984-3.328,1.984-5.264   v-48h24v-16h-24v-24h24v-16h-24V88h24V72h-24V56c0-4.416-3.584-8-8-8h-8C167.176,48,160,40.824,160,32z"/>
	<path style="fill:#010133;" d="M166.464,286.464c-15.344,15.344-12.944,43.808,3.592,73.536   c-16.536,29.736-18.928,58.2-3.592,73.536c6.96,6.96,16.616,10.272,27.872,10.272c13.552,0,29.424-4.96,45.664-13.992   c16.24,9.032,32.12,13.992,45.672,13.992c11.248,0,20.912-3.32,27.872-10.272c15.344-15.344,12.944-43.808-3.592-73.536   c16.536-29.736,18.928-58.2,3.592-73.536c-15.336-15.344-43.808-12.952-73.536,3.584C210.264,273.512,181.8,271.12,166.464,286.464   z M177.776,297.776c3.68-3.68,9.416-5.544,16.56-5.544c8.352,0,18.688,2.704,29.872,7.864c-8.072,5.8-16.08,12.592-23.8,20.304   c-7.736,7.736-14.536,15.768-20.352,23.856C170.44,323.488,169.776,305.776,177.776,297.776z M240,308.792   c9.336,6,18.928,13.568,28.288,22.928c9.352,9.352,16.992,18.952,22.992,28.288c-6,9.336-13.64,18.928-22.992,28.288   c-9.36,9.344-18.952,16.984-28.288,22.984c-9.336-6-18.928-13.64-28.288-22.992c-9.352-9.352-16.992-18.952-22.992-28.288   c6-9.336,13.64-18.928,22.992-28.288C221.072,322.36,230.664,314.792,240,308.792z M177.776,422.224c-8-8-7.336-25.712,2.28-46.488   c5.808,8.088,12.616,16.12,20.352,23.856c7.76,7.76,15.824,14.488,23.936,20.312C203.536,429.56,185.792,430.232,177.776,422.224z    M302.224,422.224c-8.016,8-25.76,7.328-46.568-2.32c8.12-5.824,16.176-12.552,23.936-20.312   c7.736-7.736,14.536-15.768,20.352-23.856C309.56,396.512,310.224,414.224,302.224,422.224z M285.664,292.232   c7.144,0,12.872,1.864,16.56,5.544c8,8,7.336,25.712-2.28,46.488c-5.808-8.088-12.616-16.12-20.352-23.856   c-7.712-7.712-15.728-14.504-23.8-20.312C266.976,294.928,277.312,292.232,285.664,292.232z"/>
	<rect x="232" y="352" style="fill:#010133;" width="16" height="16"/>
</g>
<g>
</g>
<g>
</g>
<g>
</g>
<g>
</g>
<g>
</g>
<g>
</g>
<g>
</g>
<g>
</g>
<g>
</g>
<g>
</g>
<g>
</g>
<g>
</g>
<g>
</g>
<g>
</g>
<g>
</g>
</svg>
