<?xml version="1.0" encoding="iso-8859-1"?>
<!-- Generator: Adobe Illustrator 19.0.0, SVG Export Plug-In . SVG Version: 6.00 Build 0)  -->
<svg xmlns="http://www.w3.org/2000/svg" xmlns:xlink="http://www.w3.org/1999/xlink" version="1.1" id="Layer_1" x="0px" y="0px" viewBox="0 0 488.005 488.005" style="enable-background:new 0 0 488.005 488.005;" xml:space="preserve">
<path style="fill:#66CEDB;" d="M240.002,480.005c128.128,0,232-103.872,232-232c0-64.064-25.968-122.064-67.952-164.048  s-99.984-67.952-164.048-67.952c-128.128,0-232,103.872-232,232S111.874,480.005,240.002,480.005z M240.002,48.005  c55.232,0,105.232,22.384,141.424,58.576s58.576,86.192,58.576,141.424c0,110.456-89.544,200-200,200s-200-89.544-200-200  S129.546,48.005,240.002,48.005z"/>
<path style="fill:#F9ECDE;" d="M240.002,448.005c110.456,0,200-89.544,200-200c0-55.232-22.384-105.232-58.576-141.424  s-86.192-58.576-141.424-58.576c-110.456,0-200,89.544-200,200S129.546,448.005,240.002,448.005z M240.002,112.005  c37.552,0,71.552,15.224,96.168,39.832c24.608,24.616,39.832,58.616,39.832,96.168c0,75.112-60.888,136-136,136s-136-60.888-136-136  S164.89,112.005,240.002,112.005z"/>
<path style="fill:#66CEDB;" d="M240.002,384.005c75.112,0,136-60.888,136-136c0-37.552-15.224-71.552-39.832-96.168  c-24.616-24.608-58.616-39.832-96.168-39.832c-75.112,0-136,60.888-136,136S164.89,384.005,240.002,384.005z M240.002,144.005  c28.72,0,54.72,11.64,73.536,30.464s30.464,44.816,30.464,73.536c0,57.44-46.56,104-104,104s-104-46.56-104-104  S182.562,144.005,240.002,144.005z"/>
<path style="fill:#F9ECDE;" d="M240.002,352.005c57.44,0,104-46.56,104-104c0-28.72-11.64-54.72-30.464-73.536  s-44.816-30.464-73.536-30.464c-57.44,0-104,46.56-104,104S182.562,352.005,240.002,352.005z M240.002,216.005  c8.84,0,16.84,3.584,22.624,9.376c5.792,5.784,9.376,13.784,9.376,22.624c0,17.672-14.328,32-32,32s-32-14.328-32-32  S222.33,216.005,240.002,216.005z"/>
<path style="fill:#66CEDB;" d="M240.002,280.005c17.672,0,32-14.328,32-32c0-8.84-3.584-16.84-9.376-22.624  c-5.784-5.792-13.784-9.376-22.624-9.376c-17.672,0-32,14.328-32,32S222.33,280.005,240.002,280.005z"/>
<polygon style="fill:#F6BF58;" points="448.002,80.005 480.002,48.005 448.002,40.005 440.002,8.005 408.002,40.005 416.002,72.005   "/>
<g>
	<path style="fill:#010133;" d="M240.002,488.005c132.336,0,240-107.664,240-240c0-63.296-24.672-120.912-64.856-163.832   l3.312-3.312l27.6,6.904c0.648,0.16,1.296,0.24,1.944,0.24c2.096,0,4.136-0.832,5.656-2.344l32-32   c2.04-2.04,2.824-5.016,2.056-7.792c-0.768-2.784-2.976-4.928-5.768-5.624l-27.344-6.832l-6.84-27.344   c-0.696-2.8-2.848-5-5.624-5.776c-2.808-0.776-5.76,0.016-7.792,2.056l-32,32c-1.992,1.984-2.784,4.864-2.104,7.592l6.904,27.608   l-3.304,3.304C360.914,32.677,303.298,8.005,240.002,8.005c-132.336,0-240,107.664-240,240S107.666,488.005,240.002,488.005z    M435.666,23.653l4.576,18.288c0.72,2.864,2.96,5.112,5.824,5.824l18.296,4.576l-18.808,18.808l-22.952-5.736l-5.736-22.952   L435.666,23.653z M240.002,24.005c58.888,0,112.504,22.872,152.528,60.16l-11.312,11.312   c-37.12-34.392-86.744-55.472-141.216-55.472c-114.688,0-208,93.304-208,208s93.312,208,208,208s208-93.304,208-208   c0-54.472-21.08-104.096-55.472-141.216l11.312-11.312c37.288,40.024,60.16,93.64,60.16,152.528c0,123.512-100.488,224-224,224   s-224-100.488-224-224S116.49,24.005,240.002,24.005z M264.002,248.005c0,13.232-10.768,24-24,24s-24-10.768-24-24s10.768-24,24-24   c3.696,0,7.152,0.904,10.28,2.408l-15.936,15.936l11.312,11.312l15.936-15.936C263.098,240.853,264.002,244.309,264.002,248.005z    M262.026,214.669c-6.328-4.192-13.888-6.664-22.024-6.664c-22.056,0-40,17.944-40,40s17.944,40,40,40s40-17.944,40-40   c0-8.136-2.472-15.696-6.664-22.024l39.904-39.904c14.168,16.736,22.76,38.336,22.76,61.928c0,52.936-43.064,96-96,96   s-96-43.064-96-96s43.064-96,96-96c23.592,0,45.192,8.592,61.928,22.76L262.026,214.669z M313.234,163.461   c-19.656-17.056-45.224-27.456-73.232-27.456c-61.76,0-112,50.24-112,112s50.24,112,112,112s112-50.24,112-112   c0-28.008-10.4-53.576-27.456-73.232l11.304-11.304c19.944,22.568,32.152,52.12,32.152,84.536c0,70.576-57.424,128-128,128   s-128-57.424-128-128s57.424-128,128-128c32.416,0,61.968,12.208,84.544,32.144L313.234,163.461z M335.85,140.845   c-25.488-22.824-59.024-36.84-95.848-36.84c-79.4,0-144,64.6-144,144s64.6,144,144,144s144-64.6,144-144   c0-36.824-14.016-70.36-36.84-95.848l34.056-34.056c31.504,34.208,50.784,79.84,50.784,129.904c0,105.864-86.136,192-192,192   s-192-86.136-192-192s86.136-192,192-192c50.064,0,95.696,19.28,129.912,50.776L335.85,140.845z"/>
	<rect x="64.002" y="240.005" style="fill:#010133;" width="16" height="16"/>
	<rect x="400.002" y="240.005" style="fill:#010133;" width="16" height="16"/>
	<rect x="232.002" y="72.005" style="fill:#010133;" width="16" height="16"/>
	<rect x="232.002" y="408.005" style="fill:#010133;" width="16" height="16"/>
</g>
<g>
</g>
<g>
</g>
<g>
</g>
<g>
</g>
<g>
</g>
<g>
</g>
<g>
</g>
<g>
</g>
<g>
</g>
<g>
</g>
<g>
</g>
<g>
</g>
<g>
</g>
<g>
</g>
<g>
</g>
</svg>
