<?xml version="1.0" encoding="iso-8859-1"?>
<!-- Generator: Adobe Illustrator 19.0.0, SVG Export Plug-In . SVG Version: 6.00 Build 0)  -->
<svg xmlns="http://www.w3.org/2000/svg" xmlns:xlink="http://www.w3.org/1999/xlink" version="1.1" id="Layer_1" x="0px" y="0px" viewBox="0 0 512 512" style="enable-background:new 0 0 512 512;" xml:space="preserve">
<g>
	<polygon style="fill:#66CEDB;" points="296,216 296,104 360,104 360,72 256,72 152,72 152,104 216,104 216,216 256,216  "/>
	<polygon style="fill:#66CEDB;" points="216,216 104,216 104,152 72,152 72,256 72,360 104,360 104,296 216,296 216,256  "/>
	<polygon style="fill:#66CEDB;" points="216,296 216,408 152,408 152,440 256,440 360,440 360,408 296,408 296,296 256,296  "/>
	<polygon style="fill:#66CEDB;" points="408,152 408,216 296,216 296,256 296,296 408,296 408,360 440,360 440,256 440,152  "/>
	<circle style="fill:#66CEDB;" cx="256" cy="40" r="32"/>
	<circle style="fill:#66CEDB;" cx="256" cy="472" r="32"/>
	<circle style="fill:#66CEDB;" cx="472" cy="256" r="32"/>
	<circle style="fill:#66CEDB;" cx="40" cy="256" r="32"/>
</g>
<g>
	<path style="fill:#010133;" d="M472,216c-9.04,0-17.296,3.128-24,8.208V152c0-4.424-3.584-8-8-8h-32c-4.416,0-8,3.576-8,8v56h-96   v-96h56c4.416,0,8-3.576,8-8V72c0-4.424-3.584-8-8-8h-72.208c5.08-6.704,8.208-14.96,8.208-24c0-22.056-17.944-40-40-40   s-40,17.944-40,40c0,9.04,3.128,17.296,8.208,24H152c-4.416,0-8,3.576-8,8v32c0,4.424,3.584,8,8,8h56v96h-96v-56   c0-4.424-3.584-8-8-8H72c-4.416,0-8,3.576-8,8v72.208C57.296,219.128,49.04,216,40,216c-22.056,0-40,17.944-40,40s17.944,40,40,40   c9.04,0,17.296-3.128,24-8.208V360c0,4.424,3.584,8,8,8h32c4.416,0,8-3.576,8-8v-56h96v96h-56c-4.416,0-8,3.576-8,8v32   c0,4.424,3.584,8,8,8h72.208c-5.08,6.704-8.208,14.96-8.208,24c0,22.056,17.944,40,40,40s40-17.944,40-40   c0-9.04-3.128-17.296-8.208-24H360c4.416,0,8-3.576,8-8v-32c0-4.424-3.584-8-8-8h-56v-96h96v56c0,4.424,3.584,8,8,8h32   c4.416,0,8-3.576,8-8v-72.208c6.704,5.08,14.96,8.208,24,8.208c22.056,0,40-17.944,40-40S494.056,216,472,216z M224,288v-64h64v64   H224z M232,40c0-13.232,10.768-24,24-24s24,10.768,24,24s-10.768,24-24,24S232,53.232,232,40z M160,96V80h192v16h-56   c-4.416,0-8,3.576-8,8v104h-24v-56c0-4.424-3.584-8-8-8s-8,3.576-8,8v56h-24V104c0-4.424-3.584-8-8-8H160z M40,280   c-13.232,0-24-10.768-24-24s10.768-24,24-24s24,10.768,24,24S53.232,280,40,280z M104,288c-4.416,0-8,3.576-8,8v56H80V160h16v56   c0,4.424,3.584,8,8,8h104v24h-56c-4.416,0-8,3.576-8,8c0,4.424,3.584,8,8,8h56v24H104z M280,472c0,13.232-10.768,24-24,24   s-24-10.768-24-24s10.768-24,24-24S280,458.768,280,472z M352,416v16H160v-16h56c4.416,0,8-3.576,8-8V304h24v56   c0,4.424,3.584,8,8,8c4.416,0,8-3.576,8-8v-56h24v104c0,4.424,3.584,8,8,8H352z M432,352h-16v-56c0-4.424-3.584-8-8-8H304v-24h56   c4.416,0,8-3.576,8-8s-3.584-8-8-8h-56v-24h104c4.416,0,8-3.576,8-8v-56h16V352z M472,280c-13.232,0-24-10.768-24-24   s10.768-24,24-24s24,10.768,24,24S485.232,280,472,280z"/>
	<rect x="112" y="416" style="fill:#010133;" width="16" height="16"/>
	<rect x="80" y="416" style="fill:#010133;" width="16" height="16"/>
	<rect x="80" y="384" style="fill:#010133;" width="16" height="16"/>
	<rect x="384" y="80" style="fill:#010133;" width="16" height="16"/>
	<rect x="416" y="80" style="fill:#010133;" width="16" height="16"/>
	<rect x="416" y="112" style="fill:#010133;" width="16" height="16"/>
	<rect x="80" y="112" style="fill:#010133;" width="16" height="16"/>
	<rect x="80" y="80" style="fill:#010133;" width="16" height="16"/>
	<rect x="112" y="80" style="fill:#010133;" width="16" height="16"/>
	<rect x="384" y="416" style="fill:#010133;" width="16" height="16"/>
	<rect x="416" y="416" style="fill:#010133;" width="16" height="16"/>
	<rect x="416" y="384" style="fill:#010133;" width="16" height="16"/>
</g>
<g>
</g>
<g>
</g>
<g>
</g>
<g>
</g>
<g>
</g>
<g>
</g>
<g>
</g>
<g>
</g>
<g>
</g>
<g>
</g>
<g>
</g>
<g>
</g>
<g>
</g>
<g>
</g>
<g>
</g>
</svg>
