<?xml version="1.0" encoding="iso-8859-1"?>
<!-- Generator: Adobe Illustrator 19.0.0, SVG Export Plug-In . SVG Version: 6.00 Build 0)  -->
<svg xmlns="http://www.w3.org/2000/svg" xmlns:xlink="http://www.w3.org/1999/xlink" version="1.1" id="Layer_1" x="0px" y="0px" viewBox="0 0 512 512" style="enable-background:new 0 0 512 512;" xml:space="preserve">
<g>
	<path style="fill:#66CEDB;" d="M472,96h-40h-40c-17.672,0-32,14.328-32,32v56h32v104h40h40V184h32v-56   C504,110.328,489.672,96,472,96z"/>
	<path style="fill:#66CEDB;" d="M296,96h-40h-40c-17.672,0-32,14.328-32,32v56h32v104h40h40V184h32v-56   C328,110.328,313.672,96,296,96z"/>
	<path style="fill:#66CEDB;" d="M120,96H80H40c-17.672,0-32,14.328-32,32v56h32v104h40h40V184h32v-56C152,110.328,137.672,96,120,96   z"/>
	<circle style="fill:#66CEDB;" cx="80" cy="56" r="40"/>
	<circle style="fill:#66CEDB;" cx="80" cy="360" r="40"/>
	<circle style="fill:#66CEDB;" cx="256" cy="56" r="40"/>
	<circle style="fill:#66CEDB;" cx="432" cy="56" r="40"/>
	<circle style="fill:#66CEDB;" cx="256" cy="360" r="40"/>
	<circle style="fill:#66CEDB;" cx="432" cy="360" r="40"/>
	<path style="fill:#66CEDB;" d="M120,400H80H40c-17.672,0-32,14.328-32,32v56h32v16h80v-16h32v-56C152,414.328,137.672,400,120,400z   "/>
	<path style="fill:#66CEDB;" d="M296,400h-40h-40c-17.672,0-32,14.328-32,32v56h32v16h80v-16h32v-56   C328,414.328,313.672,400,296,400z"/>
	<path style="fill:#66CEDB;" d="M472,400h-40h-40c-17.672,0-32,14.328-32,32v56h32v16h80v-16h32v-56   C504,414.328,489.672,400,472,400z"/>
</g>
<g>
	<path style="fill:#010133;" d="M120,88h-4.32C123.312,79.496,128,68.304,128,56c0-26.472-21.528-48-48-48S32,29.528,32,56   c0,12.304,4.688,23.496,12.32,32H40c-22.056,0-40,17.944-40,40v56c0,4.424,3.584,8,8,8h24v96c0,4.424,3.584,8,8,8h40h40   c4.416,0,8-3.576,8-8v-96h24c4.416,0,8-3.576,8-8v-56C160,105.944,142.056,88,120,88z M48,56c0-17.648,14.352-32,32-32   s32,14.352,32,32S97.648,88,80,88S48,73.648,48,56z M144,176h-16v-48h-16v152H88v-88H72v88H48V128H32v48H16v-48   c0-13.232,10.768-24,24-24h80c13.232,0,24,10.768,24,24V176z"/>
	<path style="fill:#010133;" d="M120,392h-4.32c7.632-8.504,12.32-19.696,12.32-32c0-26.472-21.528-48-48-48s-48,21.528-48,48   c0,12.304,4.688,23.496,12.32,32H40c-22.056,0-40,17.944-40,40v56c0,4.424,3.584,8,8,8h24v8h16v-72H32v48H16v-48   c0-13.232,10.768-24,24-24h80c13.232,0,24,10.768,24,24v48h-16v-48h-16v72h16v-8h24c4.416,0,8-3.576,8-8v-56   C160,409.944,142.056,392,120,392z M48,360c0-17.648,14.352-32,32-32s32,14.352,32,32s-14.352,32-32,32S48,377.648,48,360z"/>
	<path style="fill:#010133;" d="M296,88h-4.32C299.312,79.496,304,68.304,304,56c0-26.472-21.528-48-48-48s-48,21.528-48,48   c0,12.304,4.688,23.496,12.32,32H216c-22.056,0-40,17.944-40,40v56c0,4.424,3.584,8,8,8h24v96c0,4.424,3.584,8,8,8h40h40   c4.416,0,8-3.576,8-8v-96h24c4.416,0,8-3.576,8-8v-56C336,105.944,318.056,88,296,88z M224,56c0-17.648,14.352-32,32-32   s32,14.352,32,32s-14.352,32-32,32S224,73.648,224,56z M320,176h-16v-48h-16v152h-24v-88h-16v88h-24V128h-16v48h-16v-48   c0-13.232,10.768-24,24-24h80c13.232,0,24,10.768,24,24V176z"/>
	<path style="fill:#010133;" d="M472,88h-4.32C475.312,79.496,480,68.304,480,56c0-26.472-21.528-48-48-48s-48,21.528-48,48   c0,12.304,4.688,23.496,12.32,32H392c-22.056,0-40,17.944-40,40v56c0,4.424,3.584,8,8,8h24v96c0,4.424,3.584,8,8,8h40h40   c4.416,0,8-3.576,8-8v-96h24c4.416,0,8-3.576,8-8v-56C512,105.944,494.056,88,472,88z M400,56c0-17.648,14.352-32,32-32   s32,14.352,32,32s-14.352,32-32,32S400,73.648,400,56z M496,176h-16v-48h-16v152h-24v-88h-16v88h-24V128h-16v48h-16v-48   c0-13.232,10.768-24,24-24h80c13.232,0,24,10.768,24,24V176z"/>
	<path style="fill:#010133;" d="M296,392h-4.32c7.632-8.504,12.32-19.696,12.32-32c0-26.472-21.528-48-48-48s-48,21.528-48,48   c0,12.304,4.688,23.496,12.32,32H216c-22.056,0-40,17.944-40,40v56c0,4.424,3.584,8,8,8h24v8h16v-72h-16v48h-16v-48   c0-13.232,10.768-24,24-24h80c13.232,0,24,10.768,24,24v48h-16v-48h-16v72h16v-8h24c4.416,0,8-3.576,8-8v-56   C336,409.944,318.056,392,296,392z M224,360c0-17.648,14.352-32,32-32s32,14.352,32,32s-14.352,32-32,32S224,377.648,224,360z"/>
	<path style="fill:#010133;" d="M472,392h-4.32c7.632-8.504,12.32-19.696,12.32-32c0-26.472-21.528-48-48-48s-48,21.528-48,48   c0,12.304,4.688,23.496,12.32,32H392c-22.056,0-40,17.944-40,40v56c0,4.424,3.584,8,8,8h24v8h16v-72h-16v48h-16v-48   c0-13.232,10.768-24,24-24h80c13.232,0,24,10.768,24,24v48h-16v-48h-16v72h16v-8h24c4.416,0,8-3.576,8-8v-56   C512,409.944,494.056,392,472,392z M400,360c0-17.648,14.352-32,32-32s32,14.352,32,32s-14.352,32-32,32S400,377.648,400,360z"/>
</g>
<g>
</g>
<g>
</g>
<g>
</g>
<g>
</g>
<g>
</g>
<g>
</g>
<g>
</g>
<g>
</g>
<g>
</g>
<g>
</g>
<g>
</g>
<g>
</g>
<g>
</g>
<g>
</g>
<g>
</g>
</svg>
