<?xml version="1.0" encoding="iso-8859-1"?>
<!-- Generator: Adobe Illustrator 19.0.0, SVG Export Plug-In . SVG Version: 6.00 Build 0)  -->
<svg xmlns="http://www.w3.org/2000/svg" xmlns:xlink="http://www.w3.org/1999/xlink" version="1.1" id="Layer_1" x="0px" y="0px" viewBox="0 0 486.378 486.378" style="enable-background:new 0 0 486.378 486.378;" xml:space="preserve">
<path style="fill:#F6BF58;" d="M302.376,294.017h88c0-13.896-2.072-27.288-5.752-40c-6.136-21.232-17.04-40.384-31.456-56.352l0,0  c-3.256-3.608-6.704-7.048-10.304-10.312c-0.072-0.064-0.144-0.136-0.224-0.2c-3.48-3.144-7.12-6.104-10.896-8.904  c-0.248-0.184-0.496-0.376-0.744-0.552c-3.568-2.608-7.28-5.032-11.088-7.312c-0.504-0.296-0.992-0.616-1.496-0.912  c-3.56-2.072-7.24-3.952-10.992-5.72c-0.792-0.376-1.568-0.784-2.368-1.136c-3.504-1.576-7.112-2.944-10.752-4.24  c-1.08-0.384-2.136-0.824-3.232-1.184c-3.448-1.136-7-2.048-10.56-2.92c-1.32-0.32-2.616-0.728-3.952-1.016  c-3.568-0.768-7.224-1.288-10.888-1.784c-1.352-0.184-2.672-0.472-4.04-0.616c-5-0.544-10.096-0.84-15.256-0.84  s-10.256,0.296-15.272,0.824c-1.368,0.144-2.68,0.432-4.04,0.616c-3.664,0.496-7.32,1.016-10.888,1.784  c-1.336,0.288-2.624,0.696-3.952,1.016c-3.56,0.872-7.104,1.784-10.56,2.92c-1.096,0.36-2.152,0.8-3.232,1.184  c-3.64,1.296-7.248,2.664-10.752,4.24c-0.8,0.36-1.576,0.768-2.368,1.136c-3.744,1.768-7.432,3.648-10.992,5.72  c-0.504,0.296-0.992,0.608-1.496,0.912c-3.808,2.28-7.52,4.704-11.088,7.312c-0.248,0.184-0.496,0.368-0.744,0.552  c-3.776,2.8-7.416,5.76-10.896,8.904c-0.072,0.064-0.144,0.136-0.224,0.2c-3.6,3.264-7.04,6.704-10.304,10.312l0,0  c-23.04,25.544-37.192,59.264-37.192,96.368h88H302.376z"/>
<path style="fill:#66CEDB;" d="M150.104,400.889c3.48,3.144,7.128,6.104,10.904,8.904c0.248,0.184,0.488,0.368,0.736,0.552  c3.576,2.616,7.288,5.04,11.096,7.32c0.496,0.296,0.984,0.608,1.48,0.896c3.56,2.072,7.248,3.96,11,5.728  c0.792,0.376,1.56,0.784,2.36,1.136c3.504,1.576,7.112,2.944,10.752,4.24c1.08,0.384,2.136,0.824,3.232,1.184  c3.456,1.136,7.008,2.048,10.576,2.928c1.312,0.32,2.6,0.728,3.928,1.008c3.576,0.768,7.232,1.288,10.904,1.784  c1.352,0.184,2.664,0.472,4.024,0.616c5.024,0.536,10.12,0.832,15.28,0.832s10.256-0.296,15.272-0.824  c1.36-0.144,2.68-0.432,4.024-0.616c3.664-0.496,7.328-1.016,10.904-1.784c1.328-0.28,2.608-0.688,3.928-1.008  c3.568-0.872,7.12-1.792,10.576-2.928c1.096-0.36,2.152-0.8,3.232-1.184c3.64-1.296,7.248-2.664,10.752-4.24  c0.8-0.36,1.568-0.768,2.36-1.136c3.752-1.768,7.432-3.648,11-5.728c0.504-0.288,0.984-0.608,1.48-0.896  c3.808-2.28,7.528-4.712,11.096-7.32c0.248-0.184,0.488-0.368,0.736-0.552c3.776-2.8,7.416-5.76,10.904-8.904  c0.072-0.064,0.144-0.136,0.224-0.2c3.232-2.92,6.272-6.04,9.224-9.24c0.344-0.376,0.736-0.704,1.08-1.08  c-0.016-0.016-0.04-0.032-0.064-0.048c14.424-15.952,25.384-35.064,31.52-56.304c3.68-12.72,5.752-26.112,5.752-40.008h-88h-112h-88  c0,42.352,18.4,80.32,47.512,106.672C149.96,400.753,150.032,400.817,150.104,400.889z"/>
<g>
	<path style="fill:#010133;" d="M14.376,294.017h16c0-119.104,96.896-216,216-216h156.688L392.72,88.361l11.312,11.312l24-24   c3.128-3.128,3.128-8.184,0-11.312l-24-24L392.72,51.673l10.344,10.344H246.376C118.456,62.017,14.376,166.089,14.376,294.017z"/>
	<path style="fill:#010133;" d="M246.376,38.017h212.688L448.72,48.361l11.312,11.312l24-24c3.128-3.128,3.128-8.184,0-11.312   l-24-24L448.72,11.673l10.344,10.344H246.376c-105.04,0-201.744,61.472-246.376,156.6l14.488,6.8   C56.496,95.873,147.52,38.017,246.376,38.017z"/>
	<path style="fill:#010133;" d="M398.376,182.017c2.128,0,4.16-0.84,5.656-2.344l45.656-45.656h36.688v-16h-40   c-2.128,0-4.16,0.84-5.656,2.344l-45.656,45.656h-67.04c-1.688-1.08-3.4-2.104-5.128-3.12c-0.4-0.232-0.784-0.496-1.192-0.72   c-4.384-2.52-8.896-4.824-13.544-6.904c-0.08-0.04-0.16-0.08-0.24-0.12c-14.136-6.288-29.36-10.552-45.36-12.248   c-0.088-0.008-0.168-0.032-0.256-0.04c-5.24-0.544-10.544-0.848-15.928-0.848s-10.688,0.304-15.928,0.848   c-0.088,0.008-0.168,0.032-0.256,0.04c-16,1.704-31.224,5.96-45.36,12.248c-0.08,0.04-0.16,0.08-0.24,0.12   c-4.648,2.08-9.16,4.384-13.544,6.904c-0.4,0.232-0.792,0.488-1.192,0.72c-4.04,2.368-7.96,4.896-11.744,7.608   c-0.648,0.464-1.264,0.952-1.904,1.424c-3.512,2.6-6.92,5.336-10.192,8.224c-0.736,0.648-1.448,1.312-2.168,1.976   c-3.152,2.888-6.176,5.904-9.072,9.048c-0.36,0.392-0.768,0.728-1.128,1.128c-0.088,0.096-0.112,0.232-0.2,0.336   c-24.208,26.928-39.072,62.408-39.072,101.376s14.864,74.448,39.064,101.376c0.08,0.104,0.112,0.24,0.2,0.336   c0.36,0.4,0.768,0.736,1.128,1.128c2.896,3.144,5.92,6.152,9.072,9.048c0.72,0.664,1.44,1.328,2.168,1.976   c3.272,2.888,6.68,5.624,10.192,8.224c0.64,0.472,1.256,0.96,1.904,1.424c3.792,2.72,7.712,5.248,11.744,7.608   c0.4,0.232,0.784,0.496,1.192,0.72c4.384,2.52,8.896,4.824,13.544,6.904c0.08,0.04,0.16,0.08,0.24,0.12   c14.136,6.288,29.36,10.552,45.36,12.248c0.088,0.008,0.168,0.032,0.256,0.04c5.248,0.544,10.552,0.848,15.936,0.848   s10.688-0.304,15.928-0.848c0.088-0.008,0.168-0.032,0.256-0.04c16-1.704,31.224-5.96,45.36-12.248c0.08-0.04,0.16-0.08,0.24-0.12   c4.648-2.08,9.16-4.384,13.544-6.904c0.4-0.232,0.792-0.488,1.192-0.72c1.728-1.016,3.448-2.04,5.128-3.12h67.04l45.656,45.656   c1.496,1.504,3.528,2.344,5.656,2.344h40v-16h-36.688l-45.656-45.656c-1.496-1.504-3.528-2.344-5.656-2.344h-49.584   c0.04-0.04,0.072-0.08,0.112-0.112c3.152-2.888,6.176-5.904,9.072-9.048c0.36-0.392,0.768-0.728,1.128-1.128   c0.088-0.096,0.112-0.232,0.2-0.336c3.832-4.256,7.44-8.704,10.768-13.376h40.984l29.656,29.656   c1.504,1.504,3.536,2.344,5.664,2.344h40v-16h-36.688l-29.656-29.656c-1.496-1.504-3.528-2.344-5.656-2.344h-34.184   c4.12-7.624,7.512-15.672,10.296-24h36.576l13.656,13.656c1.496,1.504,3.528,2.344,5.656,2.344h40v-16h-36.688l-13.656-13.656   c-1.496-1.504-3.528-2.344-5.656-2.344H394.92c1.68-7.792,2.624-15.824,3.048-24h88.408v-16h-88.408   c-0.432-8.176-1.376-16.208-3.048-24h35.456c2.128,0,4.16-0.84,5.656-2.344l13.656-13.656h36.688v-16h-40   c-2.128,0-4.16,0.84-5.656,2.344l-13.656,13.656h-36.576c-2.784-8.328-6.176-16.376-10.296-24h34.184   c2.128,0,4.16-0.84,5.656-2.344l29.656-29.656h36.688v-16h-40c-2.128,0-4.16,0.84-5.656,2.344l-29.656,29.656H370.08   c-3.336-4.672-6.944-9.12-10.768-13.376c-0.08-0.104-0.112-0.24-0.2-0.336c-0.36-0.4-0.768-0.736-1.128-1.128   c-2.896-3.144-5.92-6.152-9.072-9.048c-0.04-0.04-0.072-0.08-0.112-0.112L398.376,182.017L398.376,182.017z M381.968,286.017   H310.04c-0.864-19.456-4.688-37.824-10.096-54.512c20.176-5.032,38.056-12.864,52.048-22.992   C369.376,229.945,380.256,256.761,381.968,286.017z M351.992,379.521c-13.984-10.128-31.864-17.96-52.048-22.992   c5.408-16.688,9.232-35.056,10.096-54.512h71.928C380.256,331.273,369.376,358.089,351.992,379.521z M270.888,427.689   c-2.448,0.456-4.912,0.776-7.384,1.096c8.824-12.496,21.176-32.416,31.032-57.192c18.072,4.312,34.184,10.96,46.688,19.664   c-18.992,18.528-42.896,31.048-68.576,36.16C272.064,427.529,271.464,427.585,270.888,427.689z M220.112,427.417   c-25.68-5.112-49.584-17.632-68.576-36.16c12.504-8.704,28.616-15.352,46.688-19.664c9.856,24.768,22.208,44.696,31.032,57.192   c-2.472-0.32-4.944-0.64-7.384-1.096C221.288,427.585,220.688,427.529,220.112,427.417z M110.784,302.017h71.928   c0.864,19.456,4.688,37.824,10.096,54.512c-20.176,5.032-38.056,12.864-52.048,22.992   C123.376,358.089,112.496,331.273,110.784,302.017z M140.76,208.513c13.984,10.128,31.864,17.96,52.048,22.992   c-5.408,16.688-9.232,35.056-10.096,54.512h-71.928C112.496,256.761,123.376,229.945,140.76,208.513z M221.864,160.345   c2.448-0.456,4.912-0.776,7.384-1.096c-8.824,12.496-21.176,32.416-31.032,57.192c-18.072-4.312-34.184-10.96-46.688-19.664   c18.992-18.528,42.896-31.048,68.576-36.16C220.688,160.505,221.288,160.449,221.864,160.345z M272.64,160.617   c25.68,5.112,49.584,17.632,68.576,36.16c-12.504,8.704-28.616,15.352-46.688,19.664c-9.856-24.768-22.208-44.696-31.032-57.192   c2.472,0.32,4.944,0.64,7.384,1.096C271.464,160.449,272.064,160.505,272.64,160.617z M246.376,350.017   c-12.96,0-25.6,1.184-37.728,3.216c-5.272-15.736-9.104-33.032-10-51.216h95.448c-0.896,18.184-4.728,35.48-10,51.216   C271.976,351.201,259.336,350.017,246.376,350.017z M278.408,368.473c-10.76,25.968-24.336,46.208-32.032,56.584   c-7.704-10.376-21.272-30.616-32.032-56.584c10.304-1.552,21.024-2.456,32.032-2.456S268.104,366.921,278.408,368.473z    M198.648,286.017c0.896-18.184,4.728-35.48,10-51.216c12.128,2.032,24.768,3.216,37.728,3.216c12.96,0,25.6-1.184,37.728-3.216   c5.272,15.736,9.104,33.032,10,51.216H198.648z M246.376,222.017c-11.008,0-21.728-0.904-32.032-2.456   c10.76-25.968,24.336-46.208,32.032-56.584c7.704,10.376,21.272,30.616,32.032,56.584   C268.104,221.113,257.384,222.017,246.376,222.017z"/>
	<path style="fill:#010133;" d="M348.032,139.673l24-24c3.128-3.128,3.128-8.184,0-11.312l-24-24L336.72,91.673l10.344,10.344   H246.376c-105.864,0-192,86.136-192,192s86.136,192,192,192h40v-16h-40c-97.048,0-176-78.952-176-176s78.952-176,176-176h100.688   l-10.344,10.344L348.032,139.673z"/>
	<rect x="302.376" y="470.017" style="fill:#010133;" width="16" height="16"/>
	<rect x="334.376" y="470.017" style="fill:#010133;" width="16" height="16"/>
	<rect x="366.376" y="470.017" style="fill:#010133;" width="16" height="16"/>
	<rect x="14.376" y="310.017" style="fill:#010133;" width="16" height="16"/>
</g>
<g>
</g>
<g>
</g>
<g>
</g>
<g>
</g>
<g>
</g>
<g>
</g>
<g>
</g>
<g>
</g>
<g>
</g>
<g>
</g>
<g>
</g>
<g>
</g>
<g>
</g>
<g>
</g>
<g>
</g>
</svg>
